<svg width="41" height="40" viewBox="0 0 41 40" fill="none" xmlns="http://www.w3.org/2000/svg">
<path d="M18.8338 5C25.1171 5 30.1838 9.91667 30.5005 16.1L33.7005 20.3167C34.1005 20.8333 33.7005 21.6667 33.0005 21.6667H30.5005V26.6667C30.5005 28.5167 29.0171 30 27.1671 30H25.5005V35H13.8338V27.1833C9.8838 25.3167 7.16714 21.3333 7.16714 16.6667C7.16714 10.2333 12.3671 5 18.8338 5ZM23.8338 18.3333C24.7505 18.3333 25.5005 17.5833 25.5005 16.6667C25.5005 15.75 24.7505 15 23.8338 15C22.9171 15 22.1671 15.75 22.1671 16.6667C22.1671 17.5833 22.9171 18.3333 23.8338 18.3333ZM18.8338 18.3333C19.7505 18.3333 20.5005 17.5833 20.5005 16.6667C20.5005 15.75 19.7505 15 18.8338 15C17.9171 15 17.1671 15.75 17.1671 16.6667C17.1671 17.5833 17.9171 18.3333 18.8338 18.3333ZM13.8338 18.3333C14.7505 18.3333 15.5005 17.5833 15.5005 16.6667C15.5005 15.75 14.7505 15 13.8338 15C12.9171 15 12.1671 15.75 12.1671 16.6667C12.1671 17.5833 12.9171 18.3333 13.8338 18.3333Z" fill="#B0EC64"/>
</svg>
