<svg width="41" height="40" viewBox="0 0 41 40" fill="none" xmlns="http://www.w3.org/2000/svg">
<path d="M20.4974 3.33203C22.7075 3.33203 24.8272 4.21 26.39 5.77281C27.9528 7.33561 28.8307 9.45523 28.8307 11.6654V16.6654C30.1568 16.6654 31.4286 17.1921 32.3663 18.1298C33.3039 19.0675 33.8307 20.3393 33.8307 21.6654V31.6654C33.8307 32.9914 33.3039 34.2632 32.3663 35.2009C31.4286 36.1386 30.1568 36.6654 28.8307 36.6654H12.1641C10.838 36.6654 9.56621 36.1386 8.62853 35.2009C7.69085 34.2632 7.16406 32.9914 7.16406 31.6654V21.6654C7.16406 20.3393 7.69085 19.0675 8.62853 18.1298C9.56621 17.1921 10.838 16.6654 12.1641 16.6654V11.6654C12.1641 9.45523 13.042 7.33561 14.6048 5.77281C16.1676 4.21 18.2873 3.33203 20.4974 3.33203ZM20.4974 23.332C19.6564 23.3318 18.8465 23.6494 18.2298 24.2212C17.6132 24.793 17.2355 25.5768 17.1724 26.4154L17.1641 26.6654C17.1641 27.3246 17.3596 27.9691 17.7258 28.5173C18.0921 29.0654 18.6127 29.4927 19.2218 29.745C19.8309 29.9973 20.5011 30.0633 21.1477 29.9346C21.7943 29.806 22.3882 29.4886 22.8544 29.0224C23.3206 28.5562 23.6381 27.9623 23.7667 27.3157C23.8953 26.6691 23.8293 25.9988 23.577 25.3898C23.3247 24.7807 22.8975 24.2601 22.3493 23.8938C21.8011 23.5275 21.1567 23.332 20.4974 23.332ZM20.4974 6.66536C19.1713 6.66536 17.8995 7.19215 16.9619 8.12983C16.0242 9.06751 15.4974 10.3393 15.4974 11.6654V16.6654H25.4974V11.6654C25.4974 10.3393 24.9706 9.06751 24.0329 8.12983C23.0952 7.19215 21.8235 6.66536 20.4974 6.66536Z" fill="#B0EC64"/>
</svg>
