<svg width="41" height="40" viewBox="0 0 41 40" fill="none" xmlns="http://www.w3.org/2000/svg">
<path d="M28.4984 5.5C28.4984 5.10218 28.6564 4.72064 28.9377 4.43934C29.219 4.15804 29.6005 4 29.9984 4H34.9984C35.3962 4 35.7777 4.15804 36.059 4.43934C36.3403 4.72064 36.4984 5.10218 36.4984 5.5V10.5C36.4984 10.8978 36.3403 11.2794 36.059 11.5607C35.7777 11.842 35.3962 12 34.9984 12C34.6005 12 34.219 11.842 33.9377 11.5607C33.6564 11.2794 33.4984 10.8978 33.4984 10.5V9.12L24.5584 18.06C24.2771 18.3409 23.8959 18.4987 23.4984 18.4987C23.1009 18.4987 22.7196 18.3409 22.4384 18.06L17.4984 13.12L9.05835 21.56C8.92103 21.7074 8.75543 21.8256 8.57143 21.9076C8.38743 21.9895 8.18881 22.0336 7.9874 22.0372C7.78599 22.0407 7.58594 22.0037 7.39916 21.9282C7.21238 21.8528 7.04272 21.7405 6.90028 21.5981C6.75784 21.4556 6.64555 21.286 6.57011 21.0992C6.49467 20.9124 6.45762 20.7124 6.46117 20.511C6.46472 20.3095 6.50881 20.1109 6.59079 19.9269C6.67278 19.7429 6.79098 19.5773 6.93835 19.44L16.4384 9.94C16.7196 9.6591 17.1009 9.50132 17.4984 9.50132C17.8959 9.50132 18.2771 9.6591 18.5584 9.94L23.4984 14.88L31.3784 7H29.9984C29.6005 7 29.219 6.84196 28.9377 6.56066C28.6564 6.27936 28.4984 5.89782 28.4984 5.5ZM7.99835 28C8.39618 28 8.77771 28.158 9.05901 28.4393C9.34032 28.7206 9.49835 29.1022 9.49835 29.5V34.5C9.49835 34.8978 9.34032 35.2794 9.05901 35.5607C8.77771 35.842 8.39618 36 7.99835 36C7.60053 36 7.219 35.842 6.93769 35.5607C6.65639 35.2794 6.49835 34.8978 6.49835 34.5V29.5C6.49835 29.1022 6.65639 28.7206 6.93769 28.4393C7.219 28.158 7.60053 28 7.99835 28ZM17.4984 23.5C17.4984 23.1022 17.3403 22.7206 17.059 22.4393C16.7777 22.158 16.3962 22 15.9984 22C15.6005 22 15.219 22.158 14.9377 22.4393C14.6564 22.7206 14.4984 23.1022 14.4984 23.5V34.5C14.4984 34.8978 14.6564 35.2794 14.9377 35.5607C15.219 35.842 15.6005 36 15.9984 36C16.3962 36 16.7777 35.842 17.059 35.5607C17.3403 35.2794 17.4984 34.8978 17.4984 34.5V23.5ZM23.9984 26C24.3962 26 24.7777 26.158 25.059 26.4393C25.3403 26.7206 25.4984 27.1022 25.4984 27.5V34.5C25.4984 34.8978 25.3403 35.2794 25.059 35.5607C24.7777 35.842 24.3962 36 23.9984 36C23.6005 36 23.219 35.842 22.9377 35.5607C22.6564 35.2794 22.4984 34.8978 22.4984 34.5V27.5C22.4984 27.1022 22.6564 26.7206 22.9377 26.4393C23.219 26.158 23.6005 26 23.9984 26ZM33.4984 19.5C33.4984 19.1022 33.3403 18.7206 33.059 18.4393C32.7777 18.158 32.3962 18 31.9984 18C31.6005 18 31.219 18.158 30.9377 18.4393C30.6564 18.7206 30.4984 19.1022 30.4984 19.5V34.5C30.4984 34.8978 30.6564 35.2794 30.9377 35.5607C31.219 35.842 31.6005 36 31.9984 36C32.3962 36 32.7777 35.842 33.059 35.5607C33.3403 35.2794 33.4984 34.8978 33.4984 34.5V19.5Z" fill="#B0EC64"/>
</svg>
