<svg width="41" height="40" viewBox="0 0 41 40" fill="none" xmlns="http://www.w3.org/2000/svg">
<g clip-path="url(#clip0_551_3537)">
<path d="M35.8125 13.7617C35.75 13.6055 35.6844 13.4492 35.6172 13.293C34.6091 10.968 32.9776 8.96718 30.9031 7.51172H34.25C34.5815 7.51172 34.8995 7.38002 35.1339 7.1456C35.3683 6.91118 35.5 6.59324 35.5 6.26172C35.5 5.9302 35.3683 5.61226 35.1339 5.37783C34.8995 5.14341 34.5815 5.01172 34.25 5.01172H18C14.5439 5.01611 11.2158 6.32009 8.67669 8.66472C6.13753 11.0094 4.573 14.2232 4.29375 17.668C3.214 17.9364 2.25462 18.5573 1.56748 19.4323C0.880338 20.3074 0.50469 21.3866 0.5 22.4992C0.5 22.8307 0.631696 23.1487 0.866117 23.3831C1.10054 23.6175 1.41848 23.7492 1.75 23.7492C2.08152 23.7492 2.39946 23.6175 2.63388 23.3831C2.8683 23.1487 3 22.8307 3 22.4992C3.00029 22.0434 3.1252 21.5963 3.36121 21.2064C3.59723 20.8164 3.93537 20.4984 4.33906 20.2867C4.6503 23.0912 5.81969 25.7311 7.6875 27.8461L9.65 33.3398C9.8235 33.8258 10.1431 34.2461 10.565 34.5432C10.9868 34.8403 11.4903 34.9996 12.0063 34.9992H13.9937C14.5095 34.9993 15.0126 34.8398 15.4341 34.5428C15.8557 34.2457 16.175 33.8255 16.3484 33.3398L16.6484 32.4992H25.6016L25.9016 33.3398C26.075 33.8255 26.3943 34.2457 26.8159 34.5428C27.2374 34.8398 27.7405 34.9993 28.2563 34.9992H30.2437C30.7595 34.9993 31.2626 34.8398 31.6841 34.5428C32.1057 34.2457 32.425 33.8255 32.5984 33.3398L35.1312 26.2492H35.5C36.4946 26.2492 37.4484 25.8541 38.1516 25.1509C38.8549 24.4476 39.25 23.4938 39.25 22.4992V17.4992C39.2501 16.5587 38.8968 15.6524 38.2601 14.9601C37.6234 14.2678 36.7498 13.8401 35.8125 13.7617ZM24.25 11.2492H18C17.6685 11.2492 17.3505 11.1175 17.1161 10.8831C16.8817 10.6487 16.75 10.3307 16.75 9.99922C16.75 9.6677 16.8817 9.34976 17.1161 9.11534C17.3505 8.88091 17.6685 8.74922 18 8.74922H24.25C24.5815 8.74922 24.8995 8.88091 25.1339 9.11534C25.3683 9.34976 25.5 9.6677 25.5 9.99922C25.5 10.3307 25.3683 10.6487 25.1339 10.8831C24.8995 11.1175 24.5815 11.2492 24.25 11.2492ZM28.625 19.9992C28.2542 19.9992 27.8916 19.8893 27.5833 19.6832C27.275 19.4772 27.0346 19.1844 26.8927 18.8418C26.7508 18.4991 26.7137 18.1221 26.786 17.7584C26.8584 17.3947 27.037 17.0606 27.2992 16.7984C27.5614 16.5362 27.8955 16.3576 28.2592 16.2852C28.6229 16.2129 28.9999 16.25 29.3425 16.3919C29.6851 16.5339 29.978 16.7742 30.184 17.0825C30.39 17.3909 30.5 17.7534 30.5 18.1242C30.5 18.6215 30.3025 19.0984 29.9508 19.45C29.5992 19.8017 29.1223 19.9992 28.625 19.9992Z" fill="#B0EC64"/>
</g>
<defs>
<clipPath id="clip0_551_3537">
<rect width="40" height="40" fill="white" transform="translate(0.5)"/>
</clipPath>
</defs>
</svg>
