<svg width="41" height="40" viewBox="0 0 41 40" fill="none" xmlns="http://www.w3.org/2000/svg">
<g clip-path="url(#clip0_550_874)">
<path d="M39.8167 5.7931C39.3922 4.62586 38.7171 3.56582 37.8389 2.68758C36.9606 1.80933 35.9006 1.13423 34.7333 0.709766C32.55 0.00976567 30.5667 0.00976562 26.5333 0.00976562H14.4333C10.4333 0.00976562 8.41667 0.00976562 6.26667 0.676432C5.09773 1.10266 4.03663 1.78032 3.15827 2.66156C2.27992 3.54279 1.60574 4.60611 1.18333 5.77643C0.5 7.9431 0.5 9.9431 0.5 13.9431V26.0598C0.5 30.0764 0.5 32.0598 1.16667 34.2264C1.59113 35.3937 2.26624 36.4537 3.14448 37.332C4.02272 38.2102 5.08276 38.8853 6.25 39.3098C8.41667 39.9931 10.4167 39.9931 14.4167 39.9931H26.55C30.5667 39.9931 32.5667 39.9931 34.7167 39.3264C35.8887 38.9023 36.9531 38.2255 37.8344 37.3442C38.7158 36.4628 39.3925 35.3985 39.8167 34.2264C40.5 32.0598 40.5 30.0598 40.5 26.0598V13.9764C40.5 9.95977 40.5 7.95977 39.8167 5.7931ZM29.5333 13.5098L27.9833 15.0598C27.8323 15.2003 27.6345 15.2798 27.4282 15.2828C27.2219 15.2859 27.0218 15.2124 26.8667 15.0764C25.3656 13.8087 23.4648 13.1122 21.5 13.1098C19.8833 13.1098 18.2667 13.6431 18.2667 15.1264C18.2667 16.6264 20 17.1264 22 17.8764C25.5 19.0431 28.4 20.5098 28.4 23.9431C28.4 27.6764 25.5 30.2431 20.7667 30.5264L20.3333 32.5264C20.295 32.7102 20.1945 32.8752 20.0488 32.9936C19.9031 33.112 19.7211 33.1766 19.5333 33.1764H16.55L16.4 33.1598C16.1865 33.1119 16.0003 32.9819 15.8818 32.7979C15.7633 32.6139 15.722 32.3907 15.7667 32.1764L16.2333 30.0598C14.437 29.6095 12.7851 28.7089 11.4333 27.4431V27.4264C11.3588 27.3521 11.2996 27.2638 11.2592 27.1666C11.2188 27.0693 11.198 26.9651 11.198 26.8598C11.198 26.7545 11.2188 26.6502 11.2592 26.553C11.2996 26.4557 11.3588 26.3674 11.4333 26.2931L13.1 24.6764C13.2513 24.5347 13.451 24.4558 13.6583 24.4558C13.8657 24.4558 14.0653 24.5347 14.2167 24.6764C15.7333 26.1098 17.7667 26.9098 19.8667 26.8764C22.0333 26.8764 23.4833 25.9598 23.4833 24.5098C23.4833 23.0598 22.0167 22.6764 19.25 21.6431C16.3167 20.5931 13.5333 19.1098 13.5333 15.6431C13.5333 11.6098 16.8833 9.6431 20.85 9.45977L21.2667 7.40977C21.3054 7.22758 21.4065 7.06462 21.5526 6.949C21.6986 6.83339 21.8804 6.77236 22.0667 6.77643H25.0333L25.2 6.7931C25.6333 6.8931 25.9167 7.30977 25.8167 7.7431L25.3667 10.0264C26.8667 10.5264 28.2833 11.3098 29.5 12.3431L29.5333 12.3764C29.85 12.7098 29.85 13.2098 29.5333 13.5098Z" fill="#B0EC64"/>
</g>
<defs>
<clipPath id="clip0_550_874">
<rect width="40" height="40" fill="white" transform="translate(0.5)"/>
</clipPath>
</defs>
</svg>
