<svg width="24" height="24" viewBox="0 0 24 24" fill="none" xmlns="http://www.w3.org/2000/svg">
<path d="M14.1211 17.243C14.3188 17.243 14.5121 17.1843 14.6765 17.0744C14.8409 16.9645 14.9691 16.8084 15.0447 16.6257C15.1204 16.443 15.1402 16.2419 15.1016 16.048C15.0631 15.854 14.9679 15.6759 14.8281 15.536L11.2931 12L14.8281 8.464C15.0102 8.2754 15.111 8.02279 15.1087 7.7606C15.1065 7.4984 15.0013 7.24759 14.8159 7.06218C14.6305 6.87677 14.3797 6.7716 14.1175 6.76932C13.8553 6.76705 13.6027 6.86784 13.4141 7.05L9.17206 11.293C8.98459 11.4805 8.87928 11.7348 8.87928 12C8.87928 12.2652 8.98459 12.5195 9.17206 12.707L13.4141 16.95C13.6016 17.1375 13.8559 17.2429 14.1211 17.243Z" fill="#150149"/>
</svg>
