<svg width="24" height="24" viewBox="0 0 24 24" fill="none" xmlns="http://www.w3.org/2000/svg">
<path d="M9.87894 17.243C9.68119 17.243 9.48789 17.1843 9.32348 17.0744C9.15907 16.9645 9.03093 16.8084 8.95526 16.6257C8.87959 16.443 8.85979 16.2419 8.89835 16.048C8.93692 15.854 9.03213 15.6759 9.17194 15.536L12.7069 12L9.17194 8.464C8.98978 8.2754 8.88898 8.02279 8.89126 7.7606C8.89354 7.4984 8.99871 7.24759 9.18412 7.06218C9.36953 6.87677 9.62034 6.7716 9.88254 6.76932C10.1447 6.76705 10.3973 6.86784 10.5859 7.05L14.8279 11.293C15.0154 11.4805 15.1207 11.7348 15.1207 12C15.1207 12.2652 15.0154 12.5195 14.8279 12.707L10.5859 16.95C10.3984 17.1375 10.1441 17.2429 9.87894 17.243Z" fill="#150149"/>
</svg>
