<svg width="193" height="192" viewBox="0 0 193 192" fill="none" xmlns="http://www.w3.org/2000/svg">
<g clip-path="url(#clip0_3614_10051)">
<mask id="path-1-inside-1_3614_10051" fill="white">
<path d="M0.5 96C0.5 42.9807 43.4807 0 96.5 0C149.519 0 192.5 42.9807 192.5 96C192.5 149.019 149.519 192 96.5 192C43.4807 192 0.5 149.019 0.5 96Z"/>
</mask>
<path d="M0.5 96C0.5 42.9807 43.4807 0 96.5 0C149.519 0 192.5 42.9807 192.5 96C192.5 149.019 149.519 192 96.5 192C43.4807 192 0.5 149.019 0.5 96Z" fill="white"/>
<path d="M122.225 231.479C122 231.507 121.774 231.531 121.549 231.554C104.865 233.468 88.2009 233.623 71.7266 231.91C73.1344 209.046 75.3054 183.278 78.2593 158.899C79.5129 148.546 80.9088 138.442 82.4471 128.916C84.0843 129.027 86.4451 128.786 89.6285 128.43C96.1612 128.62 102.706 128.477 109.488 128.683C114.656 160.69 119.168 199.199 122.225 231.479Z" fill="#FFDFDB"/>
<path opacity="0.5882" d="M121.549 231.554C104.865 233.468 88.2009 233.623 71.7266 231.91C73.1344 209.046 75.3054 183.278 78.2593 158.899C79.2519 157.843 80.4304 157.167 81.8263 157.396C81.2331 164.226 81.3359 174.136 82.5816 180.874C83.8272 187.612 87.0304 194.244 92.5745 198.27C98.1227 202.295 106.233 203.118 111.793 199.12C106.162 205.538 96.4697 208.033 88.4382 205.135C97.1538 211.928 110.18 212.561 119.512 206.637C117.859 213.411 110.658 217.651 103.702 218.137C96.7465 218.627 89.9527 216.199 83.4041 213.807C87.7738 218.734 94.3896 221.301 100.962 221.708C107.538 222.115 114.095 220.541 120.272 218.252C120.493 222.704 120.92 227.141 121.549 231.554Z" fill="#EDC7C7"/>
<path d="M86.6836 146.773C89.8211 152.311 95.145 156.57 101.236 158.415" stroke="#DBB4B5" stroke-width="0.790894" stroke-miterlimit="10" stroke-linecap="round" stroke-linejoin="round"/>
<path d="M105.757 130.481C99.0142 143.281 87.3208 138.271 83.1133 131.525C83.3782 129.049 83.5918 126.514 83.6353 124.407C83.7144 124.209 83.7855 124.011 83.8488 123.817C84.7504 121.101 84.3787 118.87 84.2324 116.011C90.4726 117 96.5506 116.557 102.838 115.402C102.783 116.889 102.862 118.598 103.139 120.175C103.344 121.366 103.665 122.481 104.127 123.367C104.578 125.988 105.148 127.815 105.757 130.481Z" fill="#FF726E"/>
<path d="M103.138 120.175C100.508 122.299 97.8228 124.055 94.7818 125.024C91.1634 126.17 86.8847 125.945 83.8477 123.817C84.7493 121.101 84.3776 118.87 84.2312 116.011C90.4714 117 96.5494 116.557 102.837 115.402C102.782 116.889 102.861 118.598 103.138 120.175Z" fill="#C94F5B"/>
<path d="M84.4246 120.385C84.3494 126.961 83.9263 133.411 83.2303 139.623C81.5655 170.563 80.0667 201.621 78.2833 232.984C71.0861 234.523 63.6201 234.768 56.5179 233.767C54.7779 233.522 53.0577 233.202 51.3691 232.806L56.6879 194.994C57.0161 192.036 57.2613 189.782 57.1664 187.476C57.1664 187.453 57.1624 187.425 57.1624 187.401C51.7606 188.928 45.1329 191.514 39.7074 193.179C36.7257 194.946 33.5305 196.315 30.2167 197.311C28.8049 197.738 27.2943 197.734 25.8707 197.339C22.0784 196.291 18.4679 194.547 15.2648 192.226C15.1936 192.178 15.1264 192.131 15.0592 192.079C12.9594 190.541 11.8244 188.022 12.0222 185.428C12.3939 180.532 13.3469 175.985 14.8456 171.71C14.1694 170.733 13.6119 169.673 13.2124 168.538C16.7636 163.813 19.6741 159.435 22.5845 155.058C23.8539 154.741 25.0284 154.449 26.1989 154.152C26.2266 154.148 26.2543 154.14 26.282 154.132C28.192 155.022 30.0031 155.829 31.7589 156.588C33.313 155.129 35.0253 153.871 37.0263 152.946C37.1291 152.843 37.228 152.744 37.3308 152.645C43.0133 146.979 48.6247 141.929 54.3469 136.468C56.3676 134.534 58.7284 132.988 61.2909 131.865C65.0477 130.223 68.9112 128.658 72.8775 127.092C73.6447 126.048 74.4514 125.031 75.2976 124.043C76.1834 123.011 77.3302 122.228 78.6194 121.749C80.3436 121.104 82.2773 120.539 84.1359 120.405C84.2347 120.397 84.3297 120.389 84.4246 120.385Z" fill="#0094A8"/>
<path d="M84.1338 120.406C80.7922 121.687 77.9569 123.76 75.5684 126.192C72.1043 129.711 69.4825 133.97 67.1177 138.308C67.521 135.275 68.743 132.361 70.649 129.94C66.5206 131.514 62.5898 133.602 59.2443 136.477C59.185 141.974 59.4421 147.475 60.0194 152.94C58.1094 148.499 56.9507 143.734 56.5395 139.36C50.1214 145.023 43.7033 150.686 37.2852 156.344C37.384 155.115 37.3998 153.881 37.3287 152.647C43.0112 146.98 48.6226 141.93 54.3447 136.469C56.3655 134.536 58.7263 132.989 61.2888 131.866C65.0455 130.225 68.9091 128.659 72.8754 127.093C73.6426 126.049 74.4493 125.033 75.2955 124.044C76.1813 123.012 77.3281 122.229 78.6173 121.751C80.3414 121.106 82.2752 120.541 84.1338 120.406Z" fill="#11C2C2"/>
<path d="M26.1989 154.154C25.9775 155.333 25.8549 156.527 25.8391 157.725C21.936 161.304 19.1718 165.519 17.8155 170.308C17.942 171.938 18.7408 173.46 19.7927 174.71C20.8446 175.959 22.1416 176.98 23.4268 177.988C20.9711 177.371 18.7171 175.963 17.1036 174.116C15.8422 177.77 14.5688 181.48 14.3237 185.339C14.1773 187.657 14.4502 190.065 15.2648 192.228C15.1936 192.18 15.1264 192.133 15.0592 192.082C12.9594 190.543 11.8244 188.024 12.0222 185.43C12.3939 180.535 13.3469 175.987 14.8456 171.712C14.1694 170.735 13.6119 169.676 13.2124 168.541C16.7636 163.815 19.6741 159.437 22.5845 155.06C23.8539 154.744 25.0284 154.451 26.1989 154.154Z" fill="#11C2C2"/>
<path d="M58.5841 179.842C57.896 197.819 57.2079 215.796 56.5159 233.769C54.7759 233.524 53.0557 233.203 51.3672 232.808L56.686 194.995C57.0142 192.037 57.2594 189.783 57.1644 187.478C57.639 184.931 58.1096 182.385 58.5841 179.842Z" fill="#11C2C2"/>
<path d="M72.5816 127.881C69.2539 131.833 66.7096 136.442 66.1445 141.169C68.8296 140.176 71.5744 139.17 74.4363 139.088C77.2981 139.005 80.3502 140.008 82.0209 142.333" stroke="#066D8F" stroke-width="0.790894" stroke-miterlimit="10" stroke-linecap="round" stroke-linejoin="round"/>
<path d="M59.1002 136.121C58.9578 143.359 59.8954 151.416 61.3783 158.502" stroke="#066D8F" stroke-width="0.790894" stroke-miterlimit="10" stroke-linecap="round" stroke-linejoin="round"/>
<path d="M62.2676 153.92C59.9103 165.541 58.8391 174.964 57.2383 186.725" stroke="#066D8F" stroke-width="0.790894" stroke-miterlimit="10" stroke-linecap="round" stroke-linejoin="round"/>
<path d="M40.7451 161.566C41.1738 161.906 41.6024 162.245 42.0548 162.799C42.0398 166.226 42.2834 169.653 42.769 173.241C39.2843 176.925 34.2179 179.059 29.1474 178.981C24.077 178.902 19.0798 176.61 15.7109 172.82" stroke="#066D8F" stroke-width="0.790894" stroke-miterlimit="10" stroke-linecap="round" stroke-linejoin="round"/>
<path d="M40.418 175.529C40.9926 177.386 41.7459 179.19 42.7883 181.027C42.7511 183.228 42.2473 185.444 41.3129 187.52" stroke="#066D8F" stroke-width="0.790894" stroke-miterlimit="10" stroke-linecap="round" stroke-linejoin="round"/>
<path d="M42.2422 164.23C46.2967 166.78 49.7324 170.305 52.1754 174.425" stroke="#066D8F" stroke-width="0.790894" stroke-miterlimit="10" stroke-linecap="round" stroke-linejoin="round"/>
<path d="M75.3856 108.027C72.2481 108.113 69.0976 106.831 67.0128 104.62C64.928 102.408 63.9481 99.3089 64.4088 96.383C64.6354 94.9444 65.3365 93.4077 66.7649 92.8568C67.8682 92.4313 69.1648 92.7121 70.1736 93.3104C71.1824 93.9091 71.961 94.789 73.1703 95.8211C73.5096 99.914 74.2586 103.977 75.3856 108.027Z" fill="#FF726E"/>
<path d="M73.9586 99.754C73.3757 98.8951 72.6734 98.0587 71.6812 97.5193C70.689 96.9799 69.3532 96.7901 68.3096 97.2571C66.9801 97.8523 66.5265 99.3059 66.763 100.547C67.0671 102.144 68.2815 103.566 69.8649 104.504C71.4479 105.442 73.3725 105.925 75.3055 106.087C74.7862 104.086 75.345 101.797 73.9586 99.754Z" fill="#C94F5B"/>
<path d="M109.996 106.644C113.134 106.73 116.284 105.448 118.369 103.237C120.454 101.026 121.434 97.9261 120.973 95.0002C120.747 93.5616 120.045 92.0249 118.617 91.474C117.514 91.0485 116.217 91.3293 115.208 91.9276C114.199 92.5263 113.421 93.4062 112.211 94.4383C111.872 98.5312 111.124 102.594 109.996 106.644Z" fill="#FF726E"/>
<path d="M111.425 98.3712C112.008 97.5123 112.71 96.6759 113.702 96.1365C114.695 95.5971 116.03 95.4073 117.074 95.8743C118.403 96.4695 118.857 97.9231 118.621 99.164C118.316 100.762 117.102 102.184 115.519 103.122C113.936 104.059 112.011 104.543 110.078 104.705C110.597 102.704 110.039 100.414 111.425 98.3712Z" fill="#C94F5B"/>
<path d="M110.438 110.493C112.488 105.924 113.229 100.505 114.306 95.6148C115.095 90.7444 115.863 84.4023 115.663 79.7965C115.463 75.1907 114.364 70.524 111.782 66.7052C109.908 63.9351 107.307 61.6965 104.405 60.0352C98.5276 56.6707 91.2834 55.6908 84.7842 57.5933C78.285 59.4958 72.6527 64.3127 69.9704 70.5308C66.6625 78.1989 67.9267 87.0672 70.5592 95.3462C71.7534 100.629 73.2803 105.851 76.0346 110.91C79.4307 117.149 86.4945 121.174 93.5972 121.088C100.699 121.002 108.01 115.903 110.438 110.493Z" fill="#FF726E"/>
<path d="M86.8851 87.582C85.7324 86.6753 84.3677 86.0394 83.1189 85.7298C79.6904 85.3007 76.0882 87.1407 74.4258 90.1698C78.0184 88.2693 82.0563 87.2174 86.8851 87.582Z" fill="#630517"/>
<path d="M76.2305 93.7081C77.8071 95.2848 79.8468 96.135 81.8727 96.0603C83.8986 95.9855 85.8936 94.9866 87.3916 93.2969C83.6696 94.4658 79.6958 94.3832 76.2305 93.7081Z" fill="#630517"/>
<path d="M98.5586 87.582C99.7113 86.6753 101.076 86.0394 102.325 85.7298C105.753 85.3007 109.355 87.1407 111.018 90.1698C107.425 88.2693 103.387 87.2174 98.5586 87.582Z" fill="#630517"/>
<path d="M109.212 93.7081C107.635 95.2848 105.596 96.135 103.57 96.0603C101.544 95.9855 99.5487 94.9866 98.0508 93.2969C101.773 94.4658 105.747 94.3832 109.212 93.7081Z" fill="#630517"/>
<path d="M93.5771 100.213C93.6028 100.295 93.6285 100.377 93.6538 100.458C93.36 97.7972 93.3813 95.1014 93.8606 92.4551C94.9513 94.3244 95.892 96.2806 96.6715 98.2998C97.0246 99.2149 97.4256 100.294 96.9131 101.075C95.9193 101.251 94.7773 101.096 93.5771 100.213Z" fill="#FF9A8F"/>
<path d="M90.2578 101.118C91.0748 100.21 92.2758 99.6588 93.4969 99.6319C94.7181 99.605 95.9424 100.102 96.9116 101.074C94.9585 102.016 92.5965 102.068 90.2578 101.118Z" fill="#C94F5B"/>
<path d="M102.154 107.476C101.817 107.911 101.43 108.267 100.999 108.567C100.188 109.129 99.2391 109.481 98.2386 109.766C96.7122 110.197 95.1067 110.284 93.517 110.315C92.0617 110.347 90.5867 110.335 89.171 109.999C88.305 109.793 87.4548 109.461 86.7153 108.975C86.2407 108.666 85.8097 108.294 85.4459 107.856C85.2482 107.614 85.0544 107.294 85.1651 107.001C85.2403 106.804 85.5724 106.78 85.9086 106.76C86.1023 106.748 86.3 106.736 86.4503 106.689C89.9461 105.609 96.202 105.653 101.517 106.42H101.521C101.794 106.46 102.272 106.404 102.438 106.547C102.62 106.697 102.316 107.266 102.154 107.476Z" fill="#FFF0F3"/>
<path d="M102.154 107.476C101.818 107.911 101.431 108.267 101 108.567C100.834 108.417 100.62 108.318 100.387 108.298C101.059 107.875 101.482 107.155 101.522 106.42C101.795 106.459 102.273 106.404 102.439 106.546C102.621 106.697 102.317 107.266 102.154 107.476Z" fill="#21161A"/>
<path d="M87.1463 108.5C86.9565 108.618 86.8102 108.784 86.7153 108.974C86.2407 108.666 85.8097 108.294 85.4459 107.855C85.2482 107.614 85.0544 107.294 85.1651 107.001C85.2403 106.803 85.5724 106.78 85.9086 106.76C85.9362 107.472 86.4147 108.183 87.1463 108.5Z" fill="#21161A"/>
<path d="M95.9587 112.148C94.3524 112.518 92.6579 112.557 91.0156 112.388C91.4332 113.345 92.5421 114.005 93.656 113.958C94.7704 113.912 95.8108 113.164 95.9587 112.148Z" fill="#C94F5B"/>
<path d="M119.49 76.3604C119.447 77.0603 119.388 77.7563 119.309 78.4563C118.64 84.4552 116.699 90.4541 114.073 96.0695C115.445 85.9619 111.914 80.0816 111.914 71.8128C106.88 72.5799 101.652 72.224 97.3375 70.9546C91.8289 72.1093 86.2689 72.4059 80.7841 71.8839C79.0836 72.7935 76.6754 72.9398 74.5004 72.2754C72.4876 82.8339 70.107 88.4927 71.0521 96.3621C68.197 91.5416 66.4214 86.0924 64.9543 80.4651C64.2979 79.0929 64.0487 77.697 64.0646 76.3011C64.0843 74.7193 64.4521 73.1375 64.9543 71.5874C64.0013 70.2112 63.7877 68.3961 64.1516 66.6996C64.5114 65.0032 65.4486 63.4332 66.7655 62.3102C66.9948 60.7798 67.2795 59.0161 68.5212 57.8139C68.6715 57.6597 68.8376 57.5253 69.0156 57.3948C70.6843 56.2005 72.7921 55.6311 74.8365 55.8169C76.4065 54.164 78.9729 53.4522 81.1637 54.1442C81.6857 52.7522 83.1488 51.902 84.6594 51.6331C86.1661 51.3681 87.7202 51.6173 89.2031 52.0048C90.3578 51.21 91.4493 51.2021 92.3628 51.3484C94.8699 51.7438 97.2702 52.8076 99.2514 54.4052C102.241 53.5629 104.653 53.9702 106.634 55.1328C108.612 56.2954 110.138 58.2054 110.838 60.3922C112.487 60.5781 113.954 61.4441 114.982 62.6819C115.121 62.8401 115.243 63.0062 115.362 63.1762C116.394 64.6749 116.809 66.5849 116.501 68.3763C118.98 69.5073 119.672 73.3866 119.49 76.3604Z" fill="#630517"/>
<path d="M119.49 76.3609C119.447 77.0609 119.388 77.7569 119.309 78.4568C118.893 77.3693 118.32 76.3412 117.624 75.4237C115.279 72.3353 111.775 70.3462 108.2 68.8514C96.7838 64.0625 83.2358 63.6829 72.2424 69.3813C69.067 71.0263 66.0181 73.3713 64.0646 76.3016C64.0843 74.7198 64.4521 73.138 64.9543 71.5879C64.0013 70.2117 63.7877 68.3966 64.1516 66.7002C64.5114 65.0037 65.4486 63.4338 66.7655 62.3107C66.9948 60.7803 67.2795 59.0166 68.5212 57.8145C68.2009 58.55 68.0546 59.3488 68.1653 60.1397C68.4619 62.2237 70.5024 63.7027 72.5746 64.0783C74.6467 64.454 76.7663 63.9755 78.8306 63.5682C86.8304 61.9825 95.2811 61.413 103.02 63.9834C104.752 64.5608 106.445 65.2924 108.244 65.6048C110.047 65.9172 112.02 65.759 113.499 64.6834C114.176 64.1891 114.702 63.4693 114.982 62.6824C115.121 62.8406 115.243 63.0067 115.362 63.1767C116.394 64.6755 116.809 66.5855 116.501 68.3768C118.98 69.5078 119.672 73.3872 119.49 76.3609Z" fill="#913B34"/>
<path d="M82.5078 117.807C85.5116 120.52 89.4455 122.17 93.4921 122.101C97.5392 122.033 101.538 120.376 104.214 117.532C102.156 118.197 98.4989 119.043 96.9401 118.693C95.73 118.421 94.9612 117.168 95.2978 116.035C94.1079 116.264 92.8452 116.275 91.7605 116.128C92.2232 117.142 91.5307 118.443 90.4998 118.867C88.3399 119.754 84.0951 118.469 82.5078 117.807Z" fill="#630517"/>
<path d="M58.331 120.609C57.809 122.499 57.0062 124.322 56.0453 126.03C55.2702 127.411 54.1155 128.549 52.6919 129.238C51.2801 129.918 49.987 130.883 48.7295 131.836C48.1878 132.247 47.642 132.662 47.0805 133.058C45.823 133.943 44.4982 134.722 43.0272 135.134C41.042 135.683 38.6931 135.403 36.4983 132.749C36.3402 132.555 36.182 132.35 36.0238 132.132C35.9447 131.298 35.8814 130.463 35.8379 129.629C35.5967 125.41 35.7668 121.135 36.4548 116.71C36.7949 114.507 37.6768 112.411 39.049 110.652C39.4642 110.118 39.8992 109.6 40.35 109.09C40.955 108.401 41.5917 107.733 42.2679 107.093C42.691 106.689 43.3673 106.618 43.826 106.982C43.8655 107.013 43.8972 107.045 43.9288 107.081C44.4864 106.12 45.3326 105.333 46.6732 104.775C47.646 103.866 48.6188 102.956 49.5916 102.047C50.0899 99.061 50.5881 96.0793 51.0903 93.0937C51.2366 92.2277 51.6044 91.1521 52.4784 91.1125C53.3127 91.073 53.7952 92.03 54.0008 92.8367C54.3765 94.3275 54.5347 95.8579 54.5663 97.3962C54.5782 97.9933 54.5742 98.5904 54.5505 99.1875C54.511 100.453 54.4042 101.722 54.2855 102.98C54.2341 103.506 54.1827 104.028 54.1274 104.554C53.641 109.354 52.9766 114.135 52.1383 118.889C52.7749 118.897 53.4393 118.675 54.0522 118.129C53.8585 117.074 53.6647 116.014 53.6726 114.942C53.6805 113.87 53.9099 112.775 54.4951 111.877C54.7957 111.419 55.29 110.98 55.8278 111.087C56.1797 111.158 56.4566 111.45 56.5989 111.783C56.7452 112.111 56.7808 112.475 56.8243 112.834C57.0379 114.594 57.4333 116.338 58.1135 117.967C58.4654 118.806 58.5761 119.731 58.331 120.609Z" fill="#FF726E"/>
<path d="M58.9534 97.716C58.1229 100.429 56.2485 102.604 54.1289 104.553C54.1843 104.027 54.2357 103.505 54.2871 102.979C54.4611 101.129 54.6074 99.2543 54.5679 97.3957C55.1531 96.85 55.7384 96.3003 56.3236 95.7546C56.81 95.2998 57.3993 94.8134 58.0557 94.9241C58.6014 95.0151 59.0048 95.5292 59.1194 96.0749C59.2381 96.6167 59.1155 97.1822 58.9534 97.716Z" fill="#FF726E"/>
<path d="M44.3259 107.475C45.7009 109.041 46.9149 110.748 48.0585 113.003C47.0561 114.378 46.1964 115.858 45.4972 117.41C45.3149 117.814 45.1374 118.233 44.8329 118.555C44.528 118.878 44.0598 119.088 43.6354 118.959C43.1245 118.803 42.8643 118.238 42.7465 117.717C42.4531 116.42 42.6729 115.013 43.308 113.788C42.7694 113.171 42.3483 112.451 42.0742 111.679" stroke="#C94F5B" stroke-width="0.790894" stroke-miterlimit="10" stroke-linecap="round" stroke-linejoin="round"/>
<path d="M40.2422 114.856C41.1402 114.855 42.0379 114.688 42.8767 114.367" stroke="#C94F5B" stroke-width="0.790894" stroke-miterlimit="10" stroke-linecap="round" stroke-linejoin="round"/>
<path d="M43.0742 120.428C44.6706 122.389 45.439 125.003 45.1582 127.516" stroke="#C94F5B" stroke-width="0.790894" stroke-miterlimit="10" stroke-linecap="round" stroke-linejoin="round"/>
<path d="M47.1168 104.818C49.306 105.784 51.0717 107.67 52.0888 110.357C50.9981 112.006 50.0945 113.779 49.4009 115.631C49.1791 116.223 48.8999 116.902 48.2937 117.084C47.6534 117.276 47.0132 116.797 46.5703 116.297" stroke="#C94F5B" stroke-width="0.790894" stroke-miterlimit="10" stroke-linecap="round" stroke-linejoin="round"/>
<path d="M51.4565 119.254C50.3121 119.668 49.3599 120.585 48.9023 121.713" stroke="#C94F5B" stroke-width="0.790894" stroke-miterlimit="10" stroke-linecap="round" stroke-linejoin="round"/>
<path d="M54.6878 97.8438C54.4755 99.9475 54.2631 102.051 54.0508 104.155" stroke="#C94F5B" stroke-width="0.790894" stroke-miterlimit="10" stroke-linecap="round" stroke-linejoin="round"/>
<path d="M49.5522 102.594C49.3968 103.573 49.2413 104.553 49.0859 105.533" stroke="#C94F5B" stroke-width="0.790894" stroke-miterlimit="10" stroke-linecap="round" stroke-linejoin="round"/>
<path d="M47.8162 131.183C47.5632 131.804 47.318 132.429 47.0807 133.057C43.3793 142.73 41.0857 152.94 40.2948 163.269C37.325 165.456 34.9682 166.793 32.3978 167.263C29.8274 167.734 27.0355 167.271 24.9357 165.713C22.8359 164.159 21.5546 161.446 21.9975 158.868C22.4325 158.038 22.8635 157.199 23.2946 156.357C27.6643 147.831 31.9391 138.831 35.8382 129.629C36.3325 128.462 36.8189 127.292 37.3013 126.117C37.3685 126.184 37.4318 126.252 37.499 126.315C40.4847 129.253 44.0872 130.756 47.8162 131.183Z" fill="#FF726E"/>
<path d="M41.5072 131.846C40.1311 132.186 38.6323 131.976 37.1178 131.312C36.9121 131.791 36.7065 132.269 36.5009 132.747C32.9102 141.076 29.102 149.483 23.2969 156.356C27.6666 147.83 31.9413 138.829 35.8405 129.627C35.5992 125.408 35.7693 121.133 36.4574 116.708C36.7974 114.506 37.6793 112.41 39.0515 110.65C39.4667 110.116 39.9017 109.598 40.3525 109.088C38.0708 114.134 37.0347 119.745 37.4064 125.27C37.4302 125.618 37.4578 125.966 37.5013 126.314C37.6239 127.365 37.8493 128.402 38.3278 129.343C38.9645 130.592 40.1152 131.652 41.5072 131.846Z" fill="#FF9A8F"/>
<path d="M180.19 178.093C180.242 180.485 179.973 182.858 179.597 185.223C179.071 188.509 176.655 191.143 173.499 191.961C173.183 192.044 172.859 192.108 172.526 192.151C167.852 192.784 163.17 192.673 158.611 191.89C157.63 191.724 156.669 191.443 155.748 191.068C148.475 188.11 141.492 185.5 134.548 182.929C134.528 182.921 134.508 182.914 134.488 182.906C136.636 199.352 139.973 215.649 144.462 231.621C143.058 231.708 141.65 231.795 140.23 231.878C133.611 232.273 126.706 232.637 118.172 232.827C115.701 202.504 111.576 172.316 105.826 142.439C106.218 139.288 105.981 135.76 105.478 132.158C104.668 128.108 103.671 124.059 103.086 119.852C103.493 119.852 103.881 119.863 104.256 119.887H104.26C106.119 120.006 107.665 120.409 109.706 121.042C111.936 121.73 113.878 123.13 115.234 125.028C115.515 125.423 115.8 125.827 116.084 126.234C119.319 127.302 122.613 128.488 125.927 129.813C126.686 130.117 127.398 130.501 128.054 130.952C131.301 132.261 134.5 133.835 137.814 135.855C138.87 136.5 139.843 137.267 140.725 138.133L157.887 154.951L158.286 155.343C160.612 155.236 162.949 155.252 165.313 155.394C168.528 155.584 171.799 156.007 175.18 156.664C176.426 160.63 178.138 164.482 180.625 168.179C180.285 169.346 179.72 170.469 178.98 171.489C179.763 173.581 180.143 175.859 180.19 178.093Z" fill="#0094A8"/>
<path d="M157.888 154.951C156.564 156.09 155.235 157.229 153.906 158.368C149.129 151.008 143.118 144.764 136.218 139.75C135.205 142.882 134.106 146.307 132.627 149.557C133.272 145.48 133.232 141.292 132.512 137.227C128.431 134.111 123.745 131.695 118.881 129.714C120.534 131.94 122.116 135.289 122.757 138.817C118.431 131.007 111.957 124.403 104.262 119.887C106.12 120.005 107.667 120.409 109.707 121.041C111.937 121.73 113.879 123.129 115.235 125.028C115.516 125.423 115.801 125.826 116.086 126.234C119.32 127.301 122.614 128.488 125.928 129.812C126.688 130.117 127.399 130.501 128.056 130.951C131.302 132.26 134.502 133.834 137.815 135.855C138.871 136.499 139.844 137.267 140.726 138.133L157.888 154.951Z" fill="#11C2C2"/>
<path d="M180.19 178.091C180.241 180.484 179.972 182.856 179.597 185.221C179.071 188.507 176.655 191.141 173.499 191.96C175.184 190.117 176.2 187.554 176.631 185.047C177.279 181.282 176.927 177.407 177.477 173.627C175.089 175.252 172.249 176.233 169.363 176.367C172.831 175.276 175.852 172.836 177.647 169.676C176.773 166.679 175.567 164.053 174.08 161.597C172.854 163.179 171.067 164.322 169.113 164.765C166.041 163.412 165.195 162.012 164.744 160.466C164.297 158.916 164.285 157.172 165.072 155.764C165.143 155.638 165.222 155.511 165.313 155.393C168.528 155.582 171.799 156.006 175.18 156.662C176.425 160.628 178.138 164.48 180.625 168.177C180.285 169.344 179.719 170.467 178.98 171.487C179.763 173.579 180.142 175.857 180.19 178.091Z" fill="#11C2C2"/>
<path d="M144.462 231.62C143.058 231.707 141.651 231.794 140.231 231.877C136.142 213.105 133.449 194.033 132.184 174.865C132.804 177.531 133.536 180.275 134.548 182.928C134.529 182.92 134.509 182.913 134.489 182.905C136.636 199.351 139.974 215.648 144.462 231.62Z" fill="#11C2C2"/>
<path d="M107.027 143.683C107.658 141.26 109.243 139.098 111.55 137.631C115.68 137.594 119.815 138.572 123.282 140.284C122.016 135.377 119.699 130.745 116.532 126.789" stroke="#006D92" stroke-width="0.790894" stroke-miterlimit="10" stroke-linecap="round" stroke-linejoin="round"/>
<path d="M128.73 151.137C130.558 161.641 132.385 172.146 134.213 182.65" stroke="#006D92" stroke-width="0.790894" stroke-miterlimit="10" stroke-linecap="round" stroke-linejoin="round"/>
<path d="M132.482 134.758C133.358 143.94 132.827 153.255 130.914 162.278" stroke="#006D92" stroke-width="0.790894" stroke-miterlimit="10" stroke-linecap="round" stroke-linejoin="round"/>
<path d="M154.213 157.793C153.705 158.314 153.197 158.835 152.873 159.55C153.061 162.66 152.934 165.788 152.359 169.435C156.378 172.167 160.525 174.957 165.273 175.99C170.022 177.023 175.575 175.891 178.461 171.981" stroke="#006D92" stroke-width="0.790894" stroke-miterlimit="10" stroke-linecap="round" stroke-linejoin="round"/>
<path d="M154.527 170.971C154.153 172.704 153.535 174.384 152.707 175.97C151.751 177.8 151.625 179.974 152.518 181.835C152.763 182.345 153.04 182.841 153.348 183.317" stroke="#006D92" stroke-width="0.790894" stroke-miterlimit="10" stroke-linecap="round" stroke-linejoin="round"/>
<path d="M153.049 160.678C148.714 162.982 144.777 166.032 141.461 169.652" stroke="#006D92" stroke-width="0.790894" stroke-miterlimit="10" stroke-linecap="round" stroke-linejoin="round"/>
<path d="M159.633 128.49C159.585 129.329 159.522 130.167 159.443 131.001C159.269 131.243 159.095 131.464 158.921 131.674C156.742 134.276 154.413 134.549 152.44 134.003C150.964 133.592 149.64 132.809 148.382 131.923C147.825 131.527 147.279 131.116 146.737 130.705C145.48 129.752 144.187 128.787 142.775 128.107C141.351 127.419 140.196 126.28 139.421 124.9C138.46 123.191 137.658 121.368 137.136 119.478C136.891 118.6 137.001 117.675 137.353 116.836C138.033 115.207 138.429 113.463 138.642 111.704C138.686 111.344 138.721 110.98 138.868 110.652C139.01 110.319 139.287 110.027 139.639 109.956C140.177 109.849 140.671 110.288 140.972 110.747C141.557 111.644 141.786 112.74 141.794 113.811C141.802 114.883 141.608 115.943 141.414 116.999C142.027 117.544 142.692 117.766 143.328 117.758C142.49 113.005 141.826 108.224 141.339 103.423C141.284 102.897 141.233 102.375 141.181 101.849C141.062 100.576 140.956 99.2944 140.912 98.0171C140.892 97.4319 140.888 96.8466 140.9 96.2653C140.932 94.727 141.09 93.1966 141.466 91.7058C141.671 90.8991 142.154 89.9421 142.988 89.9817C143.862 90.0212 144.23 91.0968 144.376 91.9628C144.879 94.9485 145.377 97.9301 145.875 100.916C146.848 101.825 147.821 102.735 148.793 103.644C150.134 104.202 150.98 104.989 151.538 105.95C151.57 105.914 151.601 105.883 151.641 105.851C152.099 105.487 152.776 105.558 153.199 105.962C153.298 106.053 153.393 106.148 153.487 106.242C154.551 107.279 155.52 108.374 156.418 109.521C157.79 111.28 158.672 113.376 159.012 115.579C159.696 120 159.87 124.275 159.633 128.49Z" fill="#FF726E"/>
<path d="M136.514 96.5851C137.345 99.2979 139.219 101.473 141.339 103.422C141.283 102.896 141.232 102.374 141.18 101.849C141.006 99.9979 140.86 98.1234 140.9 96.2648C140.314 95.7191 139.729 95.1694 139.144 94.6237C138.658 94.169 138.068 93.6826 137.412 93.7933C136.866 93.8842 136.463 94.3983 136.348 94.944C136.229 95.4858 136.352 96.0509 136.514 96.5851Z" fill="#FF726E"/>
<path d="M151.143 106.344C149.768 107.91 148.554 109.617 147.41 111.872C148.413 113.247 149.272 114.727 149.971 116.279C150.154 116.684 150.331 117.102 150.636 117.425C150.941 117.747 151.409 117.957 151.833 117.828C152.344 117.672 152.604 117.107 152.722 116.587C153.016 115.289 152.796 113.883 152.161 112.657C152.699 112.04 153.12 111.32 153.394 110.548" stroke="#C94F5B" stroke-width="0.790894" stroke-miterlimit="10" stroke-linecap="round" stroke-linejoin="round"/>
<path d="M155.224 113.724C154.326 113.722 153.429 113.555 152.59 113.234" stroke="#C94F5B" stroke-width="0.790894" stroke-miterlimit="10" stroke-linecap="round" stroke-linejoin="round"/>
<path d="M152.391 119.297C150.794 121.258 150.026 123.872 150.307 126.385" stroke="#C94F5B" stroke-width="0.790894" stroke-miterlimit="10" stroke-linecap="round" stroke-linejoin="round"/>
<path d="M148.351 103.688C146.162 104.654 144.396 106.539 143.379 109.226C144.47 110.875 145.373 112.648 146.067 114.5C146.289 115.093 146.568 115.772 147.174 115.953C147.814 116.145 148.454 115.666 148.897 115.166" stroke="#C94F5B" stroke-width="0.790894" stroke-miterlimit="10" stroke-linecap="round" stroke-linejoin="round"/>
<path d="M144.008 118.123C145.152 118.537 146.104 119.455 146.562 120.582" stroke="#C94F5B" stroke-width="0.790894" stroke-miterlimit="10" stroke-linecap="round" stroke-linejoin="round"/>
<path d="M140.777 96.7129C140.99 98.8167 141.202 100.92 141.415 103.024" stroke="#C94F5B" stroke-width="0.790894" stroke-miterlimit="10" stroke-linecap="round" stroke-linejoin="round"/>
<path d="M145.918 101.463C146.073 102.442 146.229 103.422 146.384 104.401" stroke="#C94F5B" stroke-width="0.790894" stroke-miterlimit="10" stroke-linecap="round" stroke-linejoin="round"/>
<path d="M170.533 164.582C168.437 166.141 165.641 166.603 163.071 166.133C160.5 165.662 158.144 164.325 155.174 162.139C154.383 151.81 152.089 141.599 148.384 131.922C148.151 131.298 147.901 130.673 147.652 130.052C151.381 129.625 154.984 128.122 157.97 125.184C158.037 125.121 158.1 125.054 158.167 124.986C158.65 126.157 159.136 127.323 159.634 128.49C163.154 136.818 166.99 144.98 170.932 152.778C171.771 154.447 172.621 156.104 173.471 157.737C173.914 160.312 172.633 163.024 170.533 164.582Z" fill="#FF726E"/>
<path d="M170.931 152.778C166.317 146.115 162.295 139.045 158.922 131.673C158.807 131.428 158.692 131.183 158.582 130.934C156.565 131.321 154.722 131.013 153.591 129.902C155.042 130.281 156.573 129.273 157.273 127.948C157.72 127.094 157.901 126.149 157.969 125.184C158.004 124.642 158.008 124.097 158 123.559C157.909 117.516 156.759 111.253 153.488 106.242C154.552 107.278 155.521 108.374 156.419 109.52C157.791 111.28 158.673 113.376 159.013 115.579C159.697 120 159.871 124.275 159.634 128.49C163.153 136.818 166.989 144.98 170.931 152.778Z" fill="#FF9A8F"/>
</g>
<path d="M0.5 0H192.5H0.5ZM192.5 101C192.5 154.019 149.519 197 96.5 197C43.4807 197 0.5 154.019 0.5 101V96C0.5 146.258 43.4807 187 96.5 187C149.519 187 192.5 146.258 192.5 96V101ZM0.5 192V0V192ZM192.5 0V192V0Z" fill="#34718A" mask="url(#path-1-inside-1_3614_10051)"/>
<defs>
<clipPath id="clip0_3614_10051">
<path d="M0.5 96C0.5 42.9807 43.4807 0 96.5 0C149.519 0 192.5 42.9807 192.5 96C192.5 149.019 149.519 192 96.5 192C43.4807 192 0.5 149.019 0.5 96Z" fill="white"/>
</clipPath>
</defs>
</svg>
