<svg width="193" height="192" viewBox="0 0 193 192" fill="none" xmlns="http://www.w3.org/2000/svg">
<g clip-path="url(#clip0_3614_10151)">
<mask id="path-1-inside-1_3614_10151" fill="white">
<path d="M0.5 96C0.5 42.9807 43.4807 0 96.5 0C149.519 0 192.5 42.9807 192.5 96C192.5 149.019 149.519 192 96.5 192C43.4807 192 0.5 149.019 0.5 96Z"/>
</mask>
<path d="M0.5 96C0.5 42.9807 43.4807 0 96.5 0C149.519 0 192.5 42.9807 192.5 96C192.5 149.019 149.519 192 96.5 192C43.4807 192 0.5 149.019 0.5 96Z" fill="white"/>
<path d="M83.6335 156.097C83.6335 156.097 55.958 189.721 72.291 235.998H105.411L104.503 208.272L114.938 235.998H149.419C149.419 235.998 151.688 177.421 121.29 159.273C90.8926 141.125 83.6335 156.097 83.6335 156.097Z" fill="#5D8584"/>
<path d="M137.235 175.991C133.305 169.272 128.127 163.354 121.292 159.273C90.8941 141.125 83.635 156.097 83.635 156.097C83.635 156.097 79.7853 160.202 75.8047 167.747C88.2558 171.896 110.842 177.618 137.235 175.991Z" fill="#4E7B7C"/>
<path d="M116.483 55.7891C116.483 55.7891 107.331 49.7392 97.4657 58.3135C87.6005 66.8878 93.4254 91.0773 89.1008 102.693C84.7762 114.308 90.0032 124.15 115.577 120.244C141.151 116.339 116.483 55.7891 116.483 55.7891Z" fill="#1F1A21"/>
<path d="M128.399 112.506C120.364 111.698 128.042 91.7266 128.042 91.7266L111.655 94.971C111.655 94.971 113.96 107.772 109.764 109.139C108.093 109.683 103.567 108.142 100.878 106.905C99.419 111.727 97.3566 116.361 96.3633 121.269C109.342 128.558 134.367 133.048 136.243 127.759C138.918 120.215 136.434 113.315 128.399 112.506Z" fill="#965450"/>
<path d="M111.728 106.675C118.475 105.616 122.71 100.81 126.798 95.4018C127.466 93.2209 128.04 91.7266 128.04 91.7266L111.652 94.9715C111.652 94.9715 113.016 102.56 111.728 106.675Z" fill="#76413B"/>
<path d="M122.101 59.9735C122.101 59.9735 103.026 56.2974 98.3496 81.2575C93.6733 106.218 126.135 110.847 131.927 89.5999C137.719 68.3526 129.116 62.0773 122.101 59.9735Z" fill="#965450"/>
<path d="M97.8327 122.166C97.8327 122.166 64.7116 134.647 58.8302 131.062C52.9489 127.477 46.454 96.5863 48.2381 93.8493C51.3429 89.0866 57.1761 93.2477 57.1761 93.2477L66.9145 115.319C66.9145 115.319 100.646 97.8652 101.116 112.975C101.586 128.084 97.8327 122.166 97.8327 122.166Z" fill="#965450"/>
<path d="M101.113 112.976C100.815 103.373 87.0816 106.923 77.1108 110.786C76.7572 115.254 76.6001 119.777 77.8075 124.121C78.1987 125.528 78.6378 126.953 79.1282 128.37C88.6696 125.619 97.8299 122.167 97.8299 122.167C97.8299 122.167 101.583 128.085 101.113 112.976Z" fill="#76413B"/>
<path d="M85.8547 124.521C85.8547 124.521 79.7474 117 81.3501 108.328C81.3501 108.328 93.5459 99.5862 103.885 107.603L85.8547 124.521Z" fill="#FFA65B"/>
<path d="M88.5853 105.09C83.5333 106.378 78.823 108.826 78.823 108.826C77.2208 117.498 81.2882 127.471 81.2882 127.471L86.7222 123.969C86.9436 125.05 87.5498 125.918 88.5918 124.093C88.9582 123.451 89.2999 121.479 89.6448 119.014C86.9665 115.232 87.1833 109.652 88.5853 105.09Z" fill="#E58B48"/>
<path d="M65.4626 79.6473C72.1016 68.1948 68.1995 53.5288 56.7471 46.8899C45.2947 40.2509 30.6287 44.1529 23.9897 55.6054C17.3507 67.0578 21.2528 81.7238 32.7052 88.3627C44.1576 95.0017 58.8236 91.0997 65.4626 79.6473Z" fill="#588AAF"/>
<path d="M51.5188 92.2172C37.9596 95.9595 23.8832 87.9726 20.141 74.4129C16.3987 60.8536 24.3856 46.7773 37.9453 43.0355C51.5046 39.2932 65.5809 47.2802 69.3227 60.8399C73.065 74.3991 65.078 88.4754 51.5188 92.2172ZM38.765 46.0053C26.843 49.2953 19.8204 61.6715 23.1108 73.5936C26.4012 85.5157 38.7774 92.5382 50.6995 89.2478C62.6216 85.9575 69.6442 73.5812 66.3538 61.6591C63.0629 49.737 50.6871 42.7149 38.765 46.0053Z" fill="#588AAF"/>
<path d="M61.7026 82.5187C69.5767 71.8764 67.3327 56.866 56.6904 48.9918C46.0482 41.1177 31.0377 43.3617 23.1636 54.004C15.2895 64.6462 17.5335 79.6567 28.1757 87.5308C38.818 95.4049 53.8284 93.1609 61.7026 82.5187Z" fill="#FDEDEE" stroke="#3398DB" stroke-width="3.08047" stroke-miterlimit="10"/>
<path d="M40.2774 69.0014C40.6099 70.2064 41.8567 70.914 43.0617 70.5811C44.2668 70.2486 44.974 69.0018 44.6415 67.7968C44.309 66.5918 43.0622 65.8841 41.8572 66.217C40.6522 66.5495 39.9449 67.7963 40.2774 69.0014Z" fill="#352C38"/>
<path d="M38.4453 54.0137L42.4429 68.4983L51.9862 65.8646" stroke="#352C38" stroke-width="1.44873" stroke-miterlimit="10" stroke-linecap="round" stroke-linejoin="round"/>
<path d="M37.1094 48.3926L37.9704 51.5121" stroke="#3398DB" stroke-width="1.54026" stroke-miterlimit="10"/>
<path d="M47.6848 48.4199L46.7773 51.5262" stroke="#3398DB" stroke-width="1.54026" stroke-miterlimit="10"/>
<path d="M56.6018 53.3457L54.375 55.6933" stroke="#3398DB" stroke-width="1.54026" stroke-miterlimit="10"/>
<path d="M22.7148 73.6521L25.8344 72.791" stroke="#3398DB" stroke-width="1.54026" stroke-miterlimit="10"/>
<path d="M22.7461 63.0781L25.8523 63.9856" stroke="#3398DB" stroke-width="1.54026" stroke-miterlimit="10"/>
<path d="M27.6719 54.1582L30.0199 56.3855" stroke="#3398DB" stroke-width="1.54026" stroke-miterlimit="10"/>
<path d="M47.8337 88.0395L46.9727 84.9199" stroke="#3398DB" stroke-width="1.54026" stroke-miterlimit="10"/>
<path d="M37.2578 88.0125L38.1653 84.9062" stroke="#3398DB" stroke-width="1.54026" stroke-miterlimit="10"/>
<path d="M28.3398 83.0863L30.5671 80.7383" stroke="#3398DB" stroke-width="1.54026" stroke-miterlimit="10"/>
<path d="M62.225 62.7812L59.1055 63.6418" stroke="#3398DB" stroke-width="1.54026" stroke-miterlimit="10"/>
<path d="M62.2 73.3547L59.0938 72.4473" stroke="#3398DB" stroke-width="1.54026" stroke-miterlimit="10"/>
<path d="M57.2734 82.2761L54.9258 80.0488" stroke="#3398DB" stroke-width="1.54026" stroke-miterlimit="10"/>
<path d="M51.022 95.2423C51.022 95.2423 50.6427 88.2552 58.9892 87.7968C58.9892 87.7968 58.3536 81.5609 60.0803 81.7056C61.807 81.8507 65.7477 94.7399 53.9946 96.6513C42.242 98.5621 51.022 95.2423 51.022 95.2423Z" fill="#965450"/>
<path d="M133.746 112.496C132.284 111.977 131.132 112.137 128.491 112.183C124.759 115.543 120.937 118.372 115.47 117.857C109.435 117.289 105.136 113.304 103.887 107.604C99.8949 106.255 98.2954 105.44 96.4016 105.865C88.4055 107.656 90.1303 115.934 90.1303 115.934C90.1303 115.934 74.8931 130.863 85.189 140.936L82.0713 154.854C82.0713 154.854 97.0091 164.677 121.248 163.171C121.248 163.171 146.888 117.159 133.746 112.496Z" fill="#FFA65B"/>
<path d="M104.237 147.08C97.2318 150.116 89.9916 152.303 82.4772 153.037L82.0703 154.853C82.0703 154.853 97.0082 164.676 121.247 163.17C121.247 163.17 136.567 136.384 137.205 122.275C128.978 133.383 116.667 141.692 104.237 147.08Z" fill="#E58B48"/>
<path d="M77.571 150.158C77.571 150.158 70.7036 157.275 69.8279 159.594C68.9517 161.914 72.0524 161.274 72.0524 161.274C72.0524 161.274 72.6535 164.036 74.1823 163.758C75.7111 163.481 82.4742 154.498 82.4742 154.498L77.571 150.158Z" fill="#F28B8B"/>
<path d="M101.16 157.721C101.16 157.721 105.505 166.605 107.386 168.22C109.267 169.835 109.725 166.703 109.725 166.703C109.725 166.703 112.526 167.08 112.786 165.549C113.047 164.017 106.913 154.594 106.913 154.594L101.16 157.721Z" fill="#F28B8B"/>
<path d="M79.993 153.471C79.993 153.471 75.1849 162.113 74.9337 164.579C74.6829 167.046 77.515 165.632 77.515 165.632C77.515 165.632 78.8055 168.146 80.2116 167.485C81.6178 166.824 85.8464 156.405 85.8464 156.405L79.993 153.471Z" fill="#FFAC9D"/>
<path d="M106.016 155.987C106.016 155.987 111.89 163.944 114.031 165.194C116.172 166.444 116.058 163.28 116.058 163.28C116.058 163.28 118.881 163.146 118.862 161.593C118.842 160.039 111.111 151.875 111.111 151.875L106.016 155.987Z" fill="#FFAC9D"/>
<path d="M95.8407 162.845C89.0359 162.89 83.3446 160.901 78.773 156.873C74.2013 152.849 71.9038 147.929 71.8868 142.119C71.8694 136.187 74.065 131.452 78.4708 127.909C82.8794 124.37 88.268 122.578 94.6366 122.536C98.9787 122.507 103.108 123.359 107.023 125.087C110.94 126.818 114.096 129.218 116.494 132.289C118.892 135.36 120.095 138.712 120.105 142.344C120.121 147.793 117.82 152.561 113.197 156.646C108.575 160.735 102.79 162.799 95.8407 162.845Z" fill="#FFAC9D"/>
<path d="M97.9042 122.686C96.8282 122.579 95.7384 122.529 94.6349 122.536C94.425 122.537 94.2193 122.545 94.0117 122.551C95.8408 122.911 99.9009 124.148 101.894 128.209L103.367 127.856C102.071 125.309 99.8954 123.681 97.9042 122.686Z" fill="#352C38"/>
<path d="M76.207 142.037L70.676 141.791L69.6758 151.28L76.4256 151.81L76.207 142.037Z" fill="#FFAC9D"/>
<path d="M70.3648 151.37C69.1464 151.298 68.1641 150.758 67.4188 149.748C66.673 148.738 66.3506 147.544 66.4517 146.166C66.555 144.759 67.0331 143.663 67.8845 142.876C68.7368 142.09 69.7329 141.73 70.8727 141.797C71.6502 141.842 72.3735 142.095 73.0426 142.551C73.7121 143.009 74.2338 143.616 74.6076 144.374C74.9814 145.131 75.1366 145.941 75.0733 146.802C74.9782 148.094 74.4809 149.197 73.5808 150.109C72.6807 151.023 71.6088 151.443 70.3648 151.37Z" fill="#F28B8B"/>
<path d="M71.8707 148.607C71.6218 148.556 71.4464 148.324 71.3449 147.911C71.2434 147.499 71.2393 147.022 71.333 146.48C71.4285 145.927 71.5851 145.504 71.8032 145.209C72.0214 144.915 72.2468 144.792 72.4801 144.84C72.639 144.873 72.7759 144.986 72.8907 145.179C73.0055 145.372 73.0817 145.621 73.1194 145.927C73.157 146.232 73.1465 146.555 73.0881 146.893C73.0004 147.401 72.8392 147.827 72.6046 148.17C72.3695 148.514 72.1251 148.659 71.8707 148.607Z" fill="#352C38"/>
<path d="M68.07 147.923C67.8211 147.872 67.6457 147.64 67.5442 147.227C67.4427 146.815 67.4386 146.338 67.5318 145.796C67.6273 145.243 67.7839 144.82 68.002 144.526C68.2202 144.232 68.4457 144.109 68.6789 144.156C68.8378 144.189 68.9747 144.302 69.0895 144.495C69.2043 144.688 69.2805 144.938 69.3182 145.243C69.3559 145.549 69.3453 145.871 69.287 146.21C69.1993 146.718 69.0381 147.143 68.8034 147.486C68.5687 147.829 68.324 147.975 68.07 147.923Z" fill="#352C38"/>
<path d="M75.5091 137.742C75.4241 138.088 75.1711 138.299 74.9447 138.213C74.7178 138.127 74.603 137.778 74.6884 137.432C74.7734 137.086 75.0264 136.875 75.2528 136.961C75.4797 137.046 75.5945 137.396 75.5091 137.742Z" fill="#352C38" stroke="#352C38" stroke-width="0.385065" stroke-miterlimit="10"/>
<path d="M84.2554 138.611C84.17 138.957 83.9174 139.168 83.6906 139.082C83.4637 138.997 83.3494 138.647 83.4343 138.301C83.5193 137.955 83.7723 137.744 83.9992 137.83C84.226 137.916 84.3408 138.265 84.2554 138.611Z" fill="#352C38" stroke="#352C38" stroke-width="0.385065" stroke-miterlimit="10"/>
<path d="M88.2239 136.4C88.2239 136.4 81.1219 129.846 83.345 128.1C85.5681 126.355 89.1827 124.258 90.2771 127.652C91.371 131.046 89.63 136.577 88.2239 136.4Z" fill="#F28B8B"/>
<path d="M75.0054 134.941C75.0054 134.941 80.8514 128.673 78.3674 127.324C75.8834 125.975 72.5131 123.461 72.0025 126.991C71.4918 130.521 73.6484 135.351 75.0054 134.941Z" fill="#F28B8B"/>
<path d="M143.704 130.462C143.704 130.462 151.865 169.016 143.356 173.712C134.847 178.407 75.1694 141.322 102.31 154.034C102.31 154.034 83.3239 140.847 102.951 150.997C102.951 150.997 85.8841 137.971 105.031 149.24C105.031 149.24 89.9437 140.244 108.614 147.995C108.614 147.995 103.441 135.968 111.683 148.253L128.628 153.54C128.628 153.54 123.044 134.91 126.216 124.743C129.388 114.576 138.951 113.447 143.704 130.462Z" fill="#965450"/>
<path d="M140.038 142.768C141.889 141.949 143.657 140.979 145.398 139.959C144.539 134.424 143.701 130.462 143.701 130.462C138.948 113.447 129.386 114.576 126.213 124.743C124.5 130.233 125.34 138.19 126.476 144.349C131.091 144.189 135.573 144.741 140.038 142.768Z" fill="#76413B"/>
<path d="M123.568 142.489C123.568 142.489 119.793 112.117 131.137 112.137C142.482 112.156 145.809 126.858 147.858 135.112C147.858 135.112 135.427 142.767 123.568 142.489Z" fill="#FFA65B"/>
<path d="M112.715 59.2053C112.715 59.2053 109.02 71.0024 128.97 75.7697C128.97 75.7697 115.557 114.315 124.413 116.218C133.27 118.121 132.519 108.656 140.839 116.954C140.839 116.954 148.549 111.033 142.926 102.832C137.304 94.6317 150.374 75.507 142.025 62.9558C133.677 50.4037 116.73 49.7529 112.715 59.2053Z" fill="#352C38"/>
<path d="M136.074 83.5014C134.194 82.695 132.756 83.6259 131.723 84.9544C131.559 87.8361 130.616 90.2595 129.957 93.8823C136.324 99.4441 140.048 85.2052 136.074 83.5014Z" fill="#965450"/>
<path d="M110.977 81.7461C111.005 81.9018 111.023 82.0639 111.023 82.2237C111.021 82.3835 111.023 82.5474 110.999 82.7059C110.97 83.0287 110.898 83.3451 110.807 83.6565C110.719 83.9692 110.596 84.2709 110.458 84.5653C110.394 84.7159 110.321 84.8606 110.236 84.9993C110.153 85.138 110.08 85.2858 109.986 85.4172C109.811 85.6909 109.624 85.9572 109.413 86.2029C109.213 86.4596 108.983 86.686 108.758 86.9175C108.531 87.1466 108.279 87.3487 108.038 87.56C107.783 87.7551 107.519 87.9365 107.261 88.1243L107.225 87.4415C107.457 87.5898 107.679 87.7556 107.905 87.914C108.132 88.0711 108.353 88.2382 108.574 88.4068C109.015 88.7425 109.449 89.0915 109.86 89.4791C109.322 89.3055 108.807 89.0933 108.301 88.8674C108.047 88.7549 107.794 88.6419 107.547 88.5179C107.3 88.3958 107.048 88.2805 106.806 88.1482L106.305 87.8745L106.769 87.4653L107.448 86.8683L107.772 86.5584C107.88 86.455 107.997 86.36 108.096 86.2488L108.407 85.9288C108.516 85.8259 108.607 85.7092 108.707 85.5995C108.909 85.3814 109.094 85.1508 109.282 84.9208C109.381 84.8087 109.458 84.6829 109.547 84.5639C109.634 84.4436 109.723 84.3242 109.803 84.1988C109.883 84.0744 109.973 83.9536 110.043 83.8227C110.113 83.6919 110.203 83.5688 110.269 83.4351C110.411 83.1715 110.55 82.9024 110.667 82.6214C110.785 82.3408 110.899 82.0538 110.977 81.7461Z" fill="#5E2626"/>
<path d="M133.186 93.7816C133.298 93.5401 133.371 93.2847 133.42 93.0358C133.464 92.7865 133.468 92.5334 133.401 92.3245C133.377 92.2749 133.361 92.2239 133.337 92.178L133.247 92.0535C133.207 92.0195 133.167 91.9879 133.132 91.953C133.098 91.9167 133.04 91.8992 132.998 91.8712C132.916 91.8101 132.791 91.7936 132.693 91.7527C132.581 91.7284 132.462 91.7142 132.349 91.693L132.098 91.6462L132.089 91.3762C132.054 90.2579 132.101 89.1526 132.255 88.0357C132.343 87.4791 132.452 86.9221 132.63 86.3609C132.724 86.0812 132.841 85.8025 133.005 85.5237C133.174 85.2546 133.384 84.9442 133.801 84.7655L133.962 84.7132L133.982 84.7072L133.992 84.7045L134.03 84.6971L134.056 84.6939L134.107 84.687L134.311 84.6618C134.474 84.6604 134.672 84.6484 134.828 84.6778C135.156 84.7086 135.469 84.8294 135.761 84.9782C136.041 85.1508 136.305 85.3635 136.483 85.6381C136.679 85.8994 136.794 86.2025 136.876 86.5005C136.913 86.6507 136.921 86.8045 136.942 86.9542C136.953 87.1044 136.942 87.2532 136.942 87.4011C136.917 87.6931 136.88 87.9834 136.791 88.2548C136.725 88.5326 136.615 88.7935 136.504 89.0502C136.396 89.3078 136.244 89.5452 136.114 89.7872C136.174 89.5154 136.248 89.2513 136.299 88.9845C136.342 88.7154 136.397 88.4527 136.41 88.1868C136.441 87.9232 136.424 87.6605 136.412 87.4075C136.392 87.2821 136.384 87.1554 136.356 87.0351C136.32 86.9175 136.294 86.7967 136.252 86.6856C136.162 86.4656 136.057 86.2557 135.901 86.0946C135.761 85.9178 135.565 85.8085 135.379 85.6996C135.176 85.6188 134.966 85.5462 134.743 85.5435C134.627 85.5292 134.55 85.549 134.441 85.549L134.238 85.5834L134.187 85.5912L134.162 85.5954C134.174 85.5931 134.129 85.6013 134.189 85.5903L134.188 85.5908L134.186 85.5922L134.182 85.5945C134.171 85.6004 134.159 85.6046 134.147 85.6073C134.051 85.6436 133.912 85.7988 133.805 85.9931C133.693 86.1887 133.605 86.4211 133.523 86.6599C133.359 87.1411 133.243 87.6601 133.149 88.1841C132.954 89.232 132.823 90.3163 132.72 91.389L132.461 91.0722C132.603 91.119 132.743 91.1585 132.882 91.2131C133.019 91.2894 133.16 91.3344 133.283 91.4455C133.344 91.4983 133.412 91.5364 133.464 91.6021C133.517 91.665 133.568 91.7293 133.614 91.795L133.715 92.0173C133.74 92.093 133.751 92.1725 133.767 92.2487C133.783 92.4025 133.777 92.5532 133.749 92.6955C133.74 92.7681 133.711 92.8342 133.693 92.9022C133.676 92.9706 133.644 93.0335 133.619 93.0978C133.51 93.3513 133.358 93.5786 133.186 93.7816Z" fill="#5E2626"/>
<path d="M109.547 93.1245C109.547 93.1245 109.686 93.1695 109.928 93.2297C110.17 93.2944 110.515 93.372 110.926 93.4441C111.132 93.4781 111.354 93.5102 111.589 93.5323C111.821 93.5686 112.07 93.5557 112.322 93.5777C112.574 93.5695 112.835 93.5709 113.095 93.5383C113.225 93.5231 113.356 93.5075 113.488 93.4919C113.618 93.4735 113.745 93.4313 113.874 93.4028C114.137 93.3628 114.381 93.2604 114.627 93.1741C114.876 93.0933 115.096 92.955 115.325 92.8535C115.548 92.7387 115.742 92.5876 115.944 92.4687C116.047 92.4104 116.138 92.3415 116.22 92.2671C116.307 92.1973 116.391 92.1293 116.471 92.0646C116.629 91.9305 116.794 91.823 116.907 91.6949C117.027 91.5732 117.138 91.4708 117.23 91.3845C117.414 91.2136 117.526 91.1172 117.526 91.1172C117.526 91.1172 117.467 91.2476 117.35 91.4736C117.29 91.5856 117.219 91.7243 117.128 91.8791C117.049 92.0421 116.917 92.1941 116.779 92.3672C116.633 92.5325 116.505 92.747 116.3 92.9031C116.103 93.0662 115.914 93.2701 115.672 93.4179C115.551 93.4919 115.427 93.5672 115.302 93.6434C115.179 93.7233 115.05 93.7977 114.907 93.8446C114.627 93.9539 114.347 94.0788 114.045 94.1348C113.896 94.1637 113.748 94.2055 113.598 94.2225C113.447 94.2358 113.297 94.2491 113.148 94.2625C112.999 94.2831 112.852 94.2735 112.706 94.2648C112.561 94.2556 112.418 94.2537 112.277 94.2377C112 94.1963 111.731 94.1587 111.486 94.0829C111.237 94.0255 111.011 93.9401 110.806 93.8579C110.396 93.6935 110.078 93.5093 109.866 93.3656C109.654 93.2237 109.547 93.1245 109.547 93.1245Z" fill="#5E2626"/>
<path d="M113.863 77.724C113.863 77.724 114.052 77.8429 114.39 77.9743C114.557 78.0418 114.768 78.096 114.995 78.1474C115.229 78.1874 115.488 78.197 115.754 78.1777C116.022 78.1437 116.296 78.0762 116.572 77.9591C116.707 77.8884 116.849 77.8338 116.984 77.7437C117.134 77.6491 117.287 77.5527 117.443 77.4544C117.605 77.3465 117.78 77.2423 117.983 77.1371C118.178 77.0269 118.378 76.9277 118.581 76.8418C118.984 76.654 119.417 76.508 119.861 76.3881C120.307 76.2738 120.77 76.2007 121.233 76.1759C121.465 76.1658 121.7 76.1769 121.927 76.1842C122.158 76.2159 122.385 76.237 122.606 76.2848C122.825 76.3482 123.043 76.3909 123.245 76.4726C123.446 76.5635 123.646 76.6347 123.825 76.7385C124 76.8501 124.172 76.9525 124.328 77.0636C124.471 77.1904 124.609 77.313 124.742 77.4301C124.98 77.6873 125.184 77.9316 125.321 78.1722C125.457 78.4138 125.583 78.6112 125.642 78.8004C125.778 79.166 125.833 79.3736 125.833 79.3736C125.833 79.3736 125.658 79.2289 125.391 78.9772C125.269 78.8422 125.067 78.7283 124.884 78.5685C124.793 78.4868 124.679 78.4225 124.562 78.3541C124.442 78.2893 124.336 78.1989 124.202 78.1414C124.074 78.0808 123.941 78.0175 123.803 77.9522C123.661 77.904 123.515 77.8544 123.365 77.8034C123.214 77.7594 123.053 77.7341 122.896 77.696C122.736 77.6689 122.567 77.6583 122.401 77.6358C122.231 77.6322 122.058 77.6285 121.883 77.6248C121.706 77.6386 121.527 77.6524 121.346 77.6666C120.984 77.7185 120.614 77.7773 120.246 77.8801C119.876 77.972 119.507 78.0905 119.146 78.2241C118.771 78.3605 118.467 78.4826 118.087 78.6553C117.999 78.6934 117.903 78.7394 117.822 78.7706C117.718 78.8133 117.615 78.8551 117.512 78.8969C117.308 78.9763 117.09 79.0287 116.884 79.0723C116.46 79.1476 116.046 79.1338 115.683 79.064C114.952 78.8964 114.478 78.5143 114.216 78.225C113.948 77.9316 113.863 77.724 113.863 77.724Z" fill="#1F1A21"/>
<path d="M110.337 78.2708C110.337 78.2708 110.165 78.1648 109.865 77.9797C109.566 77.8006 109.146 77.5489 108.642 77.2849C107.638 76.7549 106.284 76.1754 104.96 76.1809C104.63 76.1896 104.3 76.2061 103.98 76.2787C103.658 76.3389 103.345 76.439 103.04 76.5492C102.739 76.67 102.447 76.8036 102.173 76.9524C102.03 77.0148 101.908 77.1094 101.776 77.1802C101.644 77.2523 101.52 77.329 101.405 77.4102C101.169 77.5645 100.944 77.7065 100.755 77.8497C100.565 77.9893 100.386 78.1046 100.252 78.2139C99.9737 78.4238 99.7969 78.5372 99.7969 78.5372C99.7969 78.5372 99.8648 78.3448 100.015 78.0192C100.087 77.8543 100.187 77.661 100.322 77.4507C100.445 77.2316 100.606 76.9969 100.801 76.7531C100.99 76.5037 101.231 76.259 101.498 76.0096C101.771 75.7644 102.087 75.5297 102.442 75.3212C102.803 75.1224 103.197 74.9364 103.628 74.8262C104.053 74.6925 104.511 74.6572 104.963 74.6406C105.415 74.6572 105.867 74.6999 106.287 74.8229C106.709 74.935 107.107 75.0911 107.463 75.2822C108.184 75.6528 108.751 76.1336 109.182 76.5795C109.609 77.0328 109.901 77.4571 110.082 77.7666C110.264 78.0761 110.337 78.2708 110.337 78.2708Z" fill="#1F1A21"/>
<path d="M118.51 84.036C118.431 85.016 117.955 85.7769 117.447 85.7361C116.939 85.6947 116.592 84.8672 116.671 83.8872C116.751 82.9072 117.227 82.1462 117.735 82.1871C118.243 82.228 118.59 83.056 118.51 84.036Z" fill="#1F1A21"/>
<path d="M103.779 81.7528C103.7 82.7328 103.224 83.4942 102.716 83.4529C102.208 83.4115 101.862 82.584 101.941 81.604C102.02 80.624 102.496 79.863 103.004 79.9039C103.512 79.9452 103.859 80.7728 103.779 81.7528Z" fill="#1F1A21"/>
</g>
<path d="M0.5 0H192.5H0.5ZM192.5 101C192.5 154.019 149.519 197 96.5 197C43.4807 197 0.5 154.019 0.5 101V96C0.5 146.258 43.4807 187 96.5 187C149.519 187 192.5 146.258 192.5 96V101ZM0.5 192V0V192ZM192.5 0V192V0Z" fill="#34718A" mask="url(#path-1-inside-1_3614_10151)"/>
<defs>
<clipPath id="clip0_3614_10151">
<path d="M0.5 96C0.5 42.9807 43.4807 0 96.5 0C149.519 0 192.5 42.9807 192.5 96C192.5 149.019 149.519 192 96.5 192C43.4807 192 0.5 149.019 0.5 96Z" fill="white"/>
</clipPath>
</defs>
</svg>
