<svg width="25" height="24" viewBox="0 0 25 24" fill="none" xmlns="http://www.w3.org/2000/svg">
<path d="M14.6208 17.2432C14.8186 17.2432 15.0119 17.1845 15.1763 17.0746C15.3407 16.9648 15.4688 16.8086 15.5445 16.6259C15.6202 16.4432 15.64 16.2422 15.6014 16.0482C15.5628 15.8543 15.4676 15.6761 15.3278 15.5362L11.7928 12.0002L15.3278 8.46424C15.51 8.27564 15.6108 8.02304 15.6085 7.76084C15.6062 7.49865 15.501 7.24783 15.3156 7.06242C15.1302 6.87702 14.8794 6.77185 14.6172 6.76957C14.355 6.76729 14.1024 6.86809 13.9138 7.05024L9.67182 11.2932C9.48435 11.4808 9.37903 11.7351 9.37903 12.0002C9.37903 12.2654 9.48435 12.5197 9.67182 12.7072L13.9138 16.9502C14.1013 17.1378 14.3556 17.2432 14.6208 17.2432Z" fill="#150149"/>
</svg>
