<svg width="18" height="18" viewBox="0 0 18 18" fill="none" xmlns="http://www.w3.org/2000/svg">
<g clip-path="url(#clip0_3614_10006)">
<mask id="mask0_3614_10006" style="mask-type:luminance" maskUnits="userSpaceOnUse" x="0" y="0" width="18" height="18">
<path d="M16.5 9.00001C16.5012 9.98787 16.3067 10.9662 15.9277 11.8784C15.5486 12.7907 14.9926 13.6188 14.2916 14.3149C13.5964 15.0088 12.7712 15.559 11.8632 15.9339C10.9553 16.3089 9.98233 16.5012 9.00001 16.5C4.85776 16.5 1.50001 13.1423 1.50001 9.00001C1.49731 7.0769 2.23602 5.22677 3.56251 3.83438C4.26234 3.0958 5.10555 2.50782 6.04052 2.10643C6.97548 1.70504 7.98253 1.49869 9.00001 1.50001C9.98233 1.4988 10.9553 1.69115 11.8632 2.06608C12.7712 2.44102 13.5964 2.99118 14.2916 3.68513C14.9926 4.38124 15.5486 5.20934 15.9277 6.12159C16.3067 7.03383 16.5012 8.01215 16.5 9.00001Z" fill="white" stroke="white" stroke-width="1.5" stroke-linecap="round" stroke-linejoin="round"/>
<path d="M16.5006 9.00106C15.4063 9.00106 12.3876 8.58856 9.68572 9.77468C6.75059 11.0636 4.62547 13.0631 3.69922 14.3062" stroke="black" stroke-width="1.5" stroke-linecap="round" stroke-linejoin="round"/>
<path d="M6.1875 2.04492C7.36125 3.1283 9.9225 5.88642 10.875 8.62467C11.8275 11.3629 12.18 14.7297 12.3975 15.6878" stroke="black" stroke-width="1.5" stroke-linecap="round" stroke-linejoin="round"/>
<path d="M1.55859 8.06203C2.97534 8.14753 6.72572 8.22441 9.12572 7.19953C11.5257 6.17466 13.5908 4.28953 14.2992 3.69141" stroke="black" stroke-width="1.5" stroke-linecap="round" stroke-linejoin="round"/>
<path d="M2.06251 11.8549C2.72348 13.4545 3.91535 14.7776 5.43751 15.6015M1.50001 9.00001C1.49731 7.0769 2.23602 5.22677 3.56251 3.83438C4.26234 3.0958 5.10555 2.50782 6.04052 2.10643C6.97548 1.70504 7.98253 1.49869 9.00001 1.50001M12 2.12401C12.8543 2.49742 13.6314 3.02684 14.2916 3.68513C14.9926 4.38124 15.5486 5.20934 15.9277 6.12159C16.3067 7.03383 16.5012 8.01215 16.5 9.00001C16.5 9.92326 16.3331 10.8079 16.0275 11.625M9.00001 16.5C9.98233 16.5012 10.9553 16.3089 11.8632 15.9339C12.7712 15.559 13.5964 15.0088 14.2916 14.3149" stroke="white" stroke-width="1.5" stroke-linecap="round" stroke-linejoin="round"/>
</mask>
<g mask="url(#mask0_3614_10006)">
<path d="M0 0H18V18H0V0Z" fill="#150149"/>
</g>
</g>
<defs>
<clipPath id="clip0_3614_10006">
<rect width="18" height="18" fill="white"/>
</clipPath>
</defs>
</svg>
