<svg width="198" height="169" viewBox="0 0 198 169" fill="none" xmlns="http://www.w3.org/2000/svg">
<g clip-path="url(#clip0_4_786)">
<path d="M122.249 26.2501C134.031 32.9644 143.814 42.6216 150.616 54.2511C157.418 65.8805 160.999 79.0725 160.999 92.501C160.999 105.93 157.418 119.122 150.616 130.751C143.813 142.38 134.03 152.037 122.248 158.752C110.467 165.466 97.102 169 83.4978 169C69.8936 169 56.5292 165.465 44.7478 158.75C32.9663 152.036 23.183 142.378 16.3812 130.749C9.57937 119.119 5.99868 105.927 5.99902 92.4986L6.03777 90.02C6.4718 76.8085 10.3665 63.9334 17.3422 52.65C24.3179 41.3666 34.1366 32.0599 45.8409 25.6372C57.5453 19.2145 70.7359 15.8951 84.1268 16.0025C97.5177 16.1099 110.652 19.6405 122.249 26.2501ZM83.499 46.599C81.4436 46.599 79.4724 47.4049 78.019 48.8396C76.5656 50.2742 75.749 52.22 75.749 54.2489C69.5827 54.2489 63.669 56.6668 59.3088 60.9708C54.9486 65.2747 52.499 71.1121 52.499 77.1987C52.499 83.2854 54.9486 89.1228 59.3088 93.4267C63.669 97.7306 69.5827 100.149 75.749 100.149L75.749 115.448C74.4637 115.519 73.1805 115.278 72.0109 114.747C70.8412 114.217 69.8205 113.412 69.0375 112.404L68.5105 111.631C67.4502 109.943 65.7664 108.728 63.8151 108.244C61.8638 107.759 59.7981 108.043 58.0547 109.034C56.3113 110.026 55.027 111.648 54.4733 113.557C53.9195 115.467 54.1398 117.514 55.0875 119.266C57.0656 122.652 59.8872 125.484 63.2847 127.492C66.6823 129.5 70.5431 130.618 74.5013 130.741L75.749 130.741C75.7474 132.616 76.4434 134.426 77.705 135.828C78.9666 137.23 80.7058 138.125 82.5923 138.345L83.499 138.398C85.5545 138.398 87.5257 137.592 88.9791 136.158C90.4325 134.723 91.249 132.777 91.249 130.748L92.613 130.71C98.655 130.365 104.323 127.709 108.412 123.305C112.501 118.901 114.689 113.096 114.511 107.125C114.334 101.154 111.804 95.4861 107.461 91.3264C103.117 87.1668 97.301 84.8429 91.249 84.8487L91.249 69.5488C94.0235 69.457 96.4493 70.6198 97.9605 72.5935L98.4875 73.3661C99.5479 75.0541 101.232 76.2688 103.183 76.7534C105.134 77.2381 107.2 76.9546 108.943 75.963C110.687 74.9714 111.971 73.3494 112.525 71.44C113.079 69.5306 112.858 67.4835 111.911 65.7315C109.933 62.3437 107.112 59.5107 103.715 57.5011C100.317 55.4915 96.4557 54.3721 92.4968 54.2489L91.249 54.2489C91.249 52.22 90.4325 50.2742 88.9791 48.8396C87.5257 47.4049 85.5545 46.599 83.499 46.599ZM91.249 100.149C93.3045 100.149 95.2757 100.955 96.7291 102.389C98.1825 103.824 98.999 105.77 98.999 107.799C98.999 109.827 98.1825 111.773 96.7291 113.208C95.2757 114.642 93.3045 115.448 91.249 115.448L91.249 100.149ZM75.749 69.5488L75.749 84.8487C73.6936 84.8487 71.7224 84.0427 70.2689 82.6081C68.8155 81.1734 67.999 79.2276 67.999 77.1987C67.999 75.1698 68.8155 73.224 70.2689 71.7894C71.7224 70.3548 73.6936 69.5488 75.749 69.5488Z" fill="#B0EC64"/>
</g>
<path d="M187.592 45.5662L197.826 3.78751C197.917 3.41468 197.917 3.02366 197.828 2.6467C197.738 2.26974 197.561 1.91764 197.311 1.61944L197.308 1.61496C197.056 1.31657 196.737 1.08138 196.38 0.928943C196.022 0.776503 195.635 0.711215 195.251 0.7385L152.442 3.7994C152 3.83073 151.577 3.98429 151.22 4.24315C150.864 4.50201 150.587 4.85613 150.422 5.26651C150.255 5.67618 150.204 6.12654 150.277 6.56803C150.349 7.00951 150.541 7.425 150.831 7.76876L158.471 16.85L134.603 36.9295C134.362 37.1322 134.164 37.3815 134.02 37.6632C133.877 37.9448 133.791 38.2532 133.767 38.5708C133.743 38.8883 133.782 39.2088 133.881 39.514C133.981 39.8191 134.138 40.1028 134.346 40.3489L148.483 57.1504C148.69 57.3969 148.943 57.601 149.226 57.751C149.51 57.901 149.819 57.994 150.137 58.0246C150.454 58.0553 150.772 58.0231 151.074 57.9297C151.377 57.8364 151.656 57.6838 151.897 57.4807L175.762 37.4029L183.404 46.4872C183.994 47.1879 184.922 47.5058 185.805 47.3154C186.238 47.221 186.634 47.0076 186.949 46.6989C187.265 46.3902 187.487 45.9982 187.592 45.5662Z" fill="#B0EC64"/>
<defs>
<clipPath id="clip0_4_786">
<rect width="191" height="153" fill="white" transform="translate(0.37207 15.9629)"/>
</clipPath>
</defs>
</svg>
