<svg width="22" height="22" viewBox="0 0 22 22" fill="none" xmlns="http://www.w3.org/2000/svg">
<g clip-path="url(#clip0_3616_8262)">
<path d="M14.5902 5.72683L11.4263 8.89073L8.26235 5.72683C7.87412 5.33859 7.24441 5.33859 6.85618 5.72683L6.15309 6.42992C5.76485 6.81816 5.76485 7.44786 6.15309 7.8361L9.31699 11L6.15309 14.1639C5.76485 14.5521 5.76485 15.1818 6.15309 15.5701L6.85618 16.2732C7.24441 16.6614 7.87412 16.6614 8.26235 16.2732L11.4263 13.1093L14.5902 16.2732C14.9784 16.6614 15.6081 16.6614 15.9963 16.2732L16.6994 15.5701C17.0877 15.1818 17.0877 14.5521 16.6994 14.1639L13.5355 11L16.6994 7.8361C17.0877 7.44786 17.0877 6.81816 16.6994 6.42992L15.9963 5.72683C15.6081 5.33859 14.9784 5.33859 14.5902 5.72683Z" fill="#B0EC64"/>
</g>
<defs>
<clipPath id="clip0_3616_8262">
<rect width="14" height="15.9091" fill="white" transform="translate(0.851562 10.3252) rotate(-45)"/>
</clipPath>
</defs>
</svg>
