<svg width="14" height="16" viewBox="0 0 14 16" fill="none" xmlns="http://www.w3.org/2000/svg">
<path d="M12.9662 6.5083H8.49174V2.03387C8.49174 1.48482 8.04648 1.03955 7.49743 1.03955H6.50311C5.95406 1.03955 5.50879 1.48482 5.50879 2.03387V6.5083H1.03436C0.485307 6.5083 0.0400391 6.95357 0.0400391 7.50262V8.49694C0.0400391 9.04599 0.485307 9.49125 1.03436 9.49125H5.50879V13.9657C5.50879 14.5147 5.95406 14.96 6.50311 14.96H7.49743C8.04648 14.96 8.49174 14.5147 8.49174 13.9657V9.49125H12.9662C13.5152 9.49125 13.9605 9.04599 13.9605 8.49694V7.50262C13.9605 6.95357 13.5152 6.5083 12.9662 6.5083Z" fill="#150149"/>
</svg>
