<svg width="48" height="48" viewBox="0 0 48 48" fill="none" xmlns="http://www.w3.org/2000/svg">
<path d="M39.66 15.002L35.12 10.462C35.26 9.62195 35.48 8.84195 35.76 8.16195C35.952 7.70654 36.0284 7.21069 35.9823 6.7186C35.9362 6.22651 35.7691 5.75346 35.4959 5.34162C35.2226 4.92977 34.8517 4.59192 34.4163 4.35818C33.9808 4.12444 33.4942 4.00206 33 4.00195C29.72 4.00195 26.82 5.58195 25 8.00195H15C8.92 8.00195 4 12.922 4 19.002C4 25.082 9 42.002 9 42.002H20V38.002H24V42.002H35L38.36 30.822L44 28.942V15.002H39.66ZM26 18.002H16V14.002H26V18.002ZM32 22.002C30.9 22.002 30 21.102 30 20.002C30 18.902 30.9 18.002 32 18.002C33.1 18.002 34 18.902 34 20.002C34 21.102 33.1 22.002 32 22.002Z" fill="#148BD0"/>
</svg>
