<svg width="48" height="48" viewBox="0 0 48 48" fill="none" xmlns="http://www.w3.org/2000/svg">
<path d="M30.42 4.00013H17.5C13.9212 4.00542 10.4905 5.42944 7.9599 7.96003C5.42931 10.4906 4.00529 13.9213 4 17.5001V30.5001C4.00529 34.0789 5.42931 37.5096 7.9599 40.0402C10.4905 42.5708 13.9212 43.9948 17.5 44.0001H30.5C34.0788 43.9948 37.5095 42.5708 40.0401 40.0402C42.5707 37.5096 43.9947 34.0789 44 30.5001V17.5001C43.9974 15.7213 43.6438 13.9604 42.9594 12.3185C42.275 10.6766 41.2734 9.18583 40.0118 7.93172C38.7503 6.6776 37.2536 5.68477 35.6077 5.01011C33.9617 4.33545 32.1988 3.99224 30.42 4.00013ZM34.2 25.3801H33.92C33.5679 25.3769 33.2278 25.2515 32.9578 25.0253C32.6879 24.7991 32.5049 24.4863 32.44 24.1401L32.08 22.1401L29.46 26.1401C28.9663 26.8749 28.207 27.3896 27.3417 27.5761C26.4764 27.7626 25.5725 27.6063 24.82 27.1401L20.28 24.2601C20.1964 24.2277 20.1036 24.2277 20.02 24.2601C19.9156 24.277 19.8221 24.3345 19.76 24.4201L15.12 30.6001C14.9782 30.7842 14.7966 30.9338 14.5888 31.0377C14.381 31.1416 14.1523 31.1971 13.92 31.2001C13.5952 31.2016 13.279 31.0962 13.02 30.9001C12.7296 30.6642 12.5378 30.3283 12.4823 29.9583C12.4268 29.5883 12.5116 29.2109 12.72 28.9001L17.36 22.7201C17.8708 22.0455 18.6135 21.5841 19.4447 21.4253C20.2759 21.2664 21.1364 21.4214 21.86 21.8601L26.42 24.7401C26.5132 24.7864 26.6192 24.7997 26.721 24.7779C26.8227 24.7561 26.914 24.7005 26.98 24.6201L29.66 20.6201L27.5 20.9201C27.3056 20.9569 27.1059 20.955 26.9123 20.9146C26.7187 20.8742 26.5349 20.7961 26.3715 20.6846C26.208 20.5732 26.0682 20.4307 25.9598 20.2652C25.8515 20.0997 25.7768 19.9145 25.74 19.7201C25.7032 19.5258 25.7051 19.3261 25.7455 19.1324C25.7859 18.9388 25.8641 18.755 25.9755 18.5916C26.0869 18.4282 26.2294 18.2883 26.3949 18.1799C26.5604 18.0716 26.7456 17.9969 26.94 17.9601L32.46 16.9401H33.18C33.2318 16.9218 33.2882 16.9218 33.34 16.9401L33.64 17.1001L33.94 17.3401C34.012 17.4268 34.072 17.5201 34.12 17.6201C34.176 17.713 34.2165 17.8143 34.24 17.9201L35.28 23.5201C35.3341 23.7132 35.349 23.9152 35.3237 24.1141C35.2985 24.313 35.2336 24.5048 35.1329 24.6783C35.0322 24.8517 34.8977 25.0031 34.7375 25.1237C34.5773 25.2442 34.3945 25.3314 34.2 25.3801Z" fill="#AC2DB5"/>
</svg>
