<svg width="48" height="48" viewBox="0 0 48 48" fill="none" xmlns="http://www.w3.org/2000/svg">
<path d="M24.5 18.5C28.366 18.5 31.5 15.366 31.5 11.5C31.5 7.63401 28.366 4.5 24.5 4.5C20.634 4.5 17.5 7.63401 17.5 11.5C17.5 15.366 20.634 18.5 24.5 18.5Z" fill="#AB2DB5" stroke="#AB2DB5" stroke-width="4" stroke-linecap="round" stroke-linejoin="round"/>
<path d="M4.5 41.5C4.5 32.663 12.559 25.5 22.5 25.5" stroke="#AB2DB5" stroke-width="4" stroke-linecap="round" stroke-linejoin="round"/>
<path d="M28.5 29.7C28.5 28.633 35.5 26.5 35.5 26.5C35.5 26.5 42.5 28.633 42.5 29.7C42.5 38.233 35.5 42.5 35.5 42.5C35.5 42.5 28.5 38.233 28.5 29.7Z" fill="#AB2DB5" stroke="#AB2DB5" stroke-width="4" stroke-linecap="round" stroke-linejoin="round"/>
</svg>
