<svg width="48" height="48" viewBox="0 0 48 48" fill="none" xmlns="http://www.w3.org/2000/svg">
<path fill-rule="evenodd" clip-rule="evenodd" d="M12.5 15.08V14.5C12.5 10.882 13.592 7.95 15.704 5.93C17.804 3.922 20.716 3 24 3C27.284 3 30.196 3.922 32.296 5.93C34.408 7.95 35.5 10.882 35.5 14.5V15.08C39.268 16.472 42 20.244 42 24.7C42 32.376 36.064 36.804 31.008 40.574C30.4827 40.966 29.9693 41.3513 29.468 41.73C27.6 43.156 25.8 44.5 24 44.5C22.2 44.5 20.4 43.156 18.532 41.73C18.0208 41.3418 17.5075 40.9565 16.992 40.574C11.936 36.804 6 32.374 6 24.698C6 20.246 8.732 16.476 12.5 15.08ZM15.5 14.5C15.5 11.49 16.394 9.422 17.778 8.1C19.172 6.764 21.258 6 24 6C26.74 6 28.828 6.764 30.222 8.1C31.606 9.422 32.5 11.49 32.5 14.5C29.77 14.436 26.78 15.566 24 18.362C21.22 15.566 18.23 14.438 15.5 14.5ZM24 23C24.3978 23 24.7794 23.158 25.0607 23.4393C25.342 23.7206 25.5 24.1022 25.5 24.5V29.5C25.5 29.8978 25.342 30.2794 25.0607 30.5607C24.7794 30.842 24.3978 31 24 31C23.6022 31 23.2206 30.842 22.9393 30.5607C22.658 30.2794 22.5 29.8978 22.5 29.5V24.5C22.5 24.1022 22.658 23.7206 22.9393 23.4393C23.2206 23.158 23.6022 23 24 23Z" fill="#AB2DB5"/>
</svg>
