<svg width="48" height="48" viewBox="0 0 48 48" fill="none" xmlns="http://www.w3.org/2000/svg">
<path d="M12.2372 33.5902C11.0344 33.7664 9.05435 34.0946 7.73717 32.6002C6.41998 31.1058 5.28092 27.4974 4.78029 24.2724C4.04154 19.5192 4.77467 15.5133 6.84279 12.9933C8.06154 11.5092 9.66092 10.6496 11.4684 10.5127C13.0162 10.3936 15.329 10.9992 17.5622 14.5617C18.9609 16.7939 20.025 19.7592 20.4815 22.6964C21.0328 26.2421 21.57 30.0258 19.6903 31.3824C18.63 32.1483 17.8687 32.4136 16.0697 32.8421C14.5903 33.1936 13.4409 33.413 12.2372 33.5902ZM10.0978 36.6399L20.3062 34.5342C21.1687 34.3561 21.8606 34.8305 22.1812 36.2517C23.2331 40.9167 21.7256 46.4986 17.0044 46.4986C12.5334 46.4986 9.55404 41.4024 9.06748 38.663C8.84529 37.4208 9.16217 36.8321 10.0978 36.6399ZM31.9294 23.843C30.1303 23.4164 29.369 23.1492 28.3087 22.3833C26.429 21.0267 26.9662 17.243 27.5175 13.6974C27.974 10.7602 29.0381 7.79112 30.4369 5.56268C32.6681 2.00018 34.9809 1.39456 36.5306 1.51362C38.3362 1.65143 39.9365 2.50925 41.1553 3.99331C43.2253 6.51331 43.9584 10.5192 43.2178 15.2724C42.7162 18.4974 41.5809 22.0936 40.2562 23.6002C38.9315 25.1067 36.9628 24.7664 35.7562 24.5902C34.5497 24.4139 33.4078 24.1936 31.9294 23.843ZM37.9003 27.6399L27.6919 25.5342C26.8294 25.3561 26.1375 25.8305 25.8169 27.2517C24.7659 31.9167 26.2734 37.4986 30.9947 37.4986C35.4656 37.4986 38.445 32.4024 38.9315 29.663C39.1528 28.4208 38.8359 27.8321 37.9003 27.6399Z" fill="#AB2DB5"/>
</svg>
