<svg width="48" height="48" viewBox="0 0 48 48" fill="none" xmlns="http://www.w3.org/2000/svg">
<path fill-rule="evenodd" clip-rule="evenodd" d="M11 35.998C11 35.7328 11.1054 35.4785 11.2929 35.2909C11.4804 35.1034 11.7348 34.998 12 34.998H36C36.2652 34.998 36.5196 35.1034 36.7071 35.2909C36.8946 35.4785 37 35.7328 37 35.998C37 36.2633 36.8946 36.5176 36.7071 36.7052C36.5196 36.8927 36.2652 36.998 36 36.998H12C11.7348 36.998 11.4804 36.8927 11.2929 36.7052C11.1054 36.5176 11 36.2633 11 35.998Z" fill="#5E24D0"/>
<path d="M18 22.998H14C13.4477 22.998 13 23.4458 13 23.998V35.998C13 36.5503 13.4477 36.998 14 36.998H18C18.5523 36.998 19 36.5503 19 35.998V23.998C19 23.4458 18.5523 22.998 18 22.998Z" fill="#5E24D0"/>
<path d="M26 10.998H22C21.4477 10.998 21 11.4458 21 11.998V35.998C21 36.5503 21.4477 36.998 22 36.998H26C26.5523 36.998 27 36.5503 27 35.998V11.998C27 11.4458 26.5523 10.998 26 10.998Z" fill="#5E24D0"/>
<path d="M34 16.998H30C29.4477 16.998 29 17.4458 29 17.998V35.998C29 36.5503 29.4477 36.998 30 36.998H34C34.5523 36.998 35 36.5503 35 35.998V17.998C35 17.4458 34.5523 16.998 34 16.998Z" fill="#5E24D0"/>
</svg>
