<svg width="48" height="48" viewBox="0 0 48 48" fill="none" xmlns="http://www.w3.org/2000/svg">
<path d="M35.4922 42.322L29.9922 36.322L32.3122 34.002L35.4922 37.182L42.6722 30.002L44.9922 32.822L35.4922 42.322ZM5.99219 40.002V38.002L9.99219 34.002V22.002C9.99141 18.9864 10.9643 16.0512 12.7661 13.6332C14.568 11.2152 17.1024 9.44353 19.9922 8.58195V8.00195C19.9922 6.94109 20.4136 5.92367 21.1638 5.17353C21.9139 4.42338 22.9313 4.00195 23.9922 4.00195C25.0531 4.00195 26.0705 4.42338 26.8206 5.17353C27.5708 5.92367 27.9922 6.94109 27.9922 8.00195V8.58195C30.882 9.44353 33.4164 11.2152 35.2182 13.6332C37.0201 16.0512 37.993 18.9864 37.9922 22.002V24.162L35.9922 24.002C34.0727 24.0032 32.1814 24.4645 30.4769 25.3473C28.7724 26.23 27.3044 27.5084 26.1957 29.0754C25.0871 30.6424 24.3702 32.4523 24.1051 34.3534C23.84 36.2545 24.0345 38.1915 24.6722 40.002H5.99219ZM23.9922 46.002C22.9313 46.002 21.9139 45.5805 21.1638 44.8304C20.4136 44.0802 19.9922 43.0628 19.9922 42.002H25.5922C26.0722 42.822 26.6522 43.582 27.2922 44.262C26.5722 45.322 25.3722 46.002 23.9922 46.002Z" fill="#F6B40C"/>
</svg>
