<svg width="48" height="48" viewBox="0 0 48 48" fill="none" xmlns="http://www.w3.org/2000/svg">
<path fill-rule="evenodd" clip-rule="evenodd" d="M12 14C12 10.8174 13.2643 7.76515 15.5147 5.51472C17.7652 3.26428 20.8174 2 24 2C27.1826 2 30.2348 3.26428 32.4853 5.51472C34.7357 7.76515 36 10.8174 36 14H38C39.0609 14 40.0783 14.4214 40.8284 15.1716C41.5786 15.9217 42 16.9391 42 18V38C42 39.0609 41.5786 40.0783 40.8284 40.8284C40.0783 41.5786 39.0609 42 38 42H10C8.93913 42 7.92172 41.5786 7.17157 40.8284C6.42143 40.0783 6 39.0609 6 38V18C6 16.9391 6.42143 15.9217 7.17157 15.1716C7.92172 14.4214 8.93913 14 10 14H12ZM24 6C26.1217 6 28.1566 6.84285 29.6569 8.34315C31.1571 9.84344 32 11.8783 32 14H16C16 11.8783 16.8429 9.84344 18.3431 8.34315C19.8434 6.84285 21.8783 6 24 6ZM28 26C28 26.7021 27.8151 27.3919 27.4641 27.9999C27.113 28.608 26.6081 29.1129 26 29.464V32C26 32.5304 25.7893 33.0391 25.4142 33.4142C25.0391 33.7893 24.5304 34 24 34C23.4696 34 22.9609 33.7893 22.5858 33.4142C22.2107 33.0391 22 32.5304 22 32V29.464C21.2375 29.0237 20.6415 28.3441 20.3046 27.5306C19.9677 26.7171 19.9086 25.8152 20.1365 24.9647C20.3644 24.1142 20.8665 23.3627 21.5651 22.8266C22.2636 22.2906 23.1195 22 24 22C25.0609 22 26.0783 22.4214 26.8284 23.1716C27.5786 23.9217 28 24.9391 28 26Z" fill="#80A71B"/>
</svg>
