<svg width="48" height="48" viewBox="0 0 48 48" fill="none" xmlns="http://www.w3.org/2000/svg">
<path d="M17.0725 13.3421L17.2625 13.5081L34.2345 30.4781C34.457 30.7003 34.6239 30.9719 34.7217 31.2707C34.8196 31.5695 34.8456 31.8872 34.7977 32.1979C34.7497 32.5087 34.6292 32.8037 34.4459 33.0592C34.2626 33.3146 34.0216 33.5233 33.7425 33.6681L33.5105 33.7681L12.7405 41.4221C8.83652 42.8621 5.03452 39.1921 6.22052 35.2941L6.32052 35.0021L13.9725 14.2321C14.0737 13.957 14.2341 13.7075 14.4424 13.5012C14.6507 13.2949 14.9018 13.137 15.1779 13.0385C15.454 12.9401 15.7484 12.9035 16.0402 12.9314C16.332 12.9594 16.6141 13.0511 16.8665 13.2001L17.0725 13.3421ZM35.1345 22.0301C36.9565 22.1261 39.4545 22.5101 41.6265 23.8141C42.0668 24.0752 42.3903 24.4951 42.5303 24.9875C42.6703 25.4799 42.6162 26.0072 42.3791 26.4608C42.142 26.9145 41.74 27.26 41.2559 27.4262C40.7717 27.5924 40.2422 27.5666 39.7765 27.3541L39.5685 27.2441C38.2045 26.4241 36.4605 26.1041 34.9245 26.0241C34.2916 25.9892 33.6571 25.9918 33.0245 26.0321L32.3925 26.0941C31.8708 26.1615 31.3435 26.0205 30.925 25.7019C30.5064 25.3832 30.2303 24.9124 30.1564 24.3916C30.0825 23.8708 30.2167 23.3418 30.5301 22.9192C30.8434 22.4967 31.3107 22.2146 31.8305 22.1341C32.9259 21.9928 34.0323 21.9573 35.1345 22.0281M39.1845 16.4561C39.6941 16.4572 40.1841 16.6527 40.5544 17.0028C40.9247 17.3529 41.1473 17.8312 41.1769 18.3399C41.2066 18.8486 41.0409 19.3495 40.7137 19.7402C40.3865 20.1309 39.9225 20.382 39.4165 20.4421L39.1845 20.4561H37.7685C37.2589 20.4551 36.769 20.2595 36.3987 19.9094C36.0284 19.5593 35.8057 19.0811 35.7761 18.5723C35.7465 18.0636 35.9122 17.5628 36.2394 17.1721C36.5665 16.7814 37.0305 16.5303 37.5365 16.4701L37.7685 16.4561H39.1845ZM32.8205 14.9221C33.1649 15.2665 33.3717 15.7247 33.4023 16.2108C33.4329 16.6968 33.285 17.1773 32.9865 17.5621L32.8205 17.7501L30.6985 19.8721C30.3386 20.2308 29.8557 20.4391 29.3478 20.4546C28.8399 20.4701 28.3451 20.2917 27.964 19.9556C27.5828 19.6196 27.3439 19.151 27.2957 18.6452C27.2475 18.1393 27.3937 17.6341 27.7045 17.2321L27.8705 17.0441L29.9905 14.9241C30.1763 14.7382 30.3968 14.5907 30.6396 14.49C30.8824 14.3894 31.1427 14.3376 31.4055 14.3376C31.6684 14.3376 31.9286 14.3894 32.1714 14.49C32.4142 14.5907 32.6348 14.7362 32.8205 14.9221ZM27.6465 4.39213C28.5425 7.08413 28.0625 10.0321 27.5025 12.0921C27.1673 13.3769 26.7051 14.625 26.1225 15.8181C25.8857 16.2929 25.47 16.6541 24.9668 16.8223C24.4636 16.9905 23.9143 16.952 23.4395 16.7151C22.9648 16.4783 22.6036 16.0626 22.4354 15.5594C22.2671 15.0562 22.3057 14.5069 22.5425 14.0321C23.0079 13.0739 23.3764 12.0716 23.6425 11.0401C24.0965 9.37613 24.3245 7.57013 23.9745 6.09013L23.8525 5.65813C23.7654 5.40801 23.7288 5.14307 23.7448 4.87868C23.7609 4.6143 23.8293 4.35574 23.9461 4.11801C24.0629 3.88028 24.2258 3.66813 24.4253 3.49386C24.6247 3.31959 24.8568 3.18667 25.1081 3.10283C25.3593 3.01899 25.6247 2.9859 25.8889 3.00547C26.153 3.02503 26.4107 3.09688 26.6468 3.21682C26.883 3.33677 27.093 3.50243 27.2646 3.70419C27.4362 3.90595 27.566 4.13979 27.6465 4.39213ZM38.4765 9.26813C38.8515 9.64319 39.0621 10.1518 39.0621 10.6821C39.0621 11.2125 38.8515 11.7211 38.4765 12.0961L37.0625 13.5101C36.878 13.7012 36.6573 13.8535 36.4133 13.9583C36.1693 14.0632 35.9069 14.1183 35.6413 14.1206C35.3758 14.1229 35.1124 14.0723 34.8666 13.9718C34.6208 13.8712 34.3975 13.7227 34.2097 13.5349C34.0219 13.3471 33.8734 13.1238 33.7729 12.878C33.6723 12.6322 33.6217 12.3689 33.624 12.1033C33.6263 11.8378 33.6815 11.5753 33.7863 11.3313C33.8911 11.0873 34.0435 10.8666 34.2345 10.6821L35.6485 9.26813C36.0236 8.89319 36.5322 8.68256 37.0625 8.68256C37.5928 8.68256 38.1015 8.89319 38.4765 9.26813Z" fill="#AB2DB5"/>
</svg>
