<svg width="32" height="32" viewBox="0 0 32 32" fill="none" xmlns="http://www.w3.org/2000/svg">
<path fill-rule="evenodd" clip-rule="evenodd" d="M4.80078 8.00039C4.80078 7.57604 4.96935 7.16908 5.26941 6.86902C5.56947 6.56896 5.97643 6.40039 6.40078 6.40039H25.6008C26.0251 6.40039 26.4321 6.56896 26.7322 6.86902C27.0322 7.16908 27.2008 7.57604 27.2008 8.00039C27.2008 8.42474 27.0322 8.8317 26.7322 9.13176C26.4321 9.43182 26.0251 9.60039 25.6008 9.60039H6.40078C5.97643 9.60039 5.56947 9.43182 5.26941 9.13176C4.96935 8.8317 4.80078 8.42474 4.80078 8.00039ZM4.80078 16.0004C4.80078 15.576 4.96935 15.1691 5.26941 14.869C5.56947 14.569 5.97643 14.4004 6.40078 14.4004H25.6008C26.0251 14.4004 26.4321 14.569 26.7322 14.869C27.0322 15.1691 27.2008 15.576 27.2008 16.0004C27.2008 16.4247 27.0322 16.8317 26.7322 17.1318C26.4321 17.4318 26.0251 17.6004 25.6008 17.6004H6.40078C5.97643 17.6004 5.56947 17.4318 5.26941 17.1318C4.96935 16.8317 4.80078 16.4247 4.80078 16.0004ZM4.80078 24.0004C4.80078 23.576 4.96935 23.1691 5.26941 22.869C5.56947 22.569 5.97643 22.4004 6.40078 22.4004H25.6008C26.0251 22.4004 26.4321 22.569 26.7322 22.869C27.0322 23.1691 27.2008 23.576 27.2008 24.0004C27.2008 24.4247 27.0322 24.8317 26.7322 25.1318C26.4321 25.4318 26.0251 25.6004 25.6008 25.6004H6.40078C5.97643 25.6004 5.56947 25.4318 5.26941 25.1318C4.96935 24.8317 4.80078 24.4247 4.80078 24.0004Z" fill="#150149"/>
</svg>
