<svg width="635" height="692" viewBox="0 0 635 692" fill="none" xmlns="http://www.w3.org/2000/svg">
<path d="M97.2012 167.715C109.095 155.802 109.095 136.486 97.2013 124.572C85.3074 112.658 66.0235 112.658 54.1296 124.572C42.2357 136.486 42.2357 155.802 54.1296 167.715C66.0235 179.629 85.3073 179.629 97.2012 167.715Z" fill="#B0EC64"/>
<path d="M81.123 154.438C80.4958 156.048 79.5942 157.226 78.4965 157.971C77.3988 158.717 75.9875 158.992 74.3018 158.835L72.6161 163.075C72.5769 163.193 72.4985 163.271 72.3809 163.35C72.2633 163.389 72.1457 163.389 72.0281 163.35L66.4613 161.112C66.3437 161.073 66.2653 160.994 66.1869 160.877C66.1477 160.759 66.1477 160.641 66.1869 160.523L67.6766 156.754C66.6573 156.283 65.7165 155.852 64.9324 155.38C64.8148 155.341 64.7756 155.223 64.7364 155.106C64.6972 154.988 64.6972 154.87 64.7364 154.752L66.971 150.434C67.0494 150.316 67.1278 150.238 67.2846 150.198C67.4414 150.159 67.559 150.198 67.6766 150.277C67.9902 150.473 68.3038 150.709 68.6567 150.905C69.0095 151.101 69.4407 151.376 69.9895 151.651C70.5384 151.965 71.048 152.201 71.5576 152.397C72.1065 152.632 72.5769 152.75 73.0082 152.75C73.4394 152.75 73.7922 152.672 74.0274 152.515C74.2626 152.358 74.4586 152.201 74.5763 152.043C74.6939 151.886 74.8115 151.729 74.8507 151.612C74.9291 151.455 74.9291 151.258 74.9683 151.062C74.9683 150.866 74.9683 150.591 74.8898 150.238C74.8114 149.884 74.6154 149.492 74.3018 149.06C73.949 148.628 73.5178 148.196 72.9297 147.804C72.2633 147.333 71.7144 146.783 71.2048 146.116C70.6952 145.448 70.3032 144.702 69.9504 143.878C69.6367 143.053 69.4799 142.111 69.4799 141.09C69.4799 140.07 69.7151 139.01 70.1072 137.95C70.6952 136.458 71.5576 135.359 72.7337 134.652C73.8706 133.946 75.2819 133.631 76.8892 133.71L78.6141 129.352C78.6533 129.235 78.7317 129.156 78.8885 129.078C79.0061 129.038 79.1237 128.999 79.2413 129.078L84.8081 131.315C84.9257 131.355 85.0041 131.472 85.0825 131.59C85.1217 131.708 85.1217 131.865 85.0825 131.983L83.5928 135.751C84.5729 136.183 85.5137 136.654 86.4546 137.165C86.5722 137.204 86.6114 137.322 86.6898 137.44C86.729 137.557 86.729 137.675 86.6506 137.793L84.4161 142.111C84.3377 142.229 84.2592 142.308 84.1024 142.347C83.9456 142.386 83.828 142.386 83.7104 142.307C82.2991 141.365 80.9662 140.619 79.7118 140.109C79.2021 139.874 78.7317 139.756 78.3005 139.756C77.8693 139.756 77.5164 139.834 77.2812 139.991C77.046 140.148 76.85 140.305 76.6931 140.462C76.5755 140.619 76.458 140.776 76.4188 140.894C76.3795 141.051 76.3403 141.208 76.3011 141.405C76.3011 141.601 76.3012 141.876 76.3796 142.229C76.458 142.582 76.654 142.975 77.0068 143.407C77.3596 143.839 77.7908 144.27 78.3789 144.663C79.0061 145.134 79.5942 145.684 80.1038 146.351C80.6134 147.018 81.0446 147.764 81.3582 148.589C81.6719 149.413 81.8287 150.355 81.8287 151.376C81.7503 152.358 81.5151 153.378 81.123 154.438Z" fill="#202D37"/>
<path d="M72.1847 163.938C72.0671 163.938 71.9103 163.899 71.7927 163.86L66.226 161.622C65.9516 161.504 65.7556 161.308 65.6379 161.073C65.5203 160.798 65.5203 160.523 65.6379 160.248L66.9316 156.99C66.1084 156.597 65.3243 156.205 64.6579 155.851C64.4227 155.734 64.2659 155.498 64.1874 155.262C64.109 155.027 64.1091 154.752 64.2267 154.477C64.2267 154.477 64.2267 154.438 64.2659 154.438L66.5004 150.12C66.6572 149.845 66.8924 149.649 67.206 149.57C67.5197 149.492 67.7941 149.57 68.0685 149.727C68.3821 149.923 68.6957 150.159 69.0093 150.355C69.323 150.551 69.7542 150.787 70.303 151.101C70.8127 151.376 71.3223 151.611 71.7927 151.808C72.2631 152.004 72.6944 152.122 73.0472 152.122C73.4392 152.122 73.6352 152.043 73.7136 151.965C73.9096 151.847 74.0664 151.69 74.1449 151.611C74.2625 151.494 74.3017 151.376 74.3409 151.337C74.3801 151.258 74.4193 151.14 74.4193 150.983C74.4193 150.866 74.4193 150.669 74.3409 150.277C74.3017 150.12 74.1841 149.806 73.8313 149.334C73.5176 148.942 73.1256 148.549 72.616 148.196C71.9104 147.725 71.2831 147.097 70.7343 146.39C70.1854 145.684 69.7542 144.898 69.4014 143.995C69.0485 143.092 68.8526 142.072 68.8918 140.973C68.8918 139.873 69.127 138.735 69.5974 137.636C70.2246 136.026 71.2047 134.848 72.4592 134.063C73.596 133.356 74.9681 133.003 76.5362 133.003L78.1043 129.038C78.2219 128.763 78.3787 128.567 78.6531 128.449C78.9275 128.331 79.202 128.292 79.4764 128.41L85.0431 130.648C85.3176 130.765 85.5136 130.962 85.6312 131.237C85.7488 131.511 85.7488 131.786 85.6312 132.061L84.3375 135.319C85.1607 135.712 85.9448 136.105 86.7289 136.497C86.9641 136.615 87.1209 136.85 87.2385 137.086C87.3561 137.361 87.3169 137.675 87.1601 137.95L84.9255 142.268C84.7687 142.543 84.5335 142.7 84.2591 142.818C83.9455 142.896 83.6318 142.857 83.3574 142.661C81.9853 141.758 80.6917 141.012 79.4764 140.501C79.006 140.305 78.6139 140.187 78.2611 140.187C77.9475 140.187 77.7123 140.227 77.5555 140.344C77.2811 140.501 77.1634 140.619 77.085 140.698C77.0066 140.776 76.9282 140.894 76.889 140.973C76.8498 141.012 76.8498 141.13 76.8106 141.326C76.8106 141.444 76.8106 141.64 76.889 141.993C76.9282 142.268 77.1243 142.582 77.3987 142.935C77.7123 143.328 78.1043 143.721 78.6139 144.074C79.2804 144.584 79.9076 145.173 80.4565 145.88C81.0053 146.586 81.4365 147.372 81.7893 148.275C82.1421 149.177 82.299 150.198 82.299 151.297C82.299 152.397 82.0637 153.496 81.5933 154.634C80.8877 156.362 79.9468 157.618 78.7708 158.442C77.6731 159.188 76.2618 159.502 74.6153 159.424L73.0864 163.271C72.9688 163.546 72.7728 163.742 72.5376 163.86C72.4592 163.899 72.3023 163.938 72.1847 163.938ZM66.7356 160.562L72.1063 162.721L73.7528 158.599C73.8312 158.364 74.1056 158.207 74.3409 158.246C75.909 158.403 77.2027 158.128 78.1827 157.5C79.1628 156.833 79.986 155.734 80.5741 154.242C80.9661 153.26 81.1621 152.279 81.2013 151.337C81.2013 150.394 81.0837 149.531 80.7701 148.746C80.4565 147.96 80.0644 147.254 79.594 146.665C79.1236 146.037 78.5747 145.526 77.9867 145.095C77.3987 144.663 76.889 144.192 76.497 143.721C76.105 143.21 75.8698 142.739 75.7914 142.307C75.713 141.915 75.6738 141.561 75.6738 141.326C75.6738 141.051 75.7522 140.816 75.8306 140.619C75.909 140.384 76.0658 140.187 76.2226 139.991C76.3794 139.795 76.6146 139.638 76.9283 139.441C77.2811 139.206 77.7515 139.088 78.3003 139.088C78.81 139.088 79.3588 139.206 79.9468 139.481C81.2013 139.991 82.5342 140.737 83.9455 141.679L86.0624 137.557C85.1999 137.086 84.2591 136.654 83.3182 136.222C83.0438 136.105 82.887 135.751 83.0046 135.476L84.4551 131.786L79.0452 129.627L77.3595 133.906C77.2811 134.142 77.0459 134.299 76.7714 134.259C75.2818 134.181 73.988 134.495 72.9688 135.123C71.9103 135.751 71.1263 136.772 70.5774 138.107C70.1854 139.088 69.9894 140.07 69.9894 141.012C69.9894 141.954 70.107 142.818 70.4206 143.603C70.7342 144.388 71.1263 145.095 71.5967 145.723C72.0671 146.351 72.616 146.861 73.204 147.293C73.8313 147.725 74.3409 148.196 74.6937 148.667C75.0857 149.177 75.321 149.649 75.3994 150.08C75.4778 150.473 75.5169 150.787 75.4777 151.062C75.4777 151.337 75.3993 151.572 75.3209 151.808C75.2425 152.004 75.1249 152.2 74.9289 152.397C74.7721 152.593 74.5369 152.789 74.2625 152.985C73.9097 153.221 73.4392 153.339 72.9296 153.339C72.42 153.339 71.8711 153.182 71.2439 152.946C70.7343 152.75 70.1854 152.475 69.6366 152.161C69.0877 151.847 68.6173 151.611 68.2645 151.376C67.9509 151.18 67.6373 150.983 67.3629 150.787L65.2459 154.909C65.9908 155.341 66.8924 155.773 67.8725 156.205C68.1469 156.322 68.3037 156.676 68.1861 156.951L66.7356 160.562Z" fill="#202D37"/>
<path d="M468.965 178.606C469.435 179.352 469.631 180.059 469.592 180.726C469.553 181.394 469.239 182.061 468.69 182.689L469.906 184.652C469.945 184.691 469.945 184.77 469.945 184.848C469.945 184.927 469.906 184.966 469.827 185.005L467.24 186.615C467.201 186.654 467.122 186.654 467.044 186.654C466.965 186.654 466.926 186.615 466.887 186.536L465.828 184.809C465.319 185.084 464.888 185.319 464.456 185.516C464.417 185.555 464.339 185.555 464.3 185.516C464.221 185.476 464.182 185.437 464.143 185.398L463.084 183.199C463.045 183.121 463.045 183.082 463.084 183.003C463.123 182.925 463.163 182.885 463.241 182.885C463.437 182.807 463.594 182.768 463.79 182.689C463.986 182.611 464.221 182.493 464.496 182.375C464.77 182.257 465.044 182.1 465.28 181.982C465.515 181.825 465.711 181.668 465.868 181.511C465.985 181.354 466.064 181.158 466.064 181.04C466.064 180.883 466.064 180.765 466.024 180.687C465.985 180.569 465.985 180.491 465.946 180.451C465.907 180.373 465.828 180.294 465.75 180.255C465.672 180.177 465.554 180.098 465.397 180.02C465.24 179.941 465.005 179.902 464.731 179.902C464.456 179.902 464.143 179.98 463.829 180.059C463.437 180.177 463.045 180.255 462.614 180.255C462.183 180.255 461.751 180.216 461.32 180.098C460.889 179.98 460.458 179.784 460.066 179.431C459.634 179.117 459.282 178.724 459.007 178.214C458.576 177.546 458.419 176.84 458.458 176.172C458.537 175.505 458.811 174.838 459.321 174.209L458.106 172.207C458.066 172.168 458.066 172.089 458.066 172.011C458.066 171.932 458.106 171.893 458.184 171.854L460.771 170.244C460.811 170.205 460.889 170.205 460.967 170.205C461.046 170.205 461.085 170.244 461.124 170.323L462.183 172.05C462.653 171.775 463.124 171.54 463.594 171.304C463.633 171.265 463.712 171.265 463.79 171.304C463.868 171.304 463.908 171.344 463.947 171.422L465.005 173.621C465.044 173.699 465.044 173.738 465.005 173.817C464.966 173.895 464.927 173.935 464.888 173.935C464.064 174.209 463.359 174.523 462.771 174.877C462.535 175.034 462.339 175.191 462.222 175.348C462.104 175.505 462.026 175.701 462.026 175.858C462.026 176.015 462.026 176.133 462.026 176.212C462.065 176.29 462.065 176.408 462.104 176.447C462.143 176.526 462.222 176.565 462.3 176.643C462.379 176.722 462.496 176.8 462.653 176.84C462.81 176.918 463.045 176.957 463.319 176.957C463.594 176.957 463.908 176.879 464.221 176.8C464.613 176.683 465.005 176.604 465.436 176.604C465.868 176.604 466.299 176.643 466.73 176.761C467.161 176.879 467.593 177.114 467.985 177.429C468.337 177.743 468.69 178.135 468.965 178.606Z" fill="white"/>
<path d="M467.123 187.165C467.044 187.165 467.005 187.165 466.927 187.126C466.731 187.087 466.535 186.93 466.417 186.733L465.633 185.477C465.319 185.634 465.006 185.791 464.692 185.948C464.496 186.027 464.3 186.027 464.104 185.987C463.908 185.909 463.751 185.791 463.634 185.634C463.634 185.634 463.634 185.595 463.595 185.595L462.536 183.396C462.418 183.161 462.418 182.925 462.497 182.729C462.575 182.494 462.771 182.336 463.007 182.258C463.163 182.219 463.359 182.14 463.516 182.062C463.712 181.983 463.908 181.905 464.183 181.748C464.457 181.63 464.692 181.512 464.888 181.355C465.084 181.237 465.241 181.119 465.319 181.002C465.398 180.884 465.398 180.845 465.398 180.845C465.398 180.727 465.398 180.648 465.398 180.648C465.398 180.609 465.359 180.57 465.359 180.57C465.359 180.57 465.359 180.531 465.28 180.491C465.28 180.491 465.202 180.413 465.045 180.334C465.006 180.334 464.927 180.295 464.653 180.295C464.418 180.295 464.183 180.334 463.908 180.452C463.477 180.609 463.007 180.688 462.536 180.688C462.066 180.688 461.595 180.609 461.086 180.491C460.576 180.374 460.066 180.099 459.596 179.745C459.125 179.392 458.733 178.921 458.381 178.371C457.91 177.586 457.675 176.762 457.753 175.977C457.832 175.309 458.067 174.642 458.498 174.014L457.479 172.365C457.361 172.169 457.322 171.972 457.361 171.776C457.401 171.541 457.557 171.344 457.753 171.226L460.341 169.617C460.537 169.499 460.772 169.46 460.968 169.499C461.203 169.538 461.36 169.695 461.478 169.852L462.262 171.109C462.575 170.952 462.889 170.795 463.242 170.638C463.438 170.559 463.634 170.559 463.83 170.598C464.065 170.677 464.261 170.834 464.339 171.03L465.398 173.229C465.515 173.425 465.515 173.66 465.437 173.896C465.359 174.132 465.163 174.328 464.927 174.406C464.183 174.681 463.516 174.995 462.967 175.309C462.771 175.427 462.654 175.506 462.575 175.623C462.497 175.702 462.497 175.78 462.497 175.78C462.497 175.937 462.497 175.977 462.497 176.016C462.497 176.055 462.497 176.055 462.536 176.094C462.536 176.094 462.536 176.134 462.575 176.134C462.575 176.134 462.654 176.173 462.811 176.251C462.85 176.251 462.967 176.291 463.203 176.291C463.438 176.291 463.673 176.251 463.947 176.134C464.379 176.016 464.849 175.937 465.319 175.898C465.79 175.898 466.3 175.937 466.77 176.094C467.28 176.251 467.789 176.487 468.26 176.84C468.73 177.194 469.122 177.665 469.475 178.214C469.985 179.078 470.22 179.902 470.181 180.688C470.141 181.355 469.867 182.022 469.397 182.651L470.377 184.26C470.494 184.456 470.533 184.653 470.494 184.888C470.455 185.124 470.298 185.281 470.141 185.399L467.554 187.008C467.397 187.126 467.28 187.165 467.123 187.165ZM465.829 184.142C466.025 184.142 466.221 184.26 466.339 184.417L467.24 185.87L469.24 184.653L468.22 183.004C468.103 182.768 468.103 182.493 468.299 182.297C468.769 181.748 469.044 181.237 469.083 180.688C469.122 180.138 468.926 179.549 468.534 178.921C468.26 178.489 467.985 178.136 467.632 177.861C467.28 177.586 466.927 177.39 466.574 177.311C466.182 177.194 465.829 177.154 465.476 177.154C465.123 177.154 464.771 177.233 464.418 177.311C464.026 177.429 463.673 177.508 463.32 177.508C462.967 177.508 462.654 177.468 462.419 177.351C462.222 177.233 462.026 177.154 461.909 177.037C461.791 176.919 461.674 176.801 461.595 176.683C461.517 176.566 461.438 176.409 461.438 176.251C461.399 176.094 461.399 175.937 461.399 175.741C461.399 175.466 461.517 175.192 461.713 174.917C461.909 174.681 462.144 174.485 462.458 174.289C462.967 173.975 463.595 173.7 464.3 173.425L463.555 171.894C463.203 172.051 462.811 172.247 462.458 172.443C462.183 172.6 461.83 172.522 461.674 172.247L460.772 170.795L458.773 172.012L459.831 173.739C459.949 173.935 459.949 174.21 459.792 174.406C459.361 174.956 459.126 175.506 459.047 176.055C459.008 176.605 459.125 177.154 459.518 177.743C459.792 178.175 460.106 178.528 460.458 178.803C460.811 179.078 461.164 179.274 461.517 179.353C461.909 179.471 462.262 179.51 462.654 179.51C463.007 179.51 463.359 179.471 463.673 179.353C464.065 179.235 464.418 179.157 464.771 179.157C465.123 179.157 465.437 179.196 465.672 179.314C465.868 179.431 466.025 179.51 466.143 179.628C466.26 179.745 466.378 179.863 466.456 179.981C466.535 180.099 466.574 180.256 466.613 180.413C466.652 180.57 466.652 180.727 466.652 180.923C466.652 181.198 466.535 181.473 466.339 181.748C466.143 181.983 465.908 182.179 465.594 182.376C465.359 182.533 465.084 182.651 464.771 182.808C464.457 182.925 464.222 183.043 464.026 183.122C463.947 183.161 463.869 183.161 463.83 183.2L464.575 184.77C464.888 184.613 465.241 184.417 465.594 184.221C465.633 184.182 465.751 184.142 465.829 184.142ZM464.614 173.307C464.614 173.346 464.614 173.346 464.614 173.307C464.614 173.346 464.614 173.346 464.614 173.307Z" fill="white"/>
<path d="M463.399 198.276C457.401 198.276 449.796 194.193 444.229 177.037C439.603 162.708 423.06 132.675 401.577 131.144C400.989 131.105 400.479 130.673 400.322 130.084C400.166 129.496 400.44 128.907 400.95 128.593C402.322 127.729 434.428 107.864 442.739 105.666C447.208 104.488 452.148 106.333 457.087 111.005C461.674 115.363 466.026 121.997 469.711 130.202C474.062 139.938 478.962 149.988 485.274 157.447C493.154 166.712 501.073 169.421 509.579 165.731C510.05 165.534 510.638 165.613 511.03 165.966C511.422 166.32 511.579 166.869 511.422 167.38C507.227 181.591 473.2 197.019 465.398 198.158C464.693 198.236 464.065 198.276 463.399 198.276ZM405.615 128.985C416.435 131.341 425.255 139.899 430.939 147.083C438.976 157.172 444.386 168.754 446.816 176.173C451.285 189.992 457.401 196.47 464.928 195.41C471.436 194.468 500.367 181.355 507.502 169.342C486.685 175.113 473.121 144.688 467.162 131.341C460.184 115.677 450.658 106.451 443.445 108.375C437.016 110.063 414.161 123.764 405.615 128.985Z" fill="white"/>
<path d="M436.427 124.745C435.918 124.745 435.447 124.47 435.212 123.999C434.859 123.332 435.134 122.507 435.8 122.154C435.839 122.115 441.563 119.131 448.815 115.48C449.482 115.127 450.305 115.401 450.658 116.069C451.011 116.736 450.736 117.561 450.07 117.914C442.857 121.604 437.133 124.549 437.094 124.588C436.859 124.706 436.623 124.745 436.427 124.745Z" fill="white"/>
<path d="M435.331 133.697C434.9 133.697 434.508 133.501 434.233 133.147C433.802 132.519 433.919 131.655 434.547 131.224C436.977 129.457 444.935 125.374 453.089 121.762C453.795 121.448 454.579 121.762 454.893 122.469C455.206 123.176 454.893 123.961 454.187 124.275C446.307 127.769 438.389 131.773 436.154 133.422C435.919 133.579 435.605 133.697 435.331 133.697Z" fill="white"/>
<path d="M445.68 142.136C445.21 142.136 444.778 141.901 444.504 141.469C444.112 140.841 444.308 139.977 444.935 139.584C445.014 139.545 452.305 135.03 457.754 132.165C458.421 131.811 459.244 132.086 459.597 132.753C459.95 133.421 459.675 134.245 459.009 134.599C453.677 137.386 446.425 141.861 446.347 141.901C446.19 142.058 445.915 142.136 445.68 142.136Z" fill="white"/>
<path d="M452.03 153.05C451.599 153.05 451.168 152.854 450.932 152.501C450.501 151.873 450.619 151.009 451.246 150.577C451.285 150.538 456.303 146.926 461.007 143.943C461.635 143.55 462.497 143.707 462.889 144.374C463.281 145.003 463.124 145.866 462.458 146.259C457.793 149.203 452.892 152.776 452.814 152.815C452.618 152.972 452.304 153.05 452.03 153.05Z" fill="white"/>
<path d="M528.259 398.369C527.514 398.369 526.887 397.78 526.887 397.034C526.887 396.956 526.887 396.76 526.848 396.524C526.024 386.67 526.965 384.236 528.651 383.569C530.846 382.705 538.687 382.509 540.255 382.47C540.255 382.47 540.255 382.47 540.294 382.47C541.039 382.47 541.666 383.059 541.666 383.805C541.666 384.55 541.078 385.179 540.333 385.218C537.04 385.296 531.434 385.571 529.827 386.042C529.592 386.435 528.964 388.319 529.631 396.249C529.67 396.72 529.67 396.838 529.67 396.956C529.631 397.741 529.004 398.369 528.259 398.369Z" fill="#B0EC64"/>
<path d="M604.625 397.034C604.586 397.034 604.546 397.034 604.507 397.034C603.762 396.956 603.174 396.289 603.253 395.543C603.488 392.795 603.723 387.966 603.331 386.474C602.547 385.807 598.392 385.218 594.275 385.218C593.531 385.218 592.903 384.59 592.903 383.844C592.903 383.098 593.531 382.47 594.275 382.47C599.176 382.47 605.134 383.019 605.919 385.571C606.624 387.848 606.075 394.483 605.958 395.778C605.918 396.524 605.33 397.034 604.625 397.034Z" fill="#B0EC64"/>
<path d="M599.607 450.857C597.49 450.857 595.53 450.582 594.864 450.465C594.119 450.347 593.609 449.64 593.727 448.894C593.844 448.148 594.55 447.638 595.295 447.756C599.372 448.384 603.135 448.07 603.527 447.363C603.723 444.34 603.527 438.687 603.527 438.609C603.488 437.863 604.076 437.195 604.86 437.195C605.605 437.195 606.272 437.745 606.272 438.53C606.272 438.766 606.468 444.38 606.272 447.559C606.232 448.345 605.84 449.051 605.174 449.601C603.959 450.582 601.724 450.857 599.607 450.857Z" fill="#B0EC64"/>
<path d="M539.078 451.642C537.667 451.642 532.845 451.564 531.198 450.661C530.61 450.347 529.003 449.483 529.003 438.569C529.003 437.823 529.63 437.195 530.375 437.195C531.12 437.195 531.747 437.823 531.747 438.569C531.747 442.495 532.1 447.206 532.649 448.305C533.59 448.659 536.608 448.855 539.078 448.855C539.823 448.855 540.45 449.483 540.45 450.229C540.45 450.975 539.862 451.642 539.078 451.642Z" fill="#B0EC64"/>
<path d="M551.153 416.428C547.821 416.428 544.175 416.349 542.332 416.074C541.666 415.957 540.529 415.8 540.254 414.74C539.549 412.109 539.47 403.001 543.508 397.898C546.096 394.64 552.29 393.854 561.973 395.503C562.208 395.542 562.404 395.582 562.482 395.582C562.992 395.621 563.423 395.896 563.658 396.367C563.815 396.681 564.207 397.427 564.168 405.789C564.129 414.19 563.737 414.779 563.541 415.093C563.109 415.76 562.835 416.231 553.818 416.388C552.995 416.428 552.094 416.428 551.153 416.428ZM542.763 413.366C545.743 413.837 558.013 413.797 561.189 413.326C561.463 410.578 561.502 401.039 561.267 398.212C550.173 396.328 546.723 398.291 545.664 399.625C542.528 403.551 542.371 410.696 542.763 413.366ZM562.404 395.621H562.443H562.404Z" fill="white"/>
<path d="M554.72 410.893H552.407C551.035 410.893 549.898 409.754 549.898 408.38V406.731C549.898 405.357 551.035 404.219 552.407 404.219H554.72C556.092 404.219 557.229 405.357 557.229 406.731V408.38C557.229 409.793 556.092 410.893 554.72 410.893Z" fill="white"/>
<path d="M554.721 411.481H552.408C550.683 411.481 549.311 410.107 549.311 408.38V406.731C549.311 405.004 550.683 403.63 552.408 403.63H554.721C556.445 403.63 557.818 405.004 557.818 406.731V408.38C557.818 410.107 556.406 411.481 554.721 411.481ZM552.408 404.847C551.349 404.847 550.487 405.711 550.487 406.771V408.419C550.487 409.479 551.349 410.343 552.408 410.343H554.721C555.779 410.343 556.641 409.479 556.641 408.419V406.771C556.641 405.711 555.779 404.847 554.721 404.847H552.408Z" fill="white"/>
<path d="M554.72 435.86H552.407C551.035 435.86 549.898 434.722 549.898 433.348V431.699C549.898 430.325 551.035 429.187 552.407 429.187H554.72C556.092 429.187 557.229 430.325 557.229 431.699V433.348C557.229 434.722 556.092 435.86 554.72 435.86Z" fill="white"/>
<path d="M554.721 436.449H552.408C550.683 436.449 549.311 435.075 549.311 433.348V431.699C549.311 429.972 550.683 428.598 552.408 428.598H554.721C556.445 428.598 557.818 429.972 557.818 431.699V433.348C557.818 435.075 556.406 436.449 554.721 436.449ZM552.408 429.775C551.349 429.775 550.487 430.639 550.487 431.699V433.348C550.487 434.408 551.349 435.272 552.408 435.272H554.721C555.779 435.272 556.641 434.408 556.641 433.348V431.699C556.641 430.639 555.779 429.775 554.721 429.775H552.408Z" fill="white"/>
<path d="M581.26 409.676H578.947C577.575 409.676 576.438 408.537 576.438 407.163V405.514C576.438 404.14 577.575 403.002 578.947 403.002H581.26C582.632 403.002 583.769 404.14 583.769 405.514V407.163C583.769 408.537 582.632 409.676 581.26 409.676Z" fill="white"/>
<path d="M581.26 410.265H578.948C577.223 410.265 575.851 408.891 575.851 407.163V405.514C575.851 403.787 577.223 402.413 578.948 402.413H581.26C582.985 402.413 584.357 403.787 584.357 405.514V407.163C584.357 408.851 582.946 410.265 581.26 410.265ZM578.948 403.591C577.889 403.591 577.027 404.454 577.027 405.514V407.163C577.027 408.223 577.889 409.087 578.948 409.087H581.26C582.319 409.087 583.181 408.223 583.181 407.163V405.514C583.181 404.454 582.319 403.591 581.26 403.591H578.948Z" fill="white"/>
<path d="M581.26 435.86H578.947C577.575 435.86 576.438 434.722 576.438 433.348V431.699C576.438 430.325 577.575 429.187 578.947 429.187H581.26C582.632 429.187 583.769 430.325 583.769 431.699V433.348C583.769 434.722 582.632 435.86 581.26 435.86Z" fill="white"/>
<path d="M581.26 436.449H578.948C577.223 436.449 575.851 435.075 575.851 433.348V431.699C575.851 429.972 577.223 428.598 578.948 428.598H581.26C582.985 428.598 584.357 429.972 584.357 431.699V433.348C584.357 435.075 582.946 436.449 581.26 436.449ZM578.948 429.775C577.889 429.775 577.027 430.639 577.027 431.699V433.348C577.027 434.408 577.889 435.272 578.948 435.272H581.26C582.319 435.272 583.181 434.408 583.181 433.348V431.699C583.181 430.639 582.319 429.775 581.26 429.775H578.948Z" fill="white"/>
<path d="M580.124 416.938C576.792 416.938 573.146 416.781 571.421 416.388C569.853 416.035 569.539 415.171 569.578 414.543C569.578 414.229 569.618 413.248 569.618 411.992C569.853 395.935 570.206 395.582 570.872 394.993C572.283 393.737 581.378 393.58 586.671 396.21C590.003 397.859 591.453 402.609 592.12 406.338C592.708 409.832 592.825 414.033 592.355 415.132C592.041 415.878 591.688 416.663 582.672 416.86C581.849 416.899 580.986 416.938 580.124 416.938ZM572.283 413.758C575.302 414.347 586.945 414.269 589.807 413.64C590.003 410.971 589.336 400.646 585.416 398.683C581.3 396.642 574.792 396.72 572.871 397.074C572.519 399.507 572.362 408.812 572.322 412.031C572.322 412.737 572.323 413.326 572.283 413.758Z" fill="white"/>
<path d="M558.366 447.874C553.348 447.874 544.567 446.892 541.744 440.376C539.196 434.487 540.49 424.633 541.352 423.338C541.744 422.709 542.176 422.042 548.997 421.846C552.447 421.767 556.524 421.846 559.346 422.081C562.443 422.317 563.384 422.631 563.737 423.534C564.168 424.515 564.05 431.111 563.972 434.958C563.698 445.44 563.188 446.539 562.992 446.892C562.718 447.481 562.247 447.678 562.012 447.717C561.973 447.717 560.522 447.874 558.366 447.874ZM543.626 425.026C543.156 426.949 542.254 434.683 544.253 439.276C546.841 445.244 557.504 445.361 560.64 445.087C561.149 441.789 561.463 428.323 561.228 425.026C558.288 424.515 546.213 424.319 543.626 425.026Z" fill="white"/>
<path d="M571.185 430.561H571.146C570.401 430.522 569.774 429.894 569.813 429.148C569.852 427.852 569.852 426.753 569.852 425.811C569.852 423.18 569.852 422.199 570.558 421.492C571.068 420.982 571.185 420.864 584.475 421.1C585.22 421.1 585.847 421.728 585.808 422.513C585.808 423.259 585.181 423.848 584.436 423.848C584.436 423.848 584.436 423.848 584.397 423.848C579.771 423.769 574.596 423.73 572.597 423.769C572.557 424.319 572.557 425.065 572.557 425.811C572.557 426.753 572.557 427.891 572.518 429.226C572.518 429.972 571.93 430.561 571.185 430.561Z" fill="white"/>
<path d="M583.142 446.421C582.593 446.421 582.083 446.107 581.887 445.597C581.574 444.89 581.926 444.105 582.593 443.791C586.435 442.142 591.217 440.1 590.394 421.963C590.355 421.217 590.943 420.55 591.688 420.511C592.433 420.471 593.099 421.06 593.138 421.806C594.001 440.297 589.14 443.948 583.691 446.303C583.495 446.382 583.338 446.421 583.142 446.421Z" fill="white"/>
<path d="M573.812 447.285C571.382 447.285 570.362 447.049 569.931 446.107C569.657 445.518 569.617 444.537 569.578 439.708C569.578 438.688 569.539 437.549 569.539 436.371C569.539 435.625 570.127 434.997 570.872 434.958C571.617 434.958 572.244 435.547 572.283 436.293C572.283 437.47 572.322 438.609 572.322 439.669C572.362 441.553 572.362 443.477 572.44 444.498C573.42 444.576 575.263 444.537 576.164 444.498C576.674 444.498 577.105 444.458 577.419 444.458C578.164 444.458 578.791 445.087 578.791 445.832C578.791 446.578 578.164 447.206 577.419 447.206C577.144 447.206 576.752 447.206 576.243 447.246C575.302 447.285 574.479 447.285 573.812 447.285Z" fill="white"/>
<path d="M509.754 377.314C506.696 392.272 501.247 406.601 493.837 419.988C444.286 509.614 308.488 558.058 239.649 484.528C229.77 473.968 221.263 463.015 214.05 451.787C190.45 414.963 181.002 375.312 183.942 337.742C186.334 307.2 196.918 278.07 214.716 252.984C221.773 243.013 230.005 233.669 239.335 225.15C367.527 107.612 533.158 262.21 509.754 377.314Z" fill="#B0EC64"/>
<path d="M493.84 419.988C444.288 509.614 308.491 558.058 239.651 484.528C229.772 473.967 221.266 463.014 214.052 451.787C213.896 449.431 213.778 446.997 213.66 444.485C212.406 420.891 212.327 408.564 237.809 406.797C244.042 406.365 253.804 405.541 265.604 404.52C267.72 401.065 274.777 389.288 280.422 377.118C274.816 376.411 215.62 368.56 195.862 351.286C191.864 347.792 187.826 343.081 183.945 337.703C167.637 315.247 153.367 281.289 151.368 276.146C149.251 270.729 149.055 266.45 150.27 258.441C149.368 259.501 141.332 248.94 142.508 245.211C144.468 239.126 163.599 226.367 174.262 225.111C176.144 224.875 181.475 234.179 180.26 234.415C186.924 235.279 200.214 238.498 203.232 241.992C204.565 243.523 209.309 247.763 214.68 252.984C223.382 261.385 233.693 272.338 233.85 278.462C234.124 288.395 235.614 288.277 238.671 288.552C241.768 288.827 244.317 290.318 244.042 293.93C243.768 297.581 244.317 300.408 250.511 299.426C256.705 298.484 260.86 299.544 262.075 304.687C263.291 309.79 280.226 309.947 286.655 310.065C293.084 310.183 325.779 312.735 329.621 315.051C331.934 292.988 340.755 258.048 340.755 258.048C340.755 258.048 313.862 249.097 314.254 244.779C314.489 242.345 336.011 233.983 350.046 228.801C350.242 228.723 358.709 229.743 363.257 227.859C363.257 227.859 355.769 248.352 379.8 256.674C379.8 256.674 380.114 260.679 381.839 260.914C383.015 261.071 384.779 260.129 385.563 256.399C385.916 254.711 386.073 252.434 385.916 249.451C385.916 249.451 386.073 249.451 386.386 249.451H386.425C390.385 249.49 394.109 249.883 397.206 250.55C401.518 251.492 404.537 253.063 405.164 255.143C406.144 258.323 403.753 262.053 394.148 263.505C390.542 274.458 391.09 284.037 394.54 284.547C398.343 285.136 399.793 283.88 401.636 282.545C403.478 281.211 404.929 288.002 397.206 293.145C391.169 297.149 383.603 298.68 377.683 294.755C376.194 305.393 374.586 317.367 373.371 328.281C376.115 328.32 416.415 354.034 427.314 359.805C434.37 363.574 448.483 372.211 459.185 384.577C482.471 383.281 489.253 385.048 491.762 403.224C492.35 406.679 493.056 412.568 493.84 419.988Z" fill="#F9DEC4"/>
<path d="M347.612 248.116C346.789 247.763 346.436 246.781 346.789 245.996L348.474 242.227C348.827 241.403 349.807 241.05 350.591 241.403C351.414 241.756 351.767 242.738 351.414 243.523L349.729 247.292C349.415 248.116 348.435 248.509 347.612 248.116Z" fill="#202D37"/>
<path d="M357.491 252.592C356.667 252.238 356.315 251.257 356.667 250.472L358.353 246.703C358.706 245.879 359.686 245.525 360.47 245.879C361.293 246.232 361.646 247.213 361.293 247.999L359.608 251.767C359.255 252.592 358.314 252.945 357.491 252.592Z" fill="#202D37"/>
<path d="M329.699 316.385C329.66 316.385 329.62 316.385 329.542 316.385C328.797 316.307 328.248 315.64 328.327 314.894C330.365 295.304 337.618 265.35 339.186 258.951C336.951 258.166 331.894 256.399 326.876 254.319C314.331 249.097 312.763 246.585 312.92 244.661C313.038 243.366 313.195 241.56 337.735 232.02C349.496 227.427 361.374 223.226 361.492 223.187C362.198 222.951 362.982 223.305 363.256 224.011C363.491 224.718 363.138 225.503 362.433 225.778C341.224 233.276 318.408 242.345 315.743 245.014C316.096 245.643 318.095 247.723 328.483 252.002C334.834 254.633 341.146 256.713 341.224 256.753C341.891 256.988 342.283 257.695 342.126 258.401C342.048 258.755 333.305 293.459 331.032 315.208C330.992 315.875 330.404 316.385 329.699 316.385Z" fill="#827868"/>
<path d="M358.669 273.555C357.924 273.555 357.297 272.927 357.297 272.181C357.297 271.435 357.924 270.807 358.669 270.807C365.373 270.807 369.293 267.823 369.646 262.406C369.685 261.66 370.351 261.071 371.096 261.11C371.841 261.15 372.429 261.817 372.39 262.563C371.919 269.433 366.784 273.555 358.669 273.555Z" fill="#202D37"/>
<path d="M373.489 329.694C373.45 329.694 373.371 329.694 373.332 329.694C372.587 329.616 372.038 328.948 372.117 328.163C373.136 318.741 374.587 307.435 376.429 294.558C378.82 277.678 381.016 264.055 381.016 263.898C381.133 263.231 381.721 262.72 382.388 262.759C386.896 262.838 390.816 262.642 394.031 262.131C400.735 261.071 402.93 259.069 403.636 257.97C404.106 257.224 404.224 256.4 403.949 255.536C403.087 252.67 393.6 250.158 380.898 250.982C380.153 251.021 379.487 250.472 379.448 249.687C379.409 248.941 379.957 248.273 380.741 248.234C392.032 247.527 404.929 249.255 406.615 254.751C407.125 256.4 406.889 258.009 405.988 259.462C404.302 262.131 400.46 263.976 394.501 264.879C391.404 265.35 387.759 265.586 383.564 265.547C382.976 269.198 381.133 280.975 379.173 294.99C377.37 307.828 375.92 319.095 374.9 328.477C374.783 329.184 374.195 329.694 373.489 329.694Z" fill="#827868"/>
<path d="M383.365 258.009C382.698 258.009 382.11 257.499 381.992 256.832C381.875 256.086 382.424 255.379 383.169 255.301C388.696 254.555 394.89 254.829 395.164 254.869C395.909 254.908 396.497 255.536 396.458 256.321C396.419 257.067 395.753 257.656 395.008 257.617C394.929 257.617 388.814 257.303 383.521 258.049C383.482 258.009 383.443 258.009 383.365 258.009Z" fill="#202D37"/>
<path d="M381.288 227.113C381.288 227.113 390.971 222.638 398.184 230.686C406.573 240.147 397.518 250.197 397.322 250.511C391.99 249.451 386.031 249.412 386.031 249.412C386.619 258.991 382.699 260.483 381.013 260.247C379.289 260.012 379.916 256.635 379.916 256.635C355.885 248.313 363.372 227.82 363.372 227.82C358.825 229.704 350.357 228.684 350.161 228.762C352.905 214.708 375.094 216.396 381.288 227.113Z" fill="#202D37"/>
<path d="M381.327 261.66C381.131 261.66 380.974 261.66 380.778 261.621C380.073 261.503 379.485 261.15 379.093 260.6C378.465 259.737 378.387 258.52 378.426 257.617C370.899 254.79 365.685 250.472 362.98 244.74C360.197 238.891 360.746 233.041 361.412 229.861C357.453 230.686 352.592 230.333 350.749 230.215C350.514 230.215 350.318 230.176 350.24 230.176C349.887 230.215 349.534 230.097 349.26 229.861C348.868 229.547 348.711 229.037 348.789 228.566C349.965 222.717 354.356 218.712 360.863 217.613C368.978 216.239 377.76 219.615 381.837 225.465C384.777 224.522 392.931 222.756 399.203 229.822C407.279 238.93 400.693 248.548 398.459 251.296L398.38 251.375C398.067 251.807 397.518 252.003 397.008 251.924C393.401 251.218 389.481 250.982 387.404 250.865C387.482 255.34 386.541 258.52 384.581 260.326C383.679 261.15 382.464 261.66 381.327 261.66ZM381.288 258.912C381.523 258.912 382.111 258.873 382.778 258.284C383.64 257.499 385.012 255.301 384.659 249.53C384.62 249.137 384.777 248.784 385.051 248.509C385.326 248.234 385.679 248.077 386.071 248.077C386.306 248.077 391.598 248.156 396.773 249.059C399.243 245.8 403.32 238.537 397.204 231.628C390.775 224.405 381.994 228.33 381.915 228.37C381.288 228.684 380.504 228.409 380.151 227.82C376.976 222.363 368.743 219.066 361.373 220.283C358.511 220.754 353.689 222.324 351.925 227.506C354.552 227.663 359.766 227.82 362.863 226.564C363.372 226.368 363.96 226.485 364.353 226.839C364.745 227.231 364.862 227.781 364.705 228.291C364.666 228.37 361.961 236.064 365.529 243.563C368.038 248.823 373.055 252.788 380.426 255.34C381.053 255.575 381.445 256.204 381.327 256.91C381.131 257.656 381.131 258.559 381.288 258.912Z" fill="#202D37"/>
<path d="M397.324 293.145C391.286 297.149 383.72 298.68 377.801 294.754C380.231 277.677 382.387 264.133 382.387 264.133C387.209 264.212 391.13 263.976 394.266 263.466C390.659 274.419 391.208 283.998 394.658 284.508C398.46 285.097 399.911 283.841 401.754 282.506C403.596 281.25 405.007 288.002 397.324 293.145Z" fill="#202D37"/>
<path d="M385.641 298.445C382.544 298.445 379.604 297.62 377.056 295.932C376.625 295.658 376.39 295.108 376.468 294.598C378.859 277.717 381.055 264.094 381.055 263.937C381.172 263.27 381.76 262.759 382.427 262.799C386.935 262.877 390.855 262.681 394.07 262.171C394.54 262.092 395.011 262.288 395.324 262.642C395.638 262.995 395.716 263.505 395.599 263.976C392.698 272.809 392.698 280.19 394.188 282.624C394.423 282.977 394.658 283.213 394.893 283.252C397.873 283.723 399.049 282.899 400.617 281.76L401.009 281.485C401.675 281.014 402.42 280.936 403.126 281.25C403.988 281.642 404.537 282.663 404.655 283.998C404.851 286.628 403.243 290.947 398.147 294.362C393.952 297.071 389.64 298.445 385.641 298.445ZM379.291 294.087C384.113 296.835 390.503 296.089 396.579 292.046C400.617 289.376 401.558 286.471 401.754 285.372C401.832 284.901 401.871 284.508 401.832 284.234C400.146 285.451 398.304 286.55 394.423 285.961C393.678 285.843 392.659 285.411 391.796 284.076C389.758 280.779 389.993 273.202 392.306 265.193C389.718 265.468 386.778 265.625 383.525 265.586C382.976 269.119 381.212 280.465 379.291 294.087Z" fill="#202D37"/>
<path d="M407.829 515.816C407.006 515.816 406.221 515.738 405.516 515.62C404.771 515.502 404.261 514.795 404.379 514.05C404.497 513.304 405.202 512.793 405.947 512.911C410.769 513.657 421.197 511.93 437.231 491.633C467.573 453.239 476.315 431.333 470.553 407.896C464.359 382.692 435.466 365.654 426.764 361.022C422.177 358.588 412.69 352.817 402.615 346.653C390.54 339.312 375.565 330.204 373.409 329.655C372.978 329.694 372.115 330.047 371.175 330.479C367.45 332.089 360.472 335.112 347.967 332.01C336.088 329.105 333.109 323.216 331.149 319.291C330.404 317.799 329.816 316.66 328.993 316.15C325.7 314.148 294.22 311.518 286.732 311.36H285.948C273.639 311.125 262.074 310.183 260.82 304.922C260.153 302.056 258.468 299.544 250.823 300.722C247.726 301.193 245.648 300.839 244.276 299.583C242.708 298.131 242.63 295.814 242.787 293.734C242.865 292.87 243.061 290.2 238.67 289.808L238.435 289.769C234.123 289.415 232.829 287.845 232.594 278.384C232.398 271.2 215.58 255.418 207.504 247.841C204.956 245.446 203.114 243.719 202.29 242.777C199.821 239.911 187.55 236.652 180.18 235.671C179.435 235.553 178.887 234.886 179.004 234.14C179.122 233.394 179.788 232.844 180.533 232.962C186.492 233.747 200.801 236.888 204.368 241.01C205.074 241.835 206.995 243.64 209.386 245.878C221.813 257.538 235.142 270.65 235.338 278.344C235.456 282.663 235.809 285.175 236.436 286.235C236.789 286.824 237.141 286.942 238.67 287.06L238.906 287.099C243.335 287.492 245.805 290.043 245.531 293.969C245.374 295.971 245.57 297.071 246.158 297.581C246.824 298.209 248.275 298.327 250.431 298.013C253.214 297.581 261.643 296.325 263.525 304.294C263.642 304.844 264.662 306.649 272.149 307.709C277.01 308.416 282.655 308.534 286.066 308.573H286.85C291.554 308.652 326.013 311.046 330.482 313.755C331.972 314.658 332.756 316.189 333.658 317.995C335.5 321.646 338.048 326.671 348.672 329.262C360.315 332.128 366.47 329.458 370.155 327.849C371.566 327.26 372.586 326.789 373.566 326.828C375.291 326.867 382.308 330.989 404.105 344.219C414.14 350.344 423.627 356.115 428.136 358.509C437.113 363.26 466.828 380.847 473.297 407.15C479.295 431.529 470.435 454.063 439.465 493.243C425.078 511.459 414.611 515.816 407.829 515.816Z" fill="#827868"/>
<path d="M383.839 485.902C383.251 485.902 382.702 485.509 382.506 484.92C379.801 475.42 380.389 473.221 382.898 468.785C383.878 467.097 387.328 462.975 391.757 457.714C399.206 448.842 410.457 435.494 411.907 430.587C414.024 423.442 411.163 413.235 376.429 387.246C375.841 386.775 375.684 385.951 376.155 385.323C376.625 384.734 377.449 384.577 378.076 385.048C412.143 410.526 417.278 421.99 414.534 431.333C412.927 436.751 402.381 449.352 393.874 459.442C389.719 464.388 386.152 468.628 385.328 470.081C383.172 473.849 382.702 475.302 385.211 484.096C385.407 484.842 385.015 485.588 384.27 485.784C384.074 485.902 383.956 485.902 383.839 485.902Z" fill="#827868"/>
<path d="M280.46 378.492C280.421 378.492 280.342 378.492 280.303 378.492C273.678 377.667 214.953 369.737 195.038 352.346C172.81 332.913 150.386 277.245 150.19 276.696C147.995 271.082 147.72 266.488 149.093 257.852C149.21 257.106 149.916 256.595 150.661 256.713C151.406 256.831 151.915 257.538 151.798 258.284C150.504 266.449 150.7 270.532 152.738 275.714C152.934 276.264 175.084 331.264 196.841 350.304C216.129 367.185 274.109 374.958 280.656 375.783C281.401 375.861 281.95 376.568 281.832 377.314C281.754 377.981 281.126 378.492 280.46 378.492Z" fill="#827868"/>
<path d="M265.641 405.894C265.406 405.894 265.132 405.815 264.936 405.698C264.308 405.305 264.073 404.441 264.465 403.813C267.444 398.945 282.381 373.938 286.066 358.352C286.222 357.607 286.967 357.135 287.712 357.332C288.457 357.489 288.888 358.235 288.731 358.981C284.968 374.998 269.797 400.359 266.817 405.266C266.543 405.658 266.072 405.894 265.641 405.894Z" fill="#827868"/>
<path d="M397.243 522.098C396.341 522.098 394.459 522.099 384.267 509.811C381.052 505.924 374.623 497.798 374.309 496.581C373.212 492.38 380.621 485.51 382.934 483.508C383.248 483.233 383.64 483.115 384.032 483.194C384.424 483.233 384.776 483.469 384.972 483.783C389.834 491.163 403.202 510.871 406.534 513.344C406.847 513.58 407.043 513.894 407.083 514.286C407.122 514.679 407.004 515.032 406.769 515.307C405.828 516.445 400.967 522.098 397.243 522.098ZM376.936 495.756C377.485 496.738 381.562 502.195 386.345 508.005C394.695 518.094 396.929 519.233 397.282 519.35C398.889 519.272 401.751 516.759 403.79 514.561C398.929 509.536 387.129 492.027 383.561 486.649C379.955 489.985 376.701 494.147 376.936 495.756Z" fill="white"/>
<path d="M350.124 553.191C349.105 553.191 348.282 552.877 347.733 552.248C346.949 551.385 346.792 550.129 347.341 548.44C345.302 549.618 343.185 550.443 341.813 549.932C340.99 549.618 340.48 548.951 340.284 548.009C339.696 544.632 343.028 540.903 346.596 536.977C348.909 534.386 351.3 531.717 352.123 529.597C353.378 526.22 353.691 523.708 353.691 522.452C353.613 522.491 353.535 522.53 353.456 522.53C348.556 524.415 343.107 526.338 340.323 524.925C339.5 524.493 338.951 523.826 338.716 522.962C337.854 519.743 343.695 515.896 355.926 508.122C362.434 504 369.843 499.329 374.822 495.128C375.41 494.657 376.272 494.696 376.742 495.285C377.213 495.874 377.174 496.738 376.586 497.209C371.45 501.527 363.962 506.277 357.376 510.439C353.064 513.187 348.987 515.738 345.969 517.937C341.931 520.881 341.421 521.981 341.382 522.255C341.421 522.334 341.46 522.373 341.578 522.452C343.538 523.433 350.281 520.803 352.515 519.939C353.77 519.468 354.123 519.311 354.436 519.311C354.985 519.272 355.534 519.507 355.887 519.978C357.141 521.627 356.161 526.613 354.711 530.539C353.731 533.169 351.143 536.035 348.674 538.783C345.929 541.806 342.872 545.261 342.989 547.341C344.126 547.223 347.419 545.339 350.202 543.101C350.712 542.669 351.496 542.709 351.967 543.141C352.476 543.612 352.555 544.358 352.202 544.907C349.654 548.833 349.771 550.129 349.81 550.364C350.085 550.443 351.3 550.482 353.809 549.226C354.358 548.951 355.064 549.069 355.456 549.54C355.652 549.775 356.004 550.089 356.788 550.129C360.199 550.246 366.981 544.789 370.431 541.335C370.941 540.824 371.725 540.785 372.273 541.217C372.822 541.649 372.94 542.434 372.548 543.023C371.489 544.711 370.039 547.734 370.313 548.951V548.99C371.568 548.558 375.37 545.614 381.564 538.861C387.484 532.384 392.933 525.278 396.108 519.939C396.501 519.272 397.324 519.075 397.99 519.468C398.657 519.861 398.853 520.685 398.461 521.352C395.05 527.084 389.052 534.857 382.74 541.649C371.96 553.269 369.921 552.091 369.059 551.581C368.353 551.149 367.844 550.482 367.648 549.657C367.491 548.99 367.53 548.283 367.648 547.498C364.355 550.129 360.003 552.994 356.671 552.916C355.73 552.877 354.907 552.602 354.201 552.131C352.594 552.837 351.222 553.191 350.124 553.191Z" fill="white"/>
<path d="M351.025 545.574C350.633 545.574 350.241 545.417 349.967 545.103C349.457 544.514 349.536 543.651 350.124 543.179C355.69 538.39 361.414 531.952 362.394 530.107C362.747 529.439 363.57 529.164 364.237 529.557C364.903 529.91 365.177 530.735 364.785 531.402C363.531 533.718 357.494 540.431 351.849 545.26C351.653 545.496 351.339 545.574 351.025 545.574Z" fill="white"/>
<path d="M354.396 551.894C353.965 551.894 353.533 551.698 353.259 551.306C352.828 550.677 352.985 549.814 353.612 549.382C360.864 544.396 368.234 535.092 368.313 535.014C368.783 534.425 369.646 534.307 370.234 534.778C370.822 535.249 370.939 536.113 370.469 536.702C370.155 537.094 362.746 546.438 355.18 551.62C354.945 551.816 354.67 551.894 354.396 551.894Z" fill="white"/>
<path d="M371.331 543.729C371.018 543.729 370.704 543.611 370.43 543.375C369.842 542.865 369.802 542.001 370.312 541.452C371.135 540.47 372.076 539.332 372.507 538.743C372.782 538.39 373.644 537.29 374.703 538.076C375.134 538.39 375.565 539.175 374.977 540.038C374.938 540.117 374.859 540.195 374.781 540.235C374.742 540.274 374.703 540.313 374.663 540.392C374.193 540.981 373.291 542.198 372.39 543.218C372.115 543.572 371.723 543.729 371.331 543.729Z" fill="white"/>
<path d="M216.404 486.688C215.699 486.688 215.111 486.138 215.032 485.431C214.758 482.291 213.425 465.488 212.288 444.564C211.622 431.962 211.386 423.247 214.483 416.848C217.855 409.82 225.029 406.287 237.73 405.424C247.649 404.717 266.623 403.068 288.615 401.144C322.172 398.2 363.923 394.51 387.837 393.097C388.581 393.057 389.248 393.646 389.287 394.392C389.326 395.138 388.738 395.805 387.993 395.845C364.119 397.258 322.408 400.909 288.85 403.893C266.858 405.816 247.884 407.504 237.926 408.172C226.323 408.996 219.893 412.019 216.992 418.065C214.209 423.836 214.444 432.276 215.071 444.407C216.208 465.292 217.541 482.055 217.776 485.196C217.855 485.942 217.267 486.609 216.522 486.688C216.483 486.688 216.444 486.688 216.404 486.688Z" fill="white"/>
<path d="M219.263 543.416C213.461 543.416 210.012 542.002 208.522 539.176C203.308 529.047 204.092 500.703 206.052 491.831C208.13 482.409 215.539 483.665 220.949 484.568C221.38 484.646 221.772 484.725 222.204 484.764C227.535 485.628 252.546 481.231 262.072 478.836C267.639 477.423 272.539 476.441 275.95 478.758C278.302 480.328 279.674 483.233 280.341 487.866C281.36 495.285 282.301 507.259 283.046 522.413C283.399 529.989 278.733 531.56 265.209 534.151C261.955 534.779 257.564 535.917 252.507 537.252C244.079 539.451 234.513 541.924 226.398 543.023C223.654 543.259 221.302 543.416 219.263 543.416ZM208.718 492.38C206.679 501.645 206.444 529.126 210.952 537.88C211.893 539.686 215.265 541.57 225.967 540.157C233.925 539.097 243.412 536.663 251.762 534.465C256.898 533.13 261.328 531.992 264.66 531.324C279.086 528.576 280.498 527.202 280.262 522.452C279.518 507.377 278.616 495.521 277.597 488.14C277.087 484.411 276.028 482.055 274.421 480.956C272.187 479.425 268.58 479.935 262.739 481.427C253.958 483.665 227.849 488.376 221.772 487.434C221.341 487.355 220.91 487.277 220.518 487.237C214.089 486.177 210.129 485.981 208.718 492.38Z" fill="white"/>
<path d="M259.407 595C229.457 595 223.89 586.324 222.792 578.904C221.812 572.426 219.97 557.351 219.107 542.119C219.068 541.373 219.656 540.706 220.401 540.667C221.146 540.627 221.812 541.216 221.851 541.962C222.714 557.077 224.556 572.034 225.537 578.472C226.085 582.202 227.928 586.873 237.454 589.739C249.332 593.312 270.031 593.037 298.963 588.836C328.012 584.636 365.764 578.59 399.125 573.251C434.289 567.637 464.632 562.769 475.099 561.631C494.504 559.511 505.403 557.116 503.403 532.383C501.443 508.318 493.093 421.833 490.584 403.421C488.232 386.265 482.195 384.695 459.418 385.951C458.673 385.99 458.007 385.401 457.968 384.655C457.928 383.909 458.517 383.242 459.261 383.203C471.336 382.535 478.863 382.692 484.037 385.362C489.212 388.071 491.917 393.174 493.25 403.028C495.798 421.479 504.148 508.043 506.108 532.148C508.264 558.843 495.955 562.141 475.374 564.379C464.985 565.517 434.642 570.385 399.517 575.999C366.195 581.338 328.404 587.384 299.315 591.584C282.654 593.979 269.639 595 259.407 595Z" fill="white"/>
<path d="M259.056 518.8C253.411 518.8 248.824 514.207 248.824 508.554C248.824 502.901 253.411 498.308 259.056 498.308C264.701 498.308 269.288 502.901 269.288 508.554C269.288 514.207 264.701 518.8 259.056 518.8ZM259.056 501.056C254.94 501.056 251.568 504.432 251.568 508.554C251.568 512.676 254.94 516.052 259.056 516.052C263.172 516.052 266.544 512.676 266.544 508.554C266.544 504.432 263.172 501.056 259.056 501.056Z" fill="white"/>
<path d="M358.669 496.344C353.024 496.344 348.438 491.751 348.438 486.098C348.438 480.445 353.024 475.852 358.669 475.852C364.314 475.852 368.901 480.445 368.901 486.098C368.901 491.751 364.314 496.344 358.669 496.344ZM358.669 478.6C354.553 478.6 351.182 481.976 351.182 486.098C351.182 490.22 354.553 493.596 358.669 493.596C362.786 493.596 366.157 490.22 366.157 486.098C366.157 481.976 362.786 478.6 358.669 478.6Z" fill="white"/>
<path d="M344.045 476.873C343.889 476.873 343.693 476.834 343.536 476.755C342.83 476.48 342.477 475.656 342.791 474.949C344.359 471.063 348.71 468.04 354.434 466.823C359.962 465.645 367.645 466.116 372.663 470.945C373.212 471.455 373.212 472.358 372.702 472.869C372.193 473.418 371.291 473.418 370.781 472.908C367.292 469.532 361.098 468.197 355.022 469.492C350.2 470.513 346.594 472.947 345.339 475.97C345.104 476.559 344.594 476.873 344.045 476.873Z" fill="white"/>
<path d="M339.929 465.41C339.772 465.41 339.615 465.371 339.458 465.331C338.753 465.056 338.4 464.271 338.635 463.565C340.556 458.461 345.927 454.535 353.022 453.044C361.216 451.355 369.291 453.436 374.113 458.461C374.623 459.011 374.623 459.874 374.074 460.385C373.525 460.895 372.663 460.895 372.153 460.345C367.174 455.163 359.295 454.535 353.61 455.713C347.534 456.969 342.791 460.345 341.222 464.468C341.026 465.056 340.517 465.41 339.929 465.41Z" fill="white"/>
<path d="M331.501 455.792C331.305 455.792 331.109 455.752 330.952 455.674C330.247 455.36 329.933 454.535 330.247 453.868C332.677 448.372 339.185 444.093 348.044 442.13C359.688 439.578 371.723 441.855 378.662 447.979C379.25 448.49 379.289 449.353 378.779 449.903C378.27 450.492 377.407 450.531 376.858 450.021C370.547 444.485 359.452 442.405 348.633 444.799C340.753 446.527 334.794 450.335 332.756 454.967C332.52 455.478 332.011 455.792 331.501 455.792Z" fill="white"/>
<path d="M150.192 259.894C149.879 259.894 149.526 259.815 149.173 259.58C146.978 258.363 139.96 249.019 141.333 244.779C143.567 237.791 163.56 224.993 174.223 223.737C175.125 223.619 176.536 224.012 179.085 227.898C180.339 229.783 181.672 232.256 181.868 233.63C182.103 235.043 181.201 235.632 180.613 235.75C177.869 236.339 155.759 254.201 151.408 259.344C151.133 259.658 150.702 259.894 150.192 259.894ZM174.341 226.524C164.07 227.859 145.684 240.147 143.92 245.682C143.214 247.92 147.879 255.026 149.996 256.871C154.74 251.924 173.243 236.339 179.006 233.512C178.3 231.549 175.517 227.152 174.341 226.524Z" fill="#827868"/>
<path d="M140.273 236.103C140.038 236.103 139.802 236.024 139.567 235.907C135.765 233.708 133.452 228.565 133.648 222.794C133.765 219.575 134.628 216.788 136.157 214.668C130.276 215.061 120.985 214.943 119.692 210.114C118.006 203.833 129.296 200.731 140.234 197.709C140.939 197.512 141.645 197.316 142.311 197.12C139.881 188.875 136.627 179.885 135.176 178.865C134.667 178.472 133.804 178.001 132.824 177.412C128.669 174.9 121.691 170.738 120.828 165.242C120.28 161.67 121.26 158.686 123.455 157.233C125.18 156.134 127.336 156.174 129.139 157.351C130.041 157.94 132.236 159.196 134.824 160.688C145.526 166.852 150.779 170.032 151.759 171.602C153.131 173.8 171.008 219.811 173.007 225.071C173.281 225.778 172.928 226.563 172.223 226.838C171.517 227.113 170.733 226.759 170.459 226.053C162.579 205.717 150.465 174.782 149.446 173.054C148.466 171.72 138.352 165.87 133.491 163.083C130.786 161.513 128.63 160.296 127.65 159.667C126.748 159.079 125.729 159.039 124.945 159.55C123.69 160.374 123.141 162.337 123.533 164.81C124.2 169.05 130.472 172.819 134.236 175.057C135.255 175.685 136.157 176.195 136.784 176.666C139.763 178.825 144.075 193.351 145.33 197.748C145.448 198.101 145.369 198.494 145.212 198.808C145.016 199.122 144.742 199.357 144.389 199.475C143.291 199.789 142.155 200.103 140.939 200.417C133.138 202.576 121.338 205.796 122.318 209.447C123.102 212.43 133.373 212.47 140.038 211.567C140.704 211.488 141.331 211.881 141.527 212.509C141.723 213.137 141.41 213.844 140.822 214.158C138.195 215.453 136.509 218.751 136.353 222.912C136.196 227.584 137.999 231.863 140.9 233.551C141.566 233.944 141.763 234.768 141.41 235.435C141.214 235.867 140.743 236.103 140.273 236.103Z" fill="white"/>
<path d="M142.623 246.586C142.545 246.586 142.467 246.586 142.388 246.546C139.409 246.036 133.607 242.778 128.785 237.792C124.512 233.356 119.416 225.975 119.533 216.043C119.533 215.297 120.16 214.669 120.905 214.669C121.65 214.669 122.277 215.297 122.277 216.043C122.16 225.033 126.825 231.785 130.745 235.868C135.449 240.736 140.624 243.445 142.819 243.838C143.564 243.955 144.074 244.662 143.956 245.408C143.839 246.115 143.251 246.586 142.623 246.586Z" fill="white"/>
<path d="M131.998 202.97C131.489 202.97 131.018 202.695 130.744 202.185C127.804 196.139 125.961 188.327 129.489 184.44C131.018 182.791 134.076 181.339 140.231 183.733C140.937 184.008 141.289 184.793 141.015 185.5C140.741 186.207 139.957 186.56 139.251 186.285C136.663 185.264 133.214 184.44 131.528 186.285C129.45 188.562 130.117 194.608 133.214 200.968C133.527 201.635 133.253 202.459 132.586 202.813C132.39 202.931 132.194 202.97 131.998 202.97Z" fill="white"/>
<path d="M123.609 206.62C123.178 206.62 122.707 206.385 122.472 205.992C119.336 201.203 117.454 193.979 120.198 190.053C121.335 188.405 123.727 186.716 128.705 187.894C129.45 188.051 129.881 188.797 129.725 189.543C129.568 190.289 128.823 190.721 128.078 190.564C125.295 189.896 123.413 190.25 122.433 191.624C120.551 194.333 122.119 200.457 124.746 204.461C125.177 205.089 124.981 205.953 124.354 206.345C124.158 206.542 123.883 206.62 123.609 206.62Z" fill="white"/>
<path d="M125.377 218.673C122.869 218.673 119.732 217.417 116.322 214.944C111.5 211.45 109.148 204.54 111.304 200.143C112.049 198.652 114.401 195.393 120.595 197.238C121.34 197.435 121.732 198.22 121.536 198.966C121.3 199.712 120.556 200.104 119.811 199.908C117.694 199.28 114.91 199.005 113.734 201.4C112.323 204.266 113.852 209.84 117.89 212.745C122.437 216.043 125.534 216.357 126.789 215.611C127.416 215.258 127.69 214.512 127.573 213.491C127.494 212.745 128.043 212.078 128.788 211.999C129.533 211.921 130.199 212.47 130.278 213.216C130.474 215.336 129.69 217.064 128.122 218.006C127.416 218.438 126.475 218.673 125.377 218.673Z" fill="white"/>
<path d="M230.479 472.161C229.773 472.161 229.146 471.612 229.106 470.866C228.95 468.236 228.754 465.645 228.558 463.093L228.401 461.091C228.362 460.345 228.91 459.677 229.655 459.638C230.4 459.599 231.067 460.148 231.106 460.894L231.263 462.897C231.459 465.448 231.655 468.039 231.811 470.709C231.851 471.455 231.302 472.122 230.518 472.161C230.557 472.161 230.518 472.161 230.479 472.161ZM229.224 452.572C228.479 452.572 227.891 451.983 227.852 451.237C227.774 449.549 227.734 448.018 227.734 446.604C227.734 444.642 227.813 442.914 227.93 441.265C227.97 440.519 228.636 439.931 229.42 440.009C230.165 440.048 230.753 440.716 230.675 441.501C230.557 443.071 230.479 444.72 230.479 446.604C230.479 447.978 230.518 449.47 230.557 451.158C230.596 451.904 230.008 452.572 229.224 452.572C229.263 452.572 229.224 452.572 229.224 452.572ZM231.419 433.257C231.223 433.257 231.027 433.217 230.871 433.139C230.165 432.825 229.891 432 230.204 431.333C231.302 428.899 232.831 426.975 234.712 425.601C235.496 425.013 236.516 424.463 237.692 423.953C238.397 423.638 239.181 423.992 239.495 424.659C239.809 425.366 239.456 426.151 238.789 426.465C237.809 426.897 236.986 427.329 236.32 427.8C234.791 428.938 233.576 430.469 232.674 432.472C232.439 432.943 231.929 433.257 231.419 433.257ZM247.688 423.953C247.022 423.953 246.473 423.481 246.356 422.814C246.238 422.068 246.708 421.362 247.453 421.204C250.315 420.694 253.647 420.223 257.293 419.83C258.038 419.752 258.704 420.302 258.783 421.047C258.861 421.793 258.312 422.461 257.567 422.539C254 422.893 250.746 423.364 247.963 423.874C247.845 423.953 247.767 423.953 247.688 423.953ZM267.211 421.872C266.506 421.872 265.878 421.322 265.839 420.576C265.8 419.83 266.388 419.163 267.133 419.124C271.837 418.849 275.601 418.771 277.012 418.771C277.012 418.771 277.012 418.771 277.051 418.771C277.796 418.771 278.423 419.359 278.423 420.105C278.423 420.851 277.835 421.479 277.09 421.519C275.718 421.558 271.994 421.597 267.329 421.872C267.25 421.872 267.211 421.872 267.211 421.872Z" fill="white"/>
<path d="M440.524 551.188C439.818 551.188 439.23 550.678 439.152 549.971C439.074 549.225 439.622 548.519 440.367 548.44C443.66 548.048 446.914 547.655 450.089 547.223C450.834 547.105 451.54 547.655 451.618 548.401C451.736 549.147 451.187 549.854 450.442 549.932C447.267 550.364 443.974 550.756 440.681 551.149C440.642 551.149 440.602 551.188 440.524 551.188ZM460.008 548.597C459.341 548.597 458.753 548.126 458.636 547.42C458.518 546.674 459.028 545.967 459.773 545.849C463.379 545.3 466.633 544.75 469.416 544.2C470.161 544.043 470.867 544.554 471.024 545.3C471.18 546.046 470.671 546.752 469.926 546.909C467.103 547.459 463.85 548.008 460.204 548.558C460.165 548.597 460.086 548.597 460.008 548.597ZM479.256 544.671C478.668 544.671 478.158 544.318 477.962 543.729C477.727 543.023 478.119 542.237 478.825 542.002C479.335 541.845 479.805 541.649 480.197 541.492C482.549 540.51 484.078 538.94 485.019 536.545C485.293 535.838 486.077 535.485 486.783 535.76C487.489 536.035 487.841 536.82 487.567 537.527C486.352 540.667 484.313 542.787 481.255 544.043C480.785 544.24 480.275 544.436 479.687 544.632C479.53 544.632 479.374 544.671 479.256 544.671ZM487.567 528.733C486.822 528.733 486.195 528.144 486.195 527.359C486.156 524.768 485.96 521.588 485.568 517.701C485.489 516.955 486.038 516.288 486.783 516.209C487.528 516.131 488.194 516.681 488.273 517.426C488.665 521.391 488.9 524.65 488.9 527.359C488.939 528.105 488.351 528.733 487.567 528.733ZM485.764 509.182C485.097 509.182 484.509 508.672 484.392 508.005C484 505.06 483.568 501.88 483.098 498.504L483.059 498.308C482.941 497.562 483.49 496.855 484.235 496.777C484.98 496.659 485.685 497.209 485.764 497.954L485.803 498.151C486.273 501.527 486.705 504.707 487.097 507.69C487.214 508.436 486.665 509.143 485.921 509.221C485.881 509.182 485.842 509.182 485.764 509.182Z" fill="white"/>
<path d="M268.58 578.236C264.856 578.197 261.523 578.001 258.622 577.648C257.877 577.569 257.329 576.862 257.446 576.116C257.525 575.371 258.23 574.821 258.975 574.939C261.759 575.292 264.973 575.488 268.58 575.528C269.325 575.528 269.952 576.156 269.952 576.902C269.952 577.608 269.325 578.236 268.58 578.236ZM278.341 577.922C277.636 577.922 277.008 577.373 276.969 576.627C276.93 575.881 277.518 575.214 278.263 575.174C280.419 575.057 282.732 574.86 285.162 574.664C285.907 574.585 286.574 575.174 286.652 575.92C286.73 576.666 286.142 577.333 285.398 577.412C282.967 577.648 280.615 577.805 278.42 577.922C278.42 577.922 278.38 577.922 278.341 577.922ZM249.371 575.214C249.175 575.214 248.979 575.174 248.822 575.096C245.215 573.486 242.667 571.209 241.02 568.108C240.668 567.44 240.903 566.616 241.569 566.263C242.236 565.909 243.059 566.145 243.412 566.812C244.784 569.325 246.901 571.209 249.919 572.583C250.625 572.897 250.939 573.722 250.625 574.389C250.39 574.899 249.88 575.214 249.371 575.214ZM239.805 559.393C239.1 559.393 238.511 558.843 238.433 558.136C238.237 555.859 238.159 553.465 238.08 550.913C238.041 550.049 238.041 549.146 238.002 548.243C237.963 547.497 238.551 546.83 239.335 546.83C240.08 546.791 240.746 547.38 240.746 548.165C240.785 549.068 240.785 549.971 240.824 550.834C240.903 553.347 240.981 555.702 241.138 557.901C241.216 558.647 240.628 559.314 239.884 559.393C239.884 559.393 239.844 559.393 239.805 559.393Z" fill="white"/>
<path d="M46.343 419.36C37.9145 419.36 36.2287 416.808 35.0135 412.019C33.4846 405.934 32.3869 398.396 30.3484 379.749C30.3092 379.278 30.27 378.846 30.1916 378.414L29.9564 376.412C29.4859 372.054 29.0939 368.639 29.0155 365.891C28.7803 357.921 31.1716 355.213 39.6394 353.878C63.7489 350.07 96.2477 347.165 108.518 346.065C109.733 345.948 110.753 345.869 111.537 345.791C118.358 345.162 122.121 347.518 124.199 353.681C125.101 356.351 125.689 359.845 126.081 364.438L126.12 364.831C126.198 365.577 125.61 366.244 124.865 366.323C124.121 366.401 123.454 365.812 123.376 365.066L123.337 364.674C122.984 360.316 122.396 357.018 121.572 354.584C119.887 349.638 117.339 348.068 111.733 348.539C110.949 348.617 109.969 348.696 108.714 348.813C96.4829 349.913 64.0233 352.779 40.0314 356.587C32.8965 357.725 31.5245 359.256 31.7205 365.812C31.7989 368.442 32.1909 371.858 32.6613 376.137L32.8965 378.139C32.9357 378.571 33.0141 379.042 33.0533 379.474C35.0527 397.965 36.1503 405.424 37.64 411.352C38.8553 416.102 39.5218 418.732 65.4346 414.492C66.1794 414.374 66.885 414.885 67.0027 415.631C67.1203 416.377 66.6106 417.083 65.8658 417.201C56.9668 418.654 50.7337 419.36 46.343 419.36Z" fill="white"/>
<path d="M124.709 364.517C109.381 366.597 60.5349 373.193 31.4467 377.315C30.8978 372.486 30.4666 368.757 30.3882 365.812C51.4007 363.417 105.696 356.351 122.906 354.113C123.768 356.704 124.356 360.08 124.709 364.517Z" fill="white"/>
<path d="M31.4473 377.904C31.3297 377.904 31.1729 377.864 31.0945 377.786C30.9768 377.707 30.8985 377.55 30.8593 377.393L30.7416 376.333C30.2712 372.015 29.8792 368.56 29.8008 365.851C29.8008 365.537 30.036 365.302 30.3104 365.262C52.2246 362.75 111.224 355.055 122.789 353.564C123.063 353.524 123.338 353.681 123.416 353.956C124.279 356.547 124.906 360.002 125.259 364.517C125.298 364.831 125.063 365.105 124.749 365.145L124.396 365.184C108.558 367.343 60.3395 373.86 31.4865 377.943C31.5257 377.904 31.4865 377.904 31.4473 377.904ZM31.0161 366.362C31.1337 368.953 31.4865 372.172 31.9569 376.215L31.9961 376.687C60.8099 372.643 108.127 366.205 124.083 364.045C123.73 360.159 123.22 357.136 122.475 354.781C109.931 356.39 53.0478 363.81 31.0161 366.362Z" fill="white"/>
<path d="M45.5994 393.999C44.5017 393.999 43.6001 393.92 42.9336 393.802C42.5024 393.724 41.2087 393.41 40.7775 392.271C40.3855 391.172 39.7582 388.974 39.3662 387.011C38.6606 383.477 38.935 382.3 39.5622 381.632C41.4047 379.669 52.5382 378.413 56.5761 378.766C58.2618 378.923 59.1634 379.277 59.6339 380.023C60.8099 381.789 62.7309 388.777 60.4571 391.133C58.9282 392.625 50.5781 393.999 45.5994 393.999ZM43.2472 391.054C45.4426 391.918 56.9289 390.269 58.497 389.131C59.1634 388.306 58.4578 383.477 57.4385 381.632C56.6937 381.357 53.8711 381.24 49.4412 381.75C45.2074 382.26 42.4632 383.006 41.6791 383.399C41.5615 384.577 42.424 388.62 43.2472 391.054ZM40.5423 382.496L41.5223 383.438L40.5423 382.496Z" fill="white"/>
<path d="M67.2383 384.734C91.9751 375.077 124.474 365.733 133.334 363.299C142.193 360.826 147.29 357.764 151.798 368.953C156.267 380.141 162.775 399.063 165.323 404.677C167.871 410.291 170.145 415.081 155.718 420.106C141.292 425.131 109.812 435.102 96.797 440.677C83.7818 446.252 79.3519 448.057 72.2954 431.569C65.239 415.081 62.142 405.894 59.5154 397.847C56.8497 389.72 61.9068 386.815 67.2383 384.734Z" fill="#B0EC64"/>
<path d="M132.358 398.386C136.949 397.29 139.783 392.674 138.689 388.076C137.595 383.479 132.986 380.64 128.395 381.737C123.804 382.833 120.969 387.449 122.063 392.046C123.158 396.644 127.767 399.482 132.358 398.386Z" fill="#FFFEF2"/>
<path d="M130.393 400.006C124.944 400.006 120.475 395.57 120.475 390.074C120.475 384.617 124.904 380.142 130.393 380.142C135.881 380.142 140.311 384.578 140.311 390.074C140.311 395.57 135.842 400.006 130.393 400.006ZM130.393 382.89C126.433 382.89 123.219 386.109 123.219 390.074C123.219 394.039 126.433 397.258 130.393 397.258C134.352 397.258 137.567 394.039 137.567 390.074C137.567 386.109 134.352 382.89 130.393 382.89Z" fill="#202D37"/>
<path d="M142.272 396.669C142.155 396.669 142.037 396.669 141.919 396.669C136.47 396.472 132.158 391.879 132.354 386.422C132.55 380.965 137.137 376.647 142.586 376.843C148.035 377.04 152.347 381.633 152.151 387.09C151.994 392.429 147.565 396.669 142.272 396.669ZM135.098 386.462C135.02 388.385 135.726 390.191 137.019 391.604C138.313 393.018 140.116 393.803 141.998 393.881C143.919 393.96 145.722 393.253 147.133 391.958C148.545 390.662 149.329 388.856 149.407 386.972C149.525 383.007 146.428 379.67 142.468 379.552C138.548 379.395 135.216 382.536 135.098 386.462Z" fill="#202D37"/>
<path d="M139.999 409.191C139.45 409.191 138.901 408.838 138.705 408.249C138.47 407.543 138.823 406.757 139.567 406.483C146.624 404.049 152.269 402.164 152.308 402.164C153.014 401.929 153.798 402.321 154.033 403.028C154.268 403.735 153.876 404.52 153.171 404.755C153.132 404.755 147.486 406.64 140.469 409.074C140.312 409.152 140.156 409.191 139.999 409.191Z" fill="#202D37"/>
<path d="M121.845 415.63C121.297 415.63 120.787 415.316 120.591 414.766C120.316 414.059 120.63 413.274 121.336 412.96C123.296 412.136 125.138 411.39 126.785 410.683C128.98 409.78 131.45 408.799 134.077 407.739C134.782 407.464 135.566 407.817 135.841 408.524C136.115 409.231 135.762 410.016 135.057 410.291C132.43 411.311 129.999 412.332 127.804 413.235C126.158 413.902 124.315 414.687 122.355 415.512C122.198 415.59 122.002 415.63 121.845 415.63Z" fill="#202D37"/>
<path d="M103.228 423.56C102.679 423.56 102.208 423.246 101.973 422.736C101.66 422.029 101.973 421.244 102.679 420.93C106.521 419.242 110.872 417.397 115.263 415.552C115.968 415.238 116.752 415.591 117.066 416.298C117.38 417.004 117.027 417.79 116.321 418.104C111.931 419.949 107.618 421.833 103.776 423.482C103.58 423.521 103.384 423.56 103.228 423.56Z" fill="#202D37"/>
<path d="M87.9743 430.47C87.4646 430.47 86.9942 430.195 86.759 429.724C86.4062 429.057 86.6806 428.232 87.3862 427.879C89.66 426.74 93.5802 424.934 99.0293 422.54C99.735 422.226 100.519 422.54 100.833 423.246C101.146 423.953 100.833 424.738 100.127 425.052C94.7171 427.408 90.8752 429.214 88.6015 430.313C88.3663 430.431 88.1703 430.47 87.9743 430.47Z" fill="#202D37"/>
</svg>
