<svg width="20" height="20" viewBox="0 0 20 20" fill="none" xmlns="http://www.w3.org/2000/svg">
<path d="M10.8584 1.66602C11.7959 1.66852 12.2718 1.67352 12.6826 1.68518L12.8443 1.69102C13.0309 1.69768 13.2151 1.70602 13.4376 1.71602C14.3243 1.75768 14.9293 1.89768 15.4601 2.10352C16.0101 2.31518 16.4734 2.60185 16.9368 3.06435C17.3607 3.48079 17.6886 3.98474 17.8976 4.54102C18.1034 5.07185 18.2434 5.67685 18.2851 6.56435C18.2951 6.78602 18.3034 6.97018 18.3101 7.15768L18.3151 7.31935C18.3276 7.72935 18.3326 8.20518 18.3343 9.14268L18.3351 9.76435V10.856C18.3371 11.4639 18.3307 12.0717 18.3159 12.6793L18.3109 12.841C18.3043 13.0285 18.2959 13.2127 18.2859 13.4343C18.2443 14.3218 18.1026 14.926 17.8976 15.4577C17.6886 16.014 17.3607 16.5179 16.9368 16.9343C16.5203 17.3583 16.0164 17.6862 15.4601 17.8952C14.9293 18.101 14.3243 18.241 13.4376 18.2827L12.8443 18.3077L12.6826 18.3127C12.2718 18.3243 11.7959 18.3302 10.8584 18.3318L10.2368 18.3327H9.14594C8.53783 18.3348 7.92971 18.3284 7.32178 18.3135L7.16011 18.3085C6.96228 18.301 6.7645 18.2924 6.56678 18.2827C5.68011 18.241 5.07511 18.101 4.54344 17.8952C3.98747 17.6861 3.48381 17.3582 3.06761 16.9343C2.6434 16.518 2.3152 16.014 2.10594 15.4577C1.90011 14.9268 1.76011 14.3218 1.71844 13.4343L1.69344 12.841L1.68928 12.6793C1.67391 12.0717 1.66697 11.4639 1.66844 10.856V9.14268C1.66614 8.53485 1.67225 7.92701 1.68678 7.31935L1.69261 7.15768C1.69928 6.97018 1.70761 6.78602 1.71761 6.56435C1.75928 5.67685 1.89928 5.07268 2.10511 4.54102C2.31485 3.98451 2.64363 3.48055 3.06844 3.06435C3.4844 2.64064 3.98777 2.31274 4.54344 2.10352C5.07511 1.89768 5.67928 1.75768 6.56678 1.71602C6.78844 1.70602 6.97344 1.69768 7.16011 1.69102L7.32178 1.68602C7.92944 1.67121 8.53727 1.66482 9.14511 1.66685L10.8584 1.66602ZM10.0018 5.83268C8.89671 5.83268 7.8369 6.27167 7.0555 7.05307C6.2741 7.83447 5.83511 8.89428 5.83511 9.99935C5.83511 11.1044 6.2741 12.1642 7.0555 12.9456C7.8369 13.727 8.89671 14.166 10.0018 14.166C11.1068 14.166 12.1667 13.727 12.9481 12.9456C13.7295 12.1642 14.1684 11.1044 14.1684 9.99935C14.1684 8.89428 13.7295 7.83447 12.9481 7.05307C12.1667 6.27167 11.1068 5.83268 10.0018 5.83268ZM10.0018 7.49935C10.3301 7.49929 10.6552 7.5639 10.9585 7.68949C11.2618 7.81508 11.5375 7.99918 11.7697 8.23129C12.0018 8.46339 12.186 8.73896 12.3117 9.04225C12.4374 9.34555 12.5021 9.67063 12.5022 9.99893C12.5022 10.3272 12.4376 10.6523 12.312 10.9557C12.1865 11.259 12.0024 11.5346 11.7703 11.7668C11.5381 11.999 11.2626 12.1832 10.9593 12.3089C10.656 12.4346 10.3309 12.4993 10.0026 12.4993C9.33957 12.4993 8.70368 12.236 8.23484 11.7671C7.766 11.2983 7.50261 10.6624 7.50261 9.99935C7.50261 9.33631 7.766 8.70042 8.23484 8.23158C8.70368 7.76274 9.33957 7.49935 10.0026 7.49935M14.3776 4.58268C14.1013 4.58268 13.8364 4.69243 13.641 4.88778C13.4457 5.08313 13.3359 5.34808 13.3359 5.62435C13.3359 5.90062 13.4457 6.16557 13.641 6.36092C13.8364 6.55627 14.1013 6.66602 14.3776 6.66602C14.6539 6.66602 14.9188 6.55627 15.1142 6.36092C15.3095 6.16557 15.4193 5.90062 15.4193 5.62435C15.4193 5.34808 15.3095 5.08313 15.1142 4.88778C14.9188 4.69243 14.6539 4.58268 14.3776 4.58268Z" fill="#150149"/>
</svg>
