<svg width="87" height="50" viewBox="0 0 87 50" fill="none" xmlns="http://www.w3.org/2000/svg">
<path d="M46.4439 5.1637C47.9592 6.03856 49.2175 7.29689 50.0924 8.8122C50.9672 10.3275 51.4278 12.0464 51.4278 13.7961C51.4278 15.5459 50.9672 17.2647 50.0923 18.78C49.2174 20.2953 47.9591 21.5536 46.4438 22.4285C44.9285 23.3033 43.2095 23.7639 41.4598 23.7639C39.7101 23.7638 37.9912 23.3032 36.4759 22.4283C34.9606 21.5534 33.7023 20.2951 32.8275 18.7798C31.9527 17.2644 31.4921 15.5455 31.4922 13.7958L31.4972 13.4729C31.553 11.7514 32.0539 10.0738 32.9511 8.60358C33.8483 7.13336 35.1111 5.92071 36.6165 5.08384C38.1219 4.24698 39.8184 3.81446 41.5407 3.82845C43.263 3.84245 44.9523 4.30248 46.4439 5.1637ZM41.46 7.81514C41.1956 7.81514 40.9421 7.92015 40.7552 8.10709C40.5682 8.29402 40.4632 8.54755 40.4632 8.81191C39.6701 8.81191 38.9095 9.12697 38.3487 9.68776C37.7879 10.2486 37.4729 11.0092 37.4729 11.8023C37.4729 12.5953 37.7879 13.3559 38.3487 13.9167C38.9095 14.4775 39.6701 14.7926 40.4632 14.7926V16.7861C40.2979 16.7953 40.1328 16.764 39.9824 16.6948C39.832 16.6257 39.7007 16.5208 39.6 16.3894L39.5322 16.2888C39.3958 16.0688 39.1793 15.9105 38.9283 15.8474C38.6773 15.7842 38.4116 15.8212 38.1874 15.9504C37.9632 16.0796 37.798 16.2909 37.7268 16.5397C37.6556 16.7885 37.6839 17.0553 37.8058 17.2835C38.0602 17.7248 38.4231 18.0937 38.8601 18.3554C39.2971 18.6171 39.7936 18.7628 40.3027 18.7787H40.4632C40.463 19.023 40.5525 19.2589 40.7148 19.4416C40.877 19.6242 41.1007 19.7409 41.3434 19.7695L41.46 19.7765C41.7243 19.7765 41.9779 19.6715 42.1648 19.4845C42.3517 19.2976 42.4568 19.0441 42.4568 18.7797L42.6322 18.7747C43.4093 18.7298 44.1382 18.3837 44.6642 17.8098C45.1901 17.236 45.4715 16.4797 45.4487 15.7016C45.4259 14.9236 45.1005 14.1851 44.5418 13.6431C43.9832 13.1011 43.2352 12.7983 42.4568 12.799V10.8055C42.8136 10.7935 43.1256 10.945 43.32 11.2022L43.3878 11.3029C43.5241 11.5228 43.7407 11.6811 43.9917 11.7442C44.2426 11.8074 44.5083 11.7704 44.7325 11.6412C44.9568 11.512 45.122 11.3007 45.1932 11.0519C45.2644 10.8031 45.2361 10.5364 45.1142 10.3081C44.8599 9.86666 44.497 9.49752 44.06 9.23567C43.6231 8.97383 43.1264 8.82796 42.6172 8.81191H42.4568C42.4568 8.54755 42.3517 8.29402 42.1648 8.10709C41.9779 7.92015 41.7243 7.81514 41.46 7.81514ZM42.4568 14.7926C42.7211 14.7926 42.9747 14.8976 43.1616 15.0845C43.3485 15.2715 43.4535 15.525 43.4535 15.7894C43.4535 16.0537 43.3485 16.3073 43.1616 16.4942C42.9747 16.6811 42.7211 16.7861 42.4568 16.7861V14.7926ZM40.4632 10.8055V12.799C40.1988 12.799 39.9453 12.694 39.7584 12.5071C39.5714 12.3201 39.4664 12.0666 39.4664 11.8023C39.4664 11.5379 39.5714 11.2844 39.7584 11.0974C39.9453 10.9105 40.1988 10.8055 40.4632 10.8055Z" fill="#B0EC64"/>
<path d="M52.8553 8.19321L53.8505 4.30133C53.8593 4.2666 53.8598 4.23026 53.8518 4.19533C53.8438 4.16039 53.8277 4.12785 53.8046 4.10038L53.8043 4.09997C53.7811 4.07249 53.7516 4.05095 53.7184 4.03714C53.6852 4.02332 53.6492 4.01763 53.6133 4.02054L49.6183 4.34678C49.5769 4.35012 49.5374 4.36481 49.5039 4.38921C49.4704 4.41361 49.4442 4.44678 49.4284 4.48507C49.4124 4.5233 49.4073 4.56519 49.4136 4.60614C49.4199 4.6471 49.4374 4.68551 49.4641 4.71717L50.1677 5.55349L47.9223 7.44251C47.8996 7.46158 47.8809 7.48494 47.8672 7.51124C47.8536 7.53755 47.8453 7.56629 47.8427 7.59582C47.8402 7.62535 47.8435 7.6551 47.8525 7.68335C47.8614 7.7116 47.8759 7.73781 47.895 7.76047L49.1969 9.30778C49.2159 9.33048 49.2393 9.34919 49.2656 9.36285C49.2919 9.37651 49.3207 9.38485 49.3502 9.38739C49.3798 9.38993 49.4095 9.38662 49.4378 9.37765C49.4661 9.36868 49.4923 9.35423 49.515 9.33513L51.76 7.44627L52.4639 8.28287C52.5182 8.3474 52.6044 8.37603 52.6869 8.35748C52.7274 8.34828 52.7646 8.32807 52.7943 8.29908C52.824 8.27009 52.8451 8.23345 52.8553 8.19321Z" fill="#B0EC64"/>
<path d="M3.22 41.0168V38.4168H5.68C6.49333 38.4168 7.1 38.2568 7.5 37.9368C7.9 37.6035 8.1 37.0568 8.1 36.2968C8.1 35.5768 7.91333 35.0435 7.54 34.6968C7.18 34.3368 6.62667 34.1568 5.88 34.1568H3.22V31.5568H6.06C6.82 31.5568 7.52667 31.6502 8.18 31.8368C8.83333 32.0102 9.4 32.2902 9.88 32.6768C10.3733 33.0635 10.7533 33.5502 11.02 34.1368C11.3 34.7235 11.44 35.4302 11.44 36.2568C11.44 37.3102 11.2 38.1902 10.72 38.8968C10.2533 39.6035 9.57333 40.1368 8.68 40.4968C7.78667 40.8435 6.69333 41.0168 5.4 41.0168H3.22ZM0.8 44.7568V31.5568H4.04V44.7568H0.8ZM17.322 45.0368C16.322 45.0368 15.482 44.8968 14.802 44.6168C14.1354 44.3235 13.5954 43.9302 13.182 43.4368C12.7687 42.9302 12.4687 42.3568 12.282 41.7168C12.1087 41.0768 12.022 40.4035 12.022 39.6968C12.022 38.9368 12.1154 38.2102 12.302 37.5168C12.502 36.8235 12.802 36.2102 13.202 35.6768C13.6154 35.1302 14.142 34.7035 14.782 34.3968C15.4354 34.0768 16.2154 33.9168 17.122 33.9168C18.0287 33.9168 18.802 34.0768 19.442 34.3968C20.0954 34.7035 20.6154 35.1368 21.002 35.6968C21.3887 36.2568 21.6354 36.9035 21.742 37.6368C21.862 38.3702 21.8487 39.1635 21.702 40.0168L14.042 40.1368V38.3768L19.222 38.2768L18.802 39.2968C18.882 38.6835 18.8687 38.1702 18.762 37.7568C18.6687 37.3302 18.4887 37.0102 18.222 36.7968C17.9554 36.5702 17.5887 36.4568 17.122 36.4568C16.6287 36.4568 16.2354 36.5835 15.942 36.8368C15.6487 37.0902 15.442 37.4502 15.322 37.9168C15.202 38.3702 15.142 38.9102 15.142 39.5368C15.142 40.6168 15.322 41.4035 15.682 41.8968C16.042 42.3902 16.5954 42.6368 17.342 42.6368C17.662 42.6368 17.9287 42.5968 18.142 42.5168C18.3554 42.4368 18.5287 42.3235 18.662 42.1768C18.7954 42.0168 18.8887 41.8302 18.942 41.6168C18.9954 41.3902 19.0154 41.1368 19.002 40.8568L21.962 41.0168C22.002 41.4568 21.9554 41.9102 21.822 42.3768C21.702 42.8435 21.4687 43.2768 21.122 43.6768C20.7754 44.0768 20.2887 44.4035 19.662 44.6568C19.0487 44.9102 18.2687 45.0368 17.322 45.0368ZM23.0833 44.7568V38.7768V34.1968H25.8233V38.4968H25.9833C26.0633 37.4568 26.2366 36.6035 26.5033 35.9368C26.7699 35.2568 27.1499 34.7502 27.6433 34.4168C28.1366 34.0835 28.7633 33.9168 29.5233 33.9168C30.6699 33.9168 31.5299 34.2968 32.1033 35.0568C32.6899 35.8168 32.9833 36.9502 32.9833 38.4568V44.7568H29.7433V38.8768C29.7433 38.1568 29.6299 37.6168 29.4033 37.2568C29.1899 36.8968 28.8433 36.7168 28.3633 36.7168C27.9633 36.7168 27.6099 36.8568 27.3033 37.1368C26.9966 37.4168 26.7566 37.8702 26.5833 38.4968C26.4099 39.1235 26.3233 39.9635 26.3233 41.0168V44.7568H23.0833ZM34.3138 44.7568V34.1968H37.5538V44.7568H34.3138ZM35.9138 33.4368C35.3004 33.4368 34.8271 33.3102 34.4938 33.0568C34.1738 32.7902 34.0138 32.4102 34.0138 31.9168C34.0138 31.4102 34.1738 31.0302 34.4938 30.7768C34.8271 30.5102 35.3004 30.3768 35.9138 30.3768C36.5404 30.3768 37.0138 30.5102 37.3338 30.7768C37.6671 31.0435 37.8338 31.4235 37.8338 31.9168C37.8338 32.3968 37.6671 32.7702 37.3338 33.0368C37.0138 33.3035 36.5404 33.4368 35.9138 33.4368ZM40.9413 44.7568L38.4413 34.1968H41.8813L43.1013 42.0368H43.2013L44.5613 34.1968H48.1413L49.4613 42.0368H49.5613L50.8813 34.1968H54.1013L51.6413 44.7568H47.4213L46.3413 37.6368H46.2413L45.1213 44.7568H40.9413ZM58.7578 47.8768C58.3578 47.8768 57.9178 47.8435 57.4378 47.7768C56.9578 47.7102 56.4778 47.6035 55.9978 47.4568C55.5178 47.3102 55.0711 47.1235 54.6578 46.8968L55.3978 43.6368C55.8778 44.0902 56.4111 44.4102 56.9978 44.5968C57.5978 44.7835 58.1311 44.8768 58.5978 44.8768C59.2511 44.8768 59.7978 44.7502 60.2378 44.4968C60.6911 44.2302 61.0311 43.8502 61.2578 43.3568C61.4845 42.8502 61.5978 42.2368 61.5978 41.5168V39.6768H61.4178C61.3911 40.6102 61.2378 41.3768 60.9578 41.9768C60.6911 42.5635 60.3245 42.9968 59.8578 43.2768C59.3911 43.5568 58.8511 43.6968 58.2378 43.6968C57.4778 43.6968 56.8445 43.5035 56.3378 43.1168C55.8445 42.7302 55.4711 42.1502 55.2178 41.3768C54.9645 40.6035 54.8378 39.6368 54.8378 38.4768V34.1968H58.0578V37.6368C58.0578 38.7702 58.1778 39.5968 58.4178 40.1168C58.6578 40.6368 59.0378 40.8968 59.5578 40.8968C59.8245 40.8968 60.0578 40.8302 60.2578 40.6968C60.4711 40.5502 60.6445 40.3368 60.7778 40.0568C60.9111 39.7635 61.0111 39.4035 61.0778 38.9768C61.1445 38.5368 61.1778 38.0302 61.1778 37.4568V34.1968H64.3978V41.6368C64.3978 42.3568 64.3245 43.0368 64.1778 43.6768C64.0311 44.3035 63.8111 44.8702 63.5178 45.3768C63.2245 45.8968 62.8511 46.3435 62.3978 46.7168C61.9578 47.0902 61.4311 47.3768 60.8178 47.5768C60.2178 47.7768 59.5311 47.8768 58.7578 47.8768ZM70.3791 45.0368C69.6724 45.0368 69.0124 44.9635 68.3991 44.8168C67.7991 44.6835 67.2724 44.4635 66.8191 44.1568C66.3791 43.8502 66.0391 43.4435 65.7991 42.9368C65.5724 42.4168 65.4791 41.7902 65.5191 41.0568L68.3391 40.8168C68.3657 41.2568 68.4657 41.6235 68.6391 41.9168C68.8124 42.1968 69.0524 42.4035 69.3591 42.5368C69.6657 42.6702 70.0391 42.7368 70.4791 42.7368C70.8924 42.7368 71.2457 42.6702 71.5391 42.5368C71.8457 42.3902 71.9991 42.1502 71.9991 41.8168C71.9991 41.6435 71.9457 41.5035 71.8391 41.3968C71.7324 41.2768 71.5324 41.1702 71.2391 41.0768C70.9591 40.9702 70.5457 40.8502 69.9991 40.7168C69.3191 40.5435 68.7057 40.3702 68.1591 40.1968C67.6124 40.0235 67.1457 39.8168 66.7591 39.5768C66.3724 39.3368 66.0791 39.0435 65.8791 38.6968C65.6791 38.3368 65.5791 37.8968 65.5791 37.3768C65.5791 36.6435 65.7724 36.0235 66.1591 35.5168C66.5591 34.9968 67.1057 34.6035 67.7991 34.3368C68.4924 34.0568 69.2924 33.9168 70.1991 33.9168C71.0124 33.9168 71.7724 34.0435 72.4791 34.2968C73.1857 34.5502 73.7391 34.9635 74.1391 35.5368C74.5524 36.1102 74.7057 36.8702 74.5991 37.8168L71.8391 38.0768C71.8791 37.6902 71.8257 37.3635 71.6791 37.0968C71.5324 36.8168 71.3191 36.6102 71.0391 36.4768C70.7591 36.3302 70.4191 36.2568 70.0191 36.2568C69.5657 36.2568 69.2124 36.3435 68.9591 36.5168C68.7191 36.6768 68.5991 36.8835 68.5991 37.1368C68.5991 37.3368 68.6724 37.5102 68.8191 37.6568C68.9791 37.7902 69.2191 37.9102 69.5391 38.0168C69.8724 38.1102 70.2991 38.2168 70.8191 38.3368C71.2724 38.4302 71.7457 38.5502 72.2391 38.6968C72.7324 38.8435 73.1924 39.0435 73.6191 39.2968C74.0457 39.5368 74.3924 39.8568 74.6591 40.2568C74.9257 40.6568 75.0591 41.1635 75.0591 41.7768C75.0591 42.4302 74.8791 43.0035 74.5191 43.4968C74.1591 43.9902 73.6324 44.3702 72.9391 44.6368C72.2457 44.9035 71.3924 45.0368 70.3791 45.0368ZM81.1111 45.0368C80.1111 45.0368 79.2711 44.8968 78.5911 44.6168C77.9244 44.3235 77.3844 43.9302 76.9711 43.4368C76.5578 42.9302 76.2578 42.3568 76.0711 41.7168C75.8978 41.0768 75.8111 40.4035 75.8111 39.6968C75.8111 38.9368 75.9044 38.2102 76.0911 37.5168C76.2911 36.8235 76.5911 36.2102 76.9911 35.6768C77.4044 35.1302 77.9311 34.7035 78.5711 34.3968C79.2244 34.0768 80.0044 33.9168 80.9111 33.9168C81.8178 33.9168 82.5911 34.0768 83.2311 34.3968C83.8844 34.7035 84.4044 35.1368 84.7911 35.6968C85.1778 36.2568 85.4244 36.9035 85.5311 37.6368C85.6511 38.3702 85.6378 39.1635 85.4911 40.0168L77.8311 40.1368V38.3768L83.0111 38.2768L82.5911 39.2968C82.6711 38.6835 82.6578 38.1702 82.5511 37.7568C82.4578 37.3302 82.2778 37.0102 82.0111 36.7968C81.7444 36.5702 81.3778 36.4568 80.9111 36.4568C80.4178 36.4568 80.0244 36.5835 79.7311 36.8368C79.4378 37.0902 79.2311 37.4502 79.1111 37.9168C78.9911 38.3702 78.9311 38.9102 78.9311 39.5368C78.9311 40.6168 79.1111 41.4035 79.4711 41.8968C79.8311 42.3902 80.3844 42.6368 81.1311 42.6368C81.4511 42.6368 81.7178 42.5968 81.9311 42.5168C82.1444 42.4368 82.3178 42.3235 82.4511 42.1768C82.5844 42.0168 82.6778 41.8302 82.7311 41.6168C82.7844 41.3902 82.8044 41.1368 82.7911 40.8568L85.7511 41.0168C85.7911 41.4568 85.7444 41.9102 85.6111 42.3768C85.4911 42.8435 85.2578 43.2768 84.9111 43.6768C84.5644 44.0768 84.0778 44.4035 83.4511 44.6568C82.8378 44.9102 82.0578 45.0368 81.1111 45.0368Z" fill="#B0EC64"/>
</svg>
